<svg xmlns="http://www.w3.org/2000/svg" xmlns:xlink="http://www.w3.org/1999/xlink" viewBox="1067 -68 500 500">
  <defs>
    <style>
      .cls-1 {
        clip-path: url(#clip-Logo);
      }

      .cls-2, .cls-8 {
        fill: #fff;
      }

      .cls-2 {
        stroke: #95989a;
      }

      .cls-3 {
        fill: #fd0;
      }

      .cls-4 {
        fill: #72bc2a;
      }

      .cls-5 {
        fill: #2156d8;
      }

      .cls-6 {
        fill: #bc2828;
      }

      .cls-7 {
        fill: #ffce00;
      }

      .cls-9 {
        stroke: none;
      }

      .cls-10 {
        fill: none;
      }

      .cls-11 {
        filter: url(#Rectangle_26);
      }
    </style>
    <filter id="Rectangle_26" x="1056.677" y="-73.339" width="528.113" height="524.368" filterUnits="userSpaceOnUse">
      <feOffset dx="5" dy="6" input="SourceAlpha"/>
      <feGaussianBlur stdDeviation="5.5" result="blur"/>
      <feFlood flood-opacity="0.486"/>
      <feComposite operator="in" in2="blur"/>
      <feComposite in="SourceGraphic"/>
    </filter>
    <clipPath id="clip-Logo">
      <rect x="1067" y="-68" width="500" height="500"/>
    </clipPath>
  </defs>
  <g id="Logo" class="cls-1">
    <rect class="cls-8" x="1067" y="-68" width="500" height="500"/>
    <g class="cls-11" transform="matrix(1, 0, 0, 1, 0, 0)">
      <g id="Rectangle_26-2" data-name="Rectangle 26" class="cls-2" transform="translate(1068.18 -62.84)">
        <rect class="cls-9" width="495.113" height="491.368"/>
        <rect class="cls-10" x="0.5" y="0.5" width="494.113" height="490.368"/>
      </g>
    </g>
    <line id="Line_11" data-name="Line 11" class="cls-3" x2="1.094" transform="translate(1187.245 20.284)"/>
    <path id="Path_162" data-name="Path 162" class="cls-3" d="M54.84,103.437a7.278,7.278,0,0,0-2.149-2.781,8.9,8.9,0,0,0-3.31-1.6,16.922,16.922,0,0,0-4.257-.5,12.979,12.979,0,0,0-5.338.914,8.006,8.006,0,0,0-2.909,2.066,5.6,5.6,0,0,0-1.2,2.291,8.549,8.549,0,0,0-.254,1.563,5.939,5.939,0,0,0,.974,3.669,6.242,6.242,0,0,0,2.669,1.973,28.175,28.175,0,0,0,3.7,1.192l4.644,1.192,3.75,1.033a12.793,12.793,0,0,1,3.35,1.47,7.658,7.658,0,0,1,2.4,2.384,6.925,6.925,0,0,1,.921,3.761,7.741,7.741,0,0,1-1.041,4.132,8.519,8.519,0,0,1-2.669,2.755,11.713,11.713,0,0,1-3.79,1.536,19.289,19.289,0,0,1-4.19.464q-6.5,0-9.809-2.821t-3.31-8.887h1.268q0,5.443,3.056,7.947t8.808,2.53a16.924,16.924,0,0,0,3.63-.411,11.14,11.14,0,0,0,3.376-1.324,7.849,7.849,0,0,0,2.5-2.344,6.1,6.1,0,0,0,.827-3.536,5.637,5.637,0,0,0-.974-3.444,7.7,7.7,0,0,0-2.5-2.106,14.911,14.911,0,0,0-3.563-1.324l-4.137-1.073q-2.335-.57-4.1-1.06a22.691,22.691,0,0,1-3.15-1.126,6.208,6.208,0,0,1-2.963-2.437,8.055,8.055,0,0,1-.948-4.2,7.513,7.513,0,0,1,.574-2.755,6.994,6.994,0,0,1,1.9-2.649,10.255,10.255,0,0,1,3.4-1.947,15.159,15.159,0,0,1,5.111-.755,13.688,13.688,0,0,1,8.581,2.437q3.136,2.569,3.136,7.867H55.587a10.09,10.09,0,0,0-.747-4.093Z" transform="translate(1040.522 -69.71)"/>
    <path id="Path_163" data-name="Path 163" class="cls-3" d="M57.241,88.39v20.476h.093a11.329,11.329,0,0,1,1.415-3.444,10.944,10.944,0,0,1,5.9-4.609A13.6,13.6,0,0,1,69,100.151a13.76,13.76,0,0,1,4.644.755,10.2,10.2,0,0,1,3.71,2.225,9.993,9.993,0,0,1,2.4,3.629,13.51,13.51,0,0,1,.854,4.98v21.35H79.341V111.9a12.484,12.484,0,0,0-.814-4.794A8.712,8.712,0,0,0,73,101.966a12.888,12.888,0,0,0-4-.6,11.363,11.363,0,0,0-5.111,1.1,10.849,10.849,0,0,0-3.7,2.94,12.852,12.852,0,0,0-2.242,4.291,17.242,17.242,0,0,0-.761,5.139v18.224H56V88.39Z" transform="translate(1048.21 -72.57)"/>
    <path id="Path_164" data-name="Path 164" class="cls-3" d="M109.92,130.212V98.028h1.268v7.947h.174a12.381,12.381,0,0,1,1.335-3.417,9.628,9.628,0,0,1,2.522-2.781,12.394,12.394,0,0,1,3.75-1.881,15.766,15.766,0,0,1,5.085-.622v1.258a12.241,12.241,0,0,0-5.779.914,10.935,10.935,0,0,0-4,3.006,12.563,12.563,0,0,0-2.335,4.41,17.65,17.65,0,0,0-.761,5.139v18.224Z" transform="translate(1066.248 -69.692)"/>
    <path id="Path_165" data-name="Path 165" class="cls-3" d="M123.428,133.09H122.16V88.39h1.268v30.992l22.394-18.476h1.828l-14.893,12.278,16.014,19.867h-1.708l-15.24-18.993-8.394,6.887Z" transform="translate(1070.343 -72.57)"/>
    <path id="Path_166" data-name="Path 166" class="cls-3" d="M117.34,161.972V132.358H118.5v7.311h.12a11.4,11.4,0,0,1,1.335-3.139,8.857,8.857,0,0,1,2.322-2.569,11.418,11.418,0,0,1,3.456-1.735,14.5,14.5,0,0,1,4.671-.583v1.152a11.274,11.274,0,0,0-5.338.834,10.055,10.055,0,0,0-3.683,2.768,11.559,11.559,0,0,0-2.149,4.066,16.242,16.242,0,0,0-.694,4.728v16.767Z" transform="translate(1068.73 -58.54)"/>
    <path id="Path_167" data-name="Path 167" class="cls-3" d="M135.223,158.321a7.062,7.062,0,0,0,.374,2.649,3.325,3.325,0,0,0,.961,1.324,2.519,2.519,0,0,0,1.335.543,11.333,11.333,0,0,0,1.335.093h1.561a3.32,3.32,0,0,0,.988-.146v1.152l-1.014.119h-1.828a5.23,5.23,0,0,1-3.456-1.179q-1.428-1.179-1.428-4.344V135.553H128.59V134.4h5.458V125.13h1.161V134.4h6.673v1.152h-6.673Z" transform="translate(1072.494 -60.65)"/>
    <path id="Path_168" data-name="Path 168" class="cls-3" d="M143.681,124.08v18.436h.12a10.21,10.21,0,0,1,1.335-3.112,9.878,9.878,0,0,1,5.338-4.146,12.271,12.271,0,0,1,3.924-.6,12.417,12.417,0,0,1,4.19.675,8.9,8.9,0,0,1,5.458,5.3,12.181,12.181,0,0,1,.774,4.49v19.257h-1.134V145.324a11.261,11.261,0,0,0-.734-4.318,7.815,7.815,0,0,0-4.978-4.636,11.625,11.625,0,0,0-3.563-.543,10.248,10.248,0,0,0-4.6.993,9.782,9.782,0,0,0-3.336,2.649,11.6,11.6,0,0,0-2.015,3.867,15.56,15.56,0,0,0-.681,4.636v16.436H142.64V124.08Z" transform="translate(1077.194 -60.99)"/>
    <path id="Path_169" data-name="Path 169" class="cls-3" d="M164.534,141.583a14.531,14.531,0,0,1,2.536-4.834,12.778,12.778,0,0,1,4.124-3.364,12.778,12.778,0,0,1,11.33,0,12.791,12.791,0,0,1,4.124,3.364,14.53,14.53,0,0,1,2.536,4.834,19.723,19.723,0,0,1,0,11.47,14.531,14.531,0,0,1-2.536,4.834,12.077,12.077,0,0,1-9.822,4.583,12.288,12.288,0,0,1-5.632-1.245,12.446,12.446,0,0,1-4.124-3.338,14.531,14.531,0,0,1-2.536-4.834,19.723,19.723,0,0,1,0-11.47Zm1.054,11.046a13.472,13.472,0,0,0,2.309,4.49,11.4,11.4,0,0,0,3.79,3.112,11.214,11.214,0,0,0,5.2,1.152,11.093,11.093,0,0,0,5.151-1.152,11.418,11.418,0,0,0,3.79-3.112,13.471,13.471,0,0,0,2.309-4.49,18.254,18.254,0,0,0,.774-5.3,18.056,18.056,0,0,0-.774-5.3,13.471,13.471,0,0,0-2.309-4.49,11.737,11.737,0,0,0-3.79-3.139,10.877,10.877,0,0,0-5.151-1.192,11,11,0,0,0-5.2,1.192,11.724,11.724,0,0,0-3.79,3.139,13.472,13.472,0,0,0-2.309,4.49,18.059,18.059,0,0,0-.774,5.3,18.254,18.254,0,0,0,.774,5.285Z" transform="translate(1084.233 -58.402)"/>
    <path id="Path_170" data-name="Path 170" class="cls-3" d="M189.028,132.785v7.139h.12a10.223,10.223,0,0,1,1.335-3.112,9.878,9.878,0,0,1,5.338-4.146,12.268,12.268,0,0,1,3.924-.6,12.416,12.416,0,0,1,4.19.675,9.194,9.194,0,0,1,3.3,2,9.025,9.025,0,0,1,2.135,3.324,12.181,12.181,0,0,1,.774,4.49v19.257h-1.134V142.732a11.261,11.261,0,0,0-.734-4.318,7.815,7.815,0,0,0-4.978-4.636,11.624,11.624,0,0,0-3.563-.543,10.248,10.248,0,0,0-4.6.993,9.783,9.783,0,0,0-3.336,2.649,11.584,11.584,0,0,0-2.015,3.867,15.559,15.559,0,0,0-.681,4.636v16.436H187.96V132.785Z" transform="translate(1092.355 -58.398)"/>
    <path id="Path_171" data-name="Path 171" class="cls-3" d="M85.84,88.56" transform="translate(1058.192 -72.515)"/>
    <path id="Path_172" data-name="Path 172" class="cls-3" d="M120.889,176.046l1.335-.079c0-.318-2.082-31.787-10.676-52.978A100,100,0,0,0,85.8,86.5l-.814.993a98.642,98.642,0,0,1,25.356,36.038C118.807,144.484,120.862,175.741,120.889,176.046Z" transform="translate(1057.908 -73.183)"/>
    <path id="Path_173" data-name="Path 173" class="cls-3" d="M59.4,176.4c9.929-8.927,17.429-20.648,22.927-35.853,4.844-13.417,7.607-27.813,10.263-41.813.734-3.867,1.495-7.854,2.282-11.708L93.6,86.77c-.787,3.854-1.548,7.854-2.282,11.721-5.338,28.184-10.943,57.322-32.79,76.95Z" transform="translate(1049.056 -73.095)"/>
    <path id="Path_323" data-name="Path 323" class="cls-3" d="M0,0,1.12,0l0,1.113L0,1.113Z" transform="translate(1142.646 13.655) rotate(-19.39)"/>
    <path id="Path_174" data-name="Path 174" class="cls-3" d="M85.868,86.517S84.96,86,84.8,86.887" transform="translate(1057.844 -73.226)"/>
    <line id="Line_12" data-name="Line 12" class="cls-3" x2="1.094" transform="translate(1187.605 270.179)"/>
    <path id="Path_175" data-name="Path 175" class="cls-3" d="M55.143,292.084a7.278,7.278,0,0,0-2.149-2.781,8.915,8.915,0,0,0-3.31-1.6,16.92,16.92,0,0,0-4.257-.5,12.979,12.979,0,0,0-5.338.914,8.006,8.006,0,0,0-2.909,2.066,5.6,5.6,0,0,0-1.2,2.291,8.551,8.551,0,0,0-.254,1.563A5.939,5.939,0,0,0,36.7,297.7a6.242,6.242,0,0,0,2.669,1.973,28.17,28.17,0,0,0,3.7,1.192l4.644,1.192,3.75,1.033a12.792,12.792,0,0,1,3.27,1.47,7.658,7.658,0,0,1,2.4,2.384,6.925,6.925,0,0,1,.921,3.761,7.741,7.741,0,0,1-1.041,4.132,8.519,8.519,0,0,1-2.669,2.755,11.714,11.714,0,0,1-3.843,1.536,19.3,19.3,0,0,1-4.19.464q-6.5,0-9.809-2.821t-3.31-8.887h1.268q0,5.443,3.056,7.947t8.808,2.53a16.935,16.935,0,0,0,3.63-.411,11.139,11.139,0,0,0,3.376-1.324,7.848,7.848,0,0,0,2.5-2.344,6.1,6.1,0,0,0,.974-3.51,5.637,5.637,0,0,0-.974-3.444A7.7,7.7,0,0,0,53.3,305.17a14.926,14.926,0,0,0-3.563-1.324l-4.1-1.007q-2.335-.57-4.1-1.06a22.687,22.687,0,0,1-3.149-1.126,6.209,6.209,0,0,1-2.963-2.437,8.055,8.055,0,0,1-.948-4.2,7.513,7.513,0,0,1,.574-2.755,6.994,6.994,0,0,1,1.882-2.6,10.256,10.256,0,0,1,3.4-1.947,15.159,15.159,0,0,1,5.111-.755,13.674,13.674,0,0,1,8.581,2.437q3.149,2.437,3.149,7.827H55.917a10.091,10.091,0,0,0-.774-4.146Z" transform="translate(1040.579 -8.475)"/>
    <path id="Path_176" data-name="Path 176" class="cls-3" d="M57.535,277.06v20.476h.12a11.329,11.329,0,0,1,1.415-3.444,10.944,10.944,0,0,1,5.9-4.609,13.6,13.6,0,0,1,4.311-.583,13.76,13.76,0,0,1,4.644.755,10.2,10.2,0,0,1,3.657,2.225,9.994,9.994,0,0,1,2.4,3.629,13.509,13.509,0,0,1,.854,4.98v21.35H79.568V300.648a12.483,12.483,0,0,0-.814-4.794,8.935,8.935,0,0,0-5.472-5.165,12.888,12.888,0,0,0-4-.6,11.362,11.362,0,0,0-5.111,1.1,10.848,10.848,0,0,0-3.7,2.94,12.852,12.852,0,0,0-2.242,4.291,17.242,17.242,0,0,0-.761,5.139v18.224H56.2V277.06Z" transform="translate(1048.277 -11.357)"/>
    <path id="Path_177" data-name="Path 177" class="cls-3" d="M110.19,318.892V286.708h1.268v7.947h.12a12.38,12.38,0,0,1,1.335-3.417,9.628,9.628,0,0,1,2.522-2.781,12.393,12.393,0,0,1,3.75-1.881,15.765,15.765,0,0,1,5.085-.622v1.258a12.241,12.241,0,0,0-5.779.914,10.935,10.935,0,0,0-4,3.006,12.563,12.563,0,0,0-2.335,4.41,17.65,17.65,0,0,0-.761,5.139v18.224Z" transform="translate(1066.338 -8.476)"/>
    <path id="Path_178" data-name="Path 178" class="cls-3" d="M123.7,321.773H122.43V277.06H123.7v30.992l22.394-18.476h1.828l-14.893,12.278,16.014,19.867h-1.708l-15.2-19.032-8.394,6.887Z" transform="translate(1070.433 -11.357)"/>
    <path id="Path_179" data-name="Path 179" class="cls-3" d="M117.61,350.642V321.028h1.161v7.311h.12a11.4,11.4,0,0,1,1.335-3.139,8.858,8.858,0,0,1,2.322-2.569A11.4,11.4,0,0,1,126,320.9a14.5,14.5,0,0,1,4.671-.583v1.152a11.274,11.274,0,0,0-5.338.835,10.055,10.055,0,0,0-3.683,2.768,11.56,11.56,0,0,0-2.189,4.106,16.242,16.242,0,0,0-.694,4.728v16.767Z" transform="translate(1068.82 2.672)"/>
    <path id="Path_180" data-name="Path 180" class="cls-3" d="M135.489,346.974a7.061,7.061,0,0,0,.374,2.649,3.312,3.312,0,0,0,.961,1.324,2.519,2.519,0,0,0,1.335.543,11.334,11.334,0,0,0,1.335.093h1.561a3.307,3.307,0,0,0,.988-.146v1.152l-1.014.119H139.2a5.23,5.23,0,0,1-3.456-1.179q-1.375-1.152-1.375-4.371V324.273H128.91v-1.152h5.458V313.85h1.161v9.271H142.2v1.152h-6.673Z" transform="translate(1072.601 0.579)"/>
    <path id="Path_181" data-name="Path 181" class="cls-3" d="M143.951,312.76v18.476h.12a10.21,10.21,0,0,1,1.335-3.112,9.878,9.878,0,0,1,5.338-4.145,12.267,12.267,0,0,1,3.924-.6,12.415,12.415,0,0,1,4.19.675,9.208,9.208,0,0,1,3.3,2,9.027,9.027,0,0,1,2.162,3.271,12.181,12.181,0,0,1,.774,4.49v19.257h-1.134V334a11.26,11.26,0,0,0-.734-4.318,7.816,7.816,0,0,0-4.978-4.636,11.625,11.625,0,0,0-3.563-.543,10.247,10.247,0,0,0-4.6.993,9.783,9.783,0,0,0-3.336,2.649,11.6,11.6,0,0,0-2.015,3.867,15.558,15.558,0,0,0-.681,4.636v16.436H142.91V312.76Z" transform="translate(1077.284 0.226)"/>
    <path id="Path_182" data-name="Path 182" class="cls-3" d="M164.8,330.253a14.531,14.531,0,0,1,2.536-4.834,12.778,12.778,0,0,1,4.124-3.364,12.778,12.778,0,0,1,11.33,0,12.8,12.8,0,0,1,4.124,3.364,14.53,14.53,0,0,1,2.536,4.834,19.723,19.723,0,0,1,0,11.47,14.53,14.53,0,0,1-2.536,4.834,12.078,12.078,0,0,1-9.822,4.583,12.288,12.288,0,0,1-5.632-1.245,12.446,12.446,0,0,1-4.124-3.338,14.531,14.531,0,0,1-2.536-4.834,19.723,19.723,0,0,1,0-11.47Zm1.054,11.046a13.473,13.473,0,0,0,2.309,4.49,11.4,11.4,0,0,0,3.79,3.112,11.213,11.213,0,0,0,5.2,1.152,11.093,11.093,0,0,0,5.151-1.152,11.418,11.418,0,0,0,3.79-3.113,13.472,13.472,0,0,0,2.309-4.49,18.255,18.255,0,0,0,.774-5.3,18.056,18.056,0,0,0-.774-5.3,13.471,13.471,0,0,0-2.309-4.49,11.736,11.736,0,0,0-3.79-3.139,10.876,10.876,0,0,0-5.151-1.192,11,11,0,0,0-5.2,1.192,11.723,11.723,0,0,0-3.79,3.139,13.472,13.472,0,0,0-2.309,4.49,18.057,18.057,0,0,0-.774,5.3,18.254,18.254,0,0,0,.774,5.3Z" transform="translate(1084.323 2.811)"/>
    <path id="Path_183" data-name="Path 183" class="cls-3" d="M189.258,321.456v7.178h.12a10.223,10.223,0,0,1,1.335-3.112,9.878,9.878,0,0,1,5.338-4.146,12.268,12.268,0,0,1,3.924-.6,12.415,12.415,0,0,1,4.19.675,9.208,9.208,0,0,1,3.3,2,9.027,9.027,0,0,1,2.162,3.271,12.181,12.181,0,0,1,.774,4.49v19.257h-1.121V331.4a11.26,11.26,0,0,0-.734-4.318,7.816,7.816,0,0,0-4.978-4.636,11.624,11.624,0,0,0-3.563-.543,10.248,10.248,0,0,0-4.6.993,9.783,9.783,0,0,0-3.336,2.649,11.6,11.6,0,0,0-2.015,3.867,15.558,15.558,0,0,0-.681,4.636v16.436H188.23V321.456Z" transform="translate(1092.445 2.827)"/>
    <path id="Path_184" data-name="Path 184" class="cls-3" d="M86.11,277.24" transform="translate(1058.283 -11.299)"/>
    <path id="Path_185" data-name="Path 185" class="cls-3" d="M121.146,364.739l1.335-.079c0-.318-2.082-31.787-10.676-52.978a99.979,99.979,0,0,0-25.69-36.541l-.814.993a98.642,98.642,0,0,1,25.356,36.038C119.077,333.23,121.119,364.421,121.146,364.739Z" transform="translate(1058.012 -11.98)"/>
    <path id="Path_186" data-name="Path 186" class="cls-3" d="M59.667,365.075c9.929-8.927,17.429-20.648,22.927-35.853,4.844-13.417,7.607-27.813,10.263-41.813.734-3.867,1.495-7.854,2.282-11.708l-1.268-.252c-.787,3.854-1.548,7.854-2.282,11.721-5.338,28.184-10.943,57.322-32.79,76.95Z" transform="translate(1049.146 -11.879)"/>
    <path id="Path_324" data-name="Path 324" class="cls-3" d="M0,0,1.12,0l0,1.113L0,1.113Z" transform="matrix(0.943, -0.332, 0.332, 0.943, 1142.999, 263.563)"/>
    <path id="Path_187" data-name="Path 187" class="cls-3" d="M86.138,275.187s-.907-.517-1.068.371" transform="translate(1057.935 -12.013)"/>
    <line id="Line_13" data-name="Line 13" class="cls-3" x2="1.081" transform="translate(1439.205 270.179)"/>
    <path id="Path_188" data-name="Path 188" class="cls-3" d="M243.63,292.1a7.278,7.278,0,0,0-2.149-2.781,8.915,8.915,0,0,0-3.31-1.6,16.925,16.925,0,0,0-4.257-.5,12.98,12.98,0,0,0-5.338.914,8.006,8.006,0,0,0-2.909,2.066,5.6,5.6,0,0,0-1.2,2.291,8.535,8.535,0,0,0-.254,1.563,5.939,5.939,0,0,0,.974,3.669,6.242,6.242,0,0,0,2.669,1.973,28.17,28.17,0,0,0,3.7,1.192l4.644,1.192,3.75,1.033a12.793,12.793,0,0,1,3.35,1.47,7.658,7.658,0,0,1,2.4,2.384,6.925,6.925,0,0,1,.921,3.761,7.741,7.741,0,0,1-1.041,4.132,8.518,8.518,0,0,1-2.669,2.755,11.716,11.716,0,0,1-3.79,1.536,19.3,19.3,0,0,1-4.19.464q-6.5,0-9.809-2.821t-3.31-8.887h1.268q0,5.443,3.056,7.947t8.808,2.53a16.937,16.937,0,0,0,3.63-.411,11.14,11.14,0,0,0,3.376-1.324,7.849,7.849,0,0,0,2.5-2.344,6.1,6.1,0,0,0,.974-3.51,5.637,5.637,0,0,0-.974-3.444,7.7,7.7,0,0,0-2.522-2.159,14.925,14.925,0,0,0-3.563-1.324l-4.1-1.007q-2.335-.57-4.1-1.06a22.7,22.7,0,0,1-3.149-1.126,6.208,6.208,0,0,1-2.963-2.437,8.055,8.055,0,0,1-.947-4.2,7.5,7.5,0,0,1,.574-2.755,6.994,6.994,0,0,1,1.9-2.649,10.255,10.255,0,0,1,3.4-1.947,15.159,15.159,0,0,1,5.111-.755,13.688,13.688,0,0,1,8.581,2.437q3.15,2.437,3.15,7.827H244.55a10.094,10.094,0,0,0-.921-4.092Z" transform="translate(1103.679 -8.488)"/>
    <path id="Path_189" data-name="Path 189" class="cls-3" d="M246.068,277.06v20.476h.12a11.328,11.328,0,0,1,1.415-3.444,10.944,10.944,0,0,1,5.9-4.609,13.6,13.6,0,0,1,4.351-.662,13.761,13.761,0,0,1,4.644.755,10.2,10.2,0,0,1,3.657,2.225,9.993,9.993,0,0,1,2.4,3.629,13.5,13.5,0,0,1,.854,4.98v21.35h-1.268V300.569a12.483,12.483,0,0,0-.814-4.794,8.713,8.713,0,0,0-5.525-5.139,12.888,12.888,0,0,0-4-.6,11.362,11.362,0,0,0-5.111,1.1,10.849,10.849,0,0,0-3.7,2.94,12.853,12.853,0,0,0-2.242,4.291,17.243,17.243,0,0,0-.761,5.139v18.224H244.72V277.06Z" transform="translate(1111.343 -11.357)"/>
    <path id="Path_190" data-name="Path 190" class="cls-3" d="M298.71,318.892V286.708h1.268v7.947h.12a12.381,12.381,0,0,1,1.335-3.417,9.628,9.628,0,0,1,2.522-2.781,12.394,12.394,0,0,1,3.75-1.881,15.765,15.765,0,0,1,5.085-.622v1.258a12.241,12.241,0,0,0-5.779.914,10.935,10.935,0,0,0-4,3.006,12.563,12.563,0,0,0-2.336,4.41,17.648,17.648,0,0,0-.761,5.139v18.224Z" transform="translate(1129.405 -8.476)"/>
    <path id="Path_191" data-name="Path 191" class="cls-3" d="M312.2,321.773H311V277.06h1.268v30.992l22.394-18.476h1.828L321.6,301.854l16.014,19.867H335.9l-15.2-19.032-8.394,6.887Z" transform="translate(1133.516 -11.357)"/>
    <path id="Path_192" data-name="Path 192" class="cls-3" d="M306.13,350.642V321.028h1.161v7.311h.12a11.41,11.41,0,0,1,1.335-3.139,8.857,8.857,0,0,1,2.322-2.569,11.4,11.4,0,0,1,3.456-1.735,14.5,14.5,0,0,1,4.671-.583v1.152a11.274,11.274,0,0,0-5.338.835,10.055,10.055,0,0,0-3.683,2.768,11.561,11.561,0,0,0-2.149,4.066,16.248,16.248,0,0,0-.694,4.728v16.767Z" transform="translate(1131.887 2.672)"/>
    <path id="Path_193" data-name="Path 193" class="cls-3" d="M324.019,346.974a7.05,7.05,0,0,0,.374,2.649,3.313,3.313,0,0,0,.961,1.324,2.52,2.52,0,0,0,1.335.543,11.334,11.334,0,0,0,1.335.093h1.561a3.306,3.306,0,0,0,.988-.146v1.152l-1.014.119h-1.828a5.23,5.23,0,0,1-3.456-1.179q-1.428-1.179-1.428-4.344V324.273H317.4v-1.152h5.458V313.85h1.161v9.271h6.673v1.152h-6.673Z" transform="translate(1135.657 0.579)"/>
    <path id="Path_194" data-name="Path 194" class="cls-3" d="M332.474,312.76v18.476h.12a10.208,10.208,0,0,1,1.335-3.112,9.878,9.878,0,0,1,5.338-4.145,12.267,12.267,0,0,1,3.924-.6,12.415,12.415,0,0,1,4.19.675,9.208,9.208,0,0,1,3.3,2,9.026,9.026,0,0,1,2.162,3.271,12.181,12.181,0,0,1,.774,4.49v19.257h-1.134V334a11.26,11.26,0,0,0-.734-4.318,7.816,7.816,0,0,0-4.978-4.636,11.625,11.625,0,0,0-3.563-.543,10.248,10.248,0,0,0-4.617.993,9.783,9.783,0,0,0-3.336,2.649,11.6,11.6,0,0,0-2.015,3.867,15.559,15.559,0,0,0-.681,4.636v16.436H331.42V312.76Z" transform="translate(1140.347 0.226)"/>
    <path id="Path_195" data-name="Path 195" class="cls-3" d="M353.324,330.253a14.53,14.53,0,0,1,2.536-4.834,12.777,12.777,0,0,1,4.124-3.364,12.778,12.778,0,0,1,11.33,0,12.8,12.8,0,0,1,4.124,3.364,14.53,14.53,0,0,1,2.536,4.834,19.723,19.723,0,0,1,0,11.47,14.529,14.529,0,0,1-2.536,4.834,12.077,12.077,0,0,1-9.822,4.583,12.289,12.289,0,0,1-5.632-1.245,12.432,12.432,0,0,1-4.124-3.337,14.529,14.529,0,0,1-2.536-4.834,19.723,19.723,0,0,1,0-11.47Zm1.054,11.046a13.474,13.474,0,0,0,2.309,4.49,11.406,11.406,0,0,0,3.79,3.112,11.213,11.213,0,0,0,5.2,1.152,11.093,11.093,0,0,0,5.151-1.152,11.418,11.418,0,0,0,3.79-3.112,13.473,13.473,0,0,0,2.309-4.49,18.255,18.255,0,0,0,.774-5.3,18.058,18.058,0,0,0-.774-5.3,13.471,13.471,0,0,0-2.309-4.49,11.737,11.737,0,0,0-3.79-3.139,10.877,10.877,0,0,0-5.151-1.192,11,11,0,0,0-5.2,1.192,11.723,11.723,0,0,0-3.79,3.139,13.472,13.472,0,0,0-2.309,4.49,18.059,18.059,0,0,0-.774,5.3A18.255,18.255,0,0,0,354.378,341.3Z" transform="translate(1147.39 2.811)"/>
    <path id="Path_196" data-name="Path 196" class="cls-3" d="M377.831,321.456v7.178h.12a10.209,10.209,0,0,1,1.335-3.112,9.878,9.878,0,0,1,5.338-4.145,12.266,12.266,0,0,1,3.924-.6,12.416,12.416,0,0,1,4.19.675,9.208,9.208,0,0,1,3.3,2,9.027,9.027,0,0,1,2.162,3.271,12.181,12.181,0,0,1,.774,4.49v19.257h-1.134V331.4a11.259,11.259,0,0,0-.734-4.318,7.953,7.953,0,0,0-5.058-4.688,11.622,11.622,0,0,0-3.563-.543,10.248,10.248,0,0,0-4.6.993,9.783,9.783,0,0,0-3.336,2.649,11.6,11.6,0,0,0-2.015,3.867,15.556,15.556,0,0,0-.681,4.636v16.436H376.71V321.456Z" transform="translate(1155.499 2.827)"/>
    <path id="Path_197" data-name="Path 197" class="cls-3" d="M274.63,277.24" transform="translate(1121.349 -11.299)"/>
    <path id="Path_198" data-name="Path 198" class="cls-3" d="M309.666,364.739l1.335-.079c0-.318-2.082-31.787-10.676-52.978a99.979,99.979,0,0,0-25.69-36.541l-.814.993a98.643,98.643,0,0,1,25.356,36.038C307.6,333.23,309.652,364.421,309.666,364.739Z" transform="translate(1121.078 -11.98)"/>
    <path id="Path_199" data-name="Path 199" class="cls-3" d="M248.217,365.075c9.929-8.927,17.429-20.648,22.927-35.853,4.844-13.417,7.607-27.813,10.263-41.813.734-3.867,1.495-7.854,2.282-11.708l-1.268-.252c-.787,3.854-1.548,7.854-2.282,11.721-5.338,28.184-10.943,57.322-32.79,76.95Z" transform="translate(1112.223 -11.879)"/>
    <path id="Path_325" data-name="Path 325" class="cls-3" d="M0,0,1.12,0l0,1.113L0,1.113Z" transform="matrix(0.943, -0.332, 0.332, 0.943, 1394.61, 263.55)"/>
    <path id="Path_200" data-name="Path 200" class="cls-3" d="M274.668,275.187s-.907-.517-1.068.371" transform="translate(1121.005 -12.013)"/>
    <line id="Line_14" data-name="Line 14" class="cls-3" x2="1.081" transform="translate(1439.205 20.562)"/>
    <path id="Path_201" data-name="Path 201" class="cls-3" d="M243.663,103.63a7.278,7.278,0,0,0-2.149-2.781,8.916,8.916,0,0,0-3.31-1.6,16.925,16.925,0,0,0-4.257-.5,12.979,12.979,0,0,0-5.338.914,8.006,8.006,0,0,0-2.909,2.066,5.6,5.6,0,0,0-1.2,2.291,8.535,8.535,0,0,0-.254,1.563,5.939,5.939,0,0,0,.974,3.669,6.242,6.242,0,0,0,2.669,1.973,28.176,28.176,0,0,0,3.7,1.192l4.644,1.192,3.75,1.033a12.794,12.794,0,0,1,3.35,1.47,7.658,7.658,0,0,1,2.4,2.384,6.924,6.924,0,0,1,.921,3.761,7.741,7.741,0,0,1-1.041,4.132,8.518,8.518,0,0,1-2.669,2.755,11.714,11.714,0,0,1-3.79,1.536,19.3,19.3,0,0,1-4.19.464q-6.5,0-9.809-2.821t-3.443-8.953h1.268q0,5.443,3.056,7.947t8.808,2.53a16.938,16.938,0,0,0,3.63-.411,11.14,11.14,0,0,0,3.376-1.324,7.848,7.848,0,0,0,2.5-2.344,6.1,6.1,0,0,0,.974-3.51,5.637,5.637,0,0,0-.974-3.444,7.7,7.7,0,0,0-2.522-2.159,14.912,14.912,0,0,0-3.563-1.324l-4.1-1.007q-2.335-.57-4.1-1.06a22.706,22.706,0,0,1-3.15-1.126,6.208,6.208,0,0,1-2.963-2.437,8.055,8.055,0,0,1-.948-4.2,7.5,7.5,0,0,1,.574-2.755,6.994,6.994,0,0,1,1.9-2.649,10.257,10.257,0,0,1,3.3-1.854,15.159,15.159,0,0,1,5.111-.755,13.688,13.688,0,0,1,8.581,2.437q3.15,2.437,3.15,7.827h-1.268a10.089,10.089,0,0,0-.681-4.119Z" transform="translate(1103.646 -69.626)"/>
    <path id="Path_202" data-name="Path 202" class="cls-3" d="M246.061,88.59v20.476h.12a11.331,11.331,0,0,1,1.415-3.444,10.945,10.945,0,0,1,5.9-4.569,13.6,13.6,0,0,1,4.351-.662,13.76,13.76,0,0,1,4.644.755,10.2,10.2,0,0,1,3.657,2.225,9.994,9.994,0,0,1,2.4,3.629,13.5,13.5,0,0,1,.854,4.98v21.35h-1.268V112.139a12.484,12.484,0,0,0-.814-4.794,8.614,8.614,0,0,0-5.5-5.126,12.889,12.889,0,0,0-4-.6,11.362,11.362,0,0,0-5.111,1.1,10.849,10.849,0,0,0-3.7,2.94,12.853,12.853,0,0,0-2.242,4.291,17.241,17.241,0,0,0-.761,5.139v18.224H244.74V88.59Z" transform="translate(1111.35 -72.505)"/>
    <path id="Path_203" data-name="Path 203" class="cls-3" d="M298.71,130.406V98.222h1.268v7.947h.12a12.381,12.381,0,0,1,1.335-3.417,9.628,9.628,0,0,1,2.522-2.781,12.4,12.4,0,0,1,3.817-1.814,15.766,15.766,0,0,1,5.085-.622v1.258a12.241,12.241,0,0,0-5.779.914,10.936,10.936,0,0,0-4,3.006,12.564,12.564,0,0,0-2.335,4.41,17.65,17.65,0,0,0-.761,5.139v18.224Z" transform="translate(1129.405 -69.608)"/>
    <path id="Path_204" data-name="Path 204" class="cls-3" d="M312.2,133.3H311V88.59h1.268V119.6l22.394-18.476h1.828L321.6,113.4l16.014,19.867H335.9L320.6,114.3l-8.394,6.887Z" transform="translate(1133.516 -72.505)"/>
    <path id="Path_205" data-name="Path 205" class="cls-3" d="M306.13,162.169v-29.6h1.161v7.311h.12a11.41,11.41,0,0,1,1.335-3.139,8.856,8.856,0,0,1,2.322-2.569,11.4,11.4,0,0,1,3.456-1.735,14.5,14.5,0,0,1,4.671-.583V133a11.274,11.274,0,0,0-5.338.834,10.055,10.055,0,0,0-3.683,2.768,11.56,11.56,0,0,0-2.149,4.066,16.242,16.242,0,0,0-.694,4.728v16.767Z" transform="translate(1131.887 -58.472)"/>
    <path id="Path_206" data-name="Path 206" class="cls-3" d="M324.019,158.5a7.061,7.061,0,0,0,.374,2.649,3.312,3.312,0,0,0,.961,1.324,2.519,2.519,0,0,0,1.335.543,11.337,11.337,0,0,0,1.335.093h1.561a3.3,3.3,0,0,0,.988-.146v1.152l-1.014.119h-1.828a5.23,5.23,0,0,1-3.456-1.179q-1.428-1.179-1.428-4.344v-22.9H317.4v-1.152h5.458V125.39h1.161v9.271h6.673v1.152h-6.673Z" transform="translate(1135.657 -60.565)"/>
    <path id="Path_207" data-name="Path 207" class="cls-3" d="M332.474,124.29v18.476h.12a10.21,10.21,0,0,1,1.335-3.112,9.878,9.878,0,0,1,5.338-4.146,12.27,12.27,0,0,1,3.924-.6,12.416,12.416,0,0,1,4.19.675,9.194,9.194,0,0,1,3.3,2,9.027,9.027,0,0,1,2.162,3.271,12.181,12.181,0,0,1,.774,4.49v19.257h-1.134V145.534a11.26,11.26,0,0,0-.734-4.318,7.815,7.815,0,0,0-4.978-4.636,11.625,11.625,0,0,0-3.563-.543,10.248,10.248,0,0,0-4.617.993,9.783,9.783,0,0,0-3.336,2.649,11.6,11.6,0,0,0-2.015,3.867,15.559,15.559,0,0,0-.681,4.636v16.436H331.42V124.29Z" transform="translate(1140.347 -60.922)"/>
    <path id="Path_208" data-name="Path 208" class="cls-3" d="M353.324,141.783a14.53,14.53,0,0,1,2.536-4.834,12.778,12.778,0,0,1,4.124-3.364,12.778,12.778,0,0,1,11.33,0,12.8,12.8,0,0,1,4.124,3.364,14.53,14.53,0,0,1,2.536,4.834,19.723,19.723,0,0,1,0,11.47,14.529,14.529,0,0,1-2.536,4.834,12.077,12.077,0,0,1-9.822,4.583,12.289,12.289,0,0,1-5.632-1.245,12.433,12.433,0,0,1-4.124-3.338,14.529,14.529,0,0,1-2.536-4.834,19.723,19.723,0,0,1,0-11.47Zm1.054,11.046a13.472,13.472,0,0,0,2.309,4.49,11.4,11.4,0,0,0,3.79,3.112,11.214,11.214,0,0,0,5.2,1.152,11.093,11.093,0,0,0,5.151-1.152,11.417,11.417,0,0,0,3.79-3.112,13.472,13.472,0,0,0,2.309-4.49,18.255,18.255,0,0,0,.774-5.3,18.059,18.059,0,0,0-.774-5.3,13.472,13.472,0,0,0-2.309-4.49,11.737,11.737,0,0,0-3.79-3.139,10.877,10.877,0,0,0-5.151-1.192,11,11,0,0,0-5.2,1.192,11.723,11.723,0,0,0-3.79,3.139,13.459,13.459,0,0,0-2.309,4.49,18.059,18.059,0,0,0-.774,5.3A18.255,18.255,0,0,0,354.378,152.829Z" transform="translate(1147.39 -58.337)"/>
    <path id="Path_209" data-name="Path 209" class="cls-3" d="M377.811,132.986v7.178h.12a10.208,10.208,0,0,1,1.335-3.112,9.878,9.878,0,0,1,5.338-4.146,12.27,12.27,0,0,1,3.924-.6,12.416,12.416,0,0,1,4.19.675,8.9,8.9,0,0,1,5.458,5.3,12.181,12.181,0,0,1,.774,4.49v19.257h-1.134v-19.1a11.259,11.259,0,0,0-.734-4.318,7.815,7.815,0,0,0-4.978-4.636,11.626,11.626,0,0,0-3.563-.543,10.248,10.248,0,0,0-4.6.993,9.783,9.783,0,0,0-3.336,2.649,11.6,11.6,0,0,0-2.015,3.867,15.556,15.556,0,0,0-.681,4.636v16.436H376.77V132.986Z" transform="translate(1155.519 -58.32)"/>
    <path id="Path_210" data-name="Path 210" class="cls-3" d="M274.63,88.77" transform="translate(1121.349 -72.447)"/>
    <path id="Path_211" data-name="Path 211" class="cls-3" d="M309.666,176.269l1.335-.079c0-.318-2.082-31.787-10.676-52.978a99.992,99.992,0,0,0-25.69-36.541l-.814.993A98.643,98.643,0,0,1,299.176,123.7C307.6,144.707,309.652,175.964,309.666,176.269Z" transform="translate(1121.078 -73.128)"/>
    <path id="Path_212" data-name="Path 212" class="cls-3" d="M248.217,176.605c9.929-8.927,17.429-20.648,22.927-35.853,4.844-13.417,7.607-27.813,10.263-41.813.734-3.867,1.495-7.854,2.282-11.708l-1.268-.252c-.787,3.854-1.548,7.854-2.282,11.721-5.338,28.184-10.943,57.322-32.79,76.95Z" transform="translate(1112.223 -73.027)"/>
    <path id="Path_326" data-name="Path 326" class="cls-3" d="M0,0,1.12,0l0,1.113L0,1.113Z" transform="translate(1394.608 13.902) rotate(-19.39)"/>
    <path id="Path_213" data-name="Path 213" class="cls-3" d="M274.668,86.727s-.907-.517-1.068.371" transform="translate(1121.005 -73.158)"/>
    <line id="Line_15" data-name="Line 15" x2="1.094" transform="translate(1187.245 20.284)"/>
    <path id="Path_214" data-name="Path 214" d="M54.84,103.437a7.278,7.278,0,0,0-2.149-2.781,8.9,8.9,0,0,0-3.31-1.6,16.922,16.922,0,0,0-4.257-.5,12.979,12.979,0,0,0-5.338.914,8.006,8.006,0,0,0-2.909,2.066,5.6,5.6,0,0,0-1.2,2.291,8.549,8.549,0,0,0-.254,1.563,5.939,5.939,0,0,0,.974,3.669,6.242,6.242,0,0,0,2.669,1.973,28.175,28.175,0,0,0,3.7,1.192l4.644,1.192,3.75,1.033a12.793,12.793,0,0,1,3.35,1.47,7.658,7.658,0,0,1,2.4,2.384,6.925,6.925,0,0,1,.921,3.761,7.741,7.741,0,0,1-1.041,4.132,8.519,8.519,0,0,1-2.669,2.755,11.713,11.713,0,0,1-3.79,1.536,19.289,19.289,0,0,1-4.19.464q-6.5,0-9.809-2.821t-3.31-8.887h1.268q0,5.443,3.056,7.947t8.808,2.53a16.924,16.924,0,0,0,3.63-.411,11.14,11.14,0,0,0,3.376-1.324,7.849,7.849,0,0,0,2.5-2.344,6.1,6.1,0,0,0,.827-3.536,5.637,5.637,0,0,0-.974-3.444,7.7,7.7,0,0,0-2.5-2.106,14.911,14.911,0,0,0-3.563-1.324l-4.137-1.073q-2.335-.57-4.1-1.06a22.691,22.691,0,0,1-3.15-1.126,6.208,6.208,0,0,1-2.963-2.437,8.055,8.055,0,0,1-.948-4.2,7.513,7.513,0,0,1,.574-2.755,6.994,6.994,0,0,1,1.9-2.649,10.255,10.255,0,0,1,3.4-1.947,15.159,15.159,0,0,1,5.111-.755,13.688,13.688,0,0,1,8.581,2.437q3.136,2.569,3.136,7.867H55.587a10.09,10.09,0,0,0-.747-4.093Z" transform="translate(1040.522 -69.71)"/>
    <path id="Path_215" data-name="Path 215" d="M57.241,88.39v20.476h.093a11.329,11.329,0,0,1,1.415-3.444,10.944,10.944,0,0,1,5.9-4.609A13.6,13.6,0,0,1,69,100.151a13.76,13.76,0,0,1,4.644.755,10.2,10.2,0,0,1,3.71,2.225,9.993,9.993,0,0,1,2.4,3.629,13.51,13.51,0,0,1,.854,4.98v21.35H79.341V111.9a12.484,12.484,0,0,0-.814-4.794A8.712,8.712,0,0,0,73,101.966a12.888,12.888,0,0,0-4-.6,11.363,11.363,0,0,0-5.111,1.1,10.849,10.849,0,0,0-3.7,2.94,12.852,12.852,0,0,0-2.242,4.291,17.242,17.242,0,0,0-.761,5.139v18.224H56V88.39Z" transform="translate(1048.21 -72.57)"/>
    <path id="Path_216" data-name="Path 216" d="M109.92,130.212V98.028h1.268v7.947h.174a12.381,12.381,0,0,1,1.335-3.417,9.628,9.628,0,0,1,2.522-2.781,12.394,12.394,0,0,1,3.75-1.881,15.766,15.766,0,0,1,5.085-.622v1.258a12.241,12.241,0,0,0-5.779.914,10.935,10.935,0,0,0-4,3.006,12.563,12.563,0,0,0-2.335,4.41,17.65,17.65,0,0,0-.761,5.139v18.224Z" transform="translate(1066.248 -69.692)"/>
    <path id="Path_217" data-name="Path 217" d="M123.428,133.09H122.16V88.39h1.268v30.992l22.394-18.476h1.828l-14.893,12.278,16.014,19.867h-1.708l-15.24-18.993-8.394,6.887Z" transform="translate(1070.343 -72.57)"/>
    <path id="Path_218" data-name="Path 218" d="M117.34,161.972V132.358H118.5v7.311h.12a11.4,11.4,0,0,1,1.335-3.139,8.857,8.857,0,0,1,2.322-2.569,11.418,11.418,0,0,1,3.456-1.735,14.5,14.5,0,0,1,4.671-.583v1.152a11.274,11.274,0,0,0-5.338.834,10.055,10.055,0,0,0-3.683,2.768,11.559,11.559,0,0,0-2.149,4.066,16.242,16.242,0,0,0-.694,4.728v16.767Z" transform="translate(1068.73 -58.54)"/>
    <path id="Path_219" data-name="Path 219" d="M135.223,158.321a7.062,7.062,0,0,0,.374,2.649,3.325,3.325,0,0,0,.961,1.324,2.519,2.519,0,0,0,1.335.543,11.333,11.333,0,0,0,1.335.093h1.561a3.32,3.32,0,0,0,.988-.146v1.152l-1.014.119h-1.828a5.23,5.23,0,0,1-3.456-1.179q-1.428-1.179-1.428-4.344V135.553H128.59V134.4h5.458V125.13h1.161V134.4h6.673v1.152h-6.673Z" transform="translate(1072.494 -60.65)"/>
    <path id="Path_220" data-name="Path 220" d="M143.681,124.08v18.436h.12a10.21,10.21,0,0,1,1.335-3.112,9.878,9.878,0,0,1,5.338-4.146,12.271,12.271,0,0,1,3.924-.6,12.417,12.417,0,0,1,4.19.675,8.9,8.9,0,0,1,5.458,5.3,12.181,12.181,0,0,1,.774,4.49v19.257h-1.134V145.324a11.261,11.261,0,0,0-.734-4.318,7.815,7.815,0,0,0-4.978-4.636,11.625,11.625,0,0,0-3.563-.543,10.248,10.248,0,0,0-4.6.993,9.782,9.782,0,0,0-3.336,2.649,11.6,11.6,0,0,0-2.015,3.867,15.56,15.56,0,0,0-.681,4.636v16.436H142.64V124.08Z" transform="translate(1077.194 -60.99)"/>
    <path id="Path_221" data-name="Path 221" d="M164.534,141.583a14.531,14.531,0,0,1,2.536-4.834,12.778,12.778,0,0,1,4.124-3.364,12.778,12.778,0,0,1,11.33,0,12.791,12.791,0,0,1,4.124,3.364,14.53,14.53,0,0,1,2.536,4.834,19.723,19.723,0,0,1,0,11.47,14.531,14.531,0,0,1-2.536,4.834,12.077,12.077,0,0,1-9.822,4.583,12.288,12.288,0,0,1-5.632-1.245,12.446,12.446,0,0,1-4.124-3.338,14.531,14.531,0,0,1-2.536-4.834,19.723,19.723,0,0,1,0-11.47Zm1.054,11.046a13.472,13.472,0,0,0,2.309,4.49,11.4,11.4,0,0,0,3.79,3.112,11.214,11.214,0,0,0,5.2,1.152,11.093,11.093,0,0,0,5.151-1.152,11.418,11.418,0,0,0,3.79-3.112,13.471,13.471,0,0,0,2.309-4.49,18.254,18.254,0,0,0,.774-5.3,18.056,18.056,0,0,0-.774-5.3,13.471,13.471,0,0,0-2.309-4.49,11.737,11.737,0,0,0-3.79-3.139,10.877,10.877,0,0,0-5.151-1.192,11,11,0,0,0-5.2,1.192,11.724,11.724,0,0,0-3.79,3.139,13.472,13.472,0,0,0-2.309,4.49,18.059,18.059,0,0,0-.774,5.3,18.254,18.254,0,0,0,.774,5.285Z" transform="translate(1084.233 -58.402)"/>
    <path id="Path_222" data-name="Path 222" d="M189.028,132.785v7.139h.12a10.223,10.223,0,0,1,1.335-3.112,9.878,9.878,0,0,1,5.338-4.146,12.268,12.268,0,0,1,3.924-.6,12.416,12.416,0,0,1,4.19.675,9.194,9.194,0,0,1,3.3,2,9.025,9.025,0,0,1,2.135,3.324,12.181,12.181,0,0,1,.774,4.49v19.257h-1.134V142.732a11.261,11.261,0,0,0-.734-4.318,7.815,7.815,0,0,0-4.978-4.636,11.624,11.624,0,0,0-3.563-.543,10.248,10.248,0,0,0-4.6.993,9.783,9.783,0,0,0-3.336,2.649,11.584,11.584,0,0,0-2.015,3.867,15.559,15.559,0,0,0-.681,4.636v16.436H187.96V132.785Z" transform="translate(1092.355 -58.398)"/>
    <path id="Path_223" data-name="Path 223" d="M85.84,88.56" transform="translate(1058.192 -72.515)"/>
    <path id="Path_224" data-name="Path 224" d="M120.889,176.046l1.335-.079c0-.318-2.082-31.787-10.676-52.978A100,100,0,0,0,85.8,86.5l-.814.993a98.642,98.642,0,0,1,25.356,36.038C118.807,144.484,120.862,175.741,120.889,176.046Z" transform="translate(1057.908 -73.183)"/>
    <path id="Path_225" data-name="Path 225" d="M59.4,176.4c9.929-8.927,17.429-20.648,22.927-35.853,4.844-13.417,7.607-27.813,10.263-41.813.734-3.867,1.495-7.854,2.282-11.708L93.6,86.77c-.787,3.854-1.548,7.854-2.282,11.721-5.338,28.184-10.943,57.322-32.79,76.95Z" transform="translate(1049.056 -73.095)"/>
    <path id="Path_226" data-name="Path 226" d="M85.184,87.9l1.054-.371-.374-1.046-1.054.371Z" transform="translate(1057.848 -73.189)"/>
    <path id="Path_227" data-name="Path 227" d="M85.868,86.517S84.96,86,84.8,86.887" transform="translate(1057.844 -73.226)"/>
    <line id="Line_16" data-name="Line 16" x2="1.094" transform="translate(1187.605 270.179)"/>
    <path id="Path_228" data-name="Path 228" d="M55.143,292.084a7.278,7.278,0,0,0-2.149-2.781,8.915,8.915,0,0,0-3.31-1.6,16.92,16.92,0,0,0-4.257-.5,12.979,12.979,0,0,0-5.338.914,8.006,8.006,0,0,0-2.909,2.066,5.6,5.6,0,0,0-1.2,2.291,8.551,8.551,0,0,0-.254,1.563A5.939,5.939,0,0,0,36.7,297.7a6.242,6.242,0,0,0,2.669,1.973,28.17,28.17,0,0,0,3.7,1.192l4.644,1.192,3.75,1.033a12.792,12.792,0,0,1,3.27,1.47,7.658,7.658,0,0,1,2.4,2.384,6.925,6.925,0,0,1,.921,3.761,7.741,7.741,0,0,1-1.041,4.132,8.519,8.519,0,0,1-2.669,2.755,11.714,11.714,0,0,1-3.843,1.536,19.3,19.3,0,0,1-4.19.464q-6.5,0-9.809-2.821t-3.31-8.887h1.268q0,5.443,3.056,7.947t8.808,2.53a16.935,16.935,0,0,0,3.63-.411,11.139,11.139,0,0,0,3.376-1.324,7.848,7.848,0,0,0,2.5-2.344,6.1,6.1,0,0,0,.974-3.51,5.637,5.637,0,0,0-.974-3.444A7.7,7.7,0,0,0,53.3,305.17a14.926,14.926,0,0,0-3.563-1.324l-4.1-1.007q-2.335-.57-4.1-1.06a22.687,22.687,0,0,1-3.149-1.126,6.209,6.209,0,0,1-2.963-2.437,8.055,8.055,0,0,1-.948-4.2,7.513,7.513,0,0,1,.574-2.755,6.994,6.994,0,0,1,1.882-2.6,10.256,10.256,0,0,1,3.4-1.947,15.159,15.159,0,0,1,5.111-.755,13.674,13.674,0,0,1,8.581,2.437q3.149,2.437,3.149,7.827H55.917a10.091,10.091,0,0,0-.774-4.146Z" transform="translate(1040.579 -8.475)"/>
    <path id="Path_229" data-name="Path 229" d="M57.535,277.06v20.476h.12a11.329,11.329,0,0,1,1.415-3.444,10.944,10.944,0,0,1,5.9-4.609,13.6,13.6,0,0,1,4.311-.583,13.76,13.76,0,0,1,4.644.755,10.2,10.2,0,0,1,3.657,2.225,9.994,9.994,0,0,1,2.4,3.629,13.509,13.509,0,0,1,.854,4.98v21.35H79.568V300.648a12.483,12.483,0,0,0-.814-4.794,8.935,8.935,0,0,0-5.472-5.165,12.888,12.888,0,0,0-4-.6,11.362,11.362,0,0,0-5.111,1.1,10.848,10.848,0,0,0-3.7,2.94,12.852,12.852,0,0,0-2.242,4.291,17.242,17.242,0,0,0-.761,5.139v18.224H56.2V277.06Z" transform="translate(1048.277 -11.357)"/>
    <path id="Path_230" data-name="Path 230" d="M110.19,318.892V286.708h1.268v7.947h.12a12.38,12.38,0,0,1,1.335-3.417,9.628,9.628,0,0,1,2.522-2.781,12.393,12.393,0,0,1,3.75-1.881,15.765,15.765,0,0,1,5.085-.622v1.258a12.241,12.241,0,0,0-5.779.914,10.935,10.935,0,0,0-4,3.006,12.563,12.563,0,0,0-2.335,4.41,17.65,17.65,0,0,0-.761,5.139v18.224Z" transform="translate(1066.338 -8.476)"/>
    <path id="Path_231" data-name="Path 231" d="M123.7,321.773H122.43V277.06H123.7v30.992l22.394-18.476h1.828l-14.893,12.278,16.014,19.867h-1.708l-15.2-19.032-8.394,6.887Z" transform="translate(1070.433 -11.357)"/>
    <path id="Path_232" data-name="Path 232" d="M117.61,350.642V321.028h1.161v7.311h.12a11.4,11.4,0,0,1,1.335-3.139,8.858,8.858,0,0,1,2.322-2.569A11.4,11.4,0,0,1,126,320.9a14.5,14.5,0,0,1,4.671-.583v1.152a11.274,11.274,0,0,0-5.338.835,10.055,10.055,0,0,0-3.683,2.768,11.56,11.56,0,0,0-2.189,4.106,16.242,16.242,0,0,0-.694,4.728v16.767Z" transform="translate(1068.82 2.672)"/>
    <path id="Path_233" data-name="Path 233" d="M135.489,346.974a7.061,7.061,0,0,0,.374,2.649,3.312,3.312,0,0,0,.961,1.324,2.519,2.519,0,0,0,1.335.543,11.334,11.334,0,0,0,1.335.093h1.561a3.307,3.307,0,0,0,.988-.146v1.152l-1.014.119H139.2a5.23,5.23,0,0,1-3.456-1.179q-1.375-1.152-1.375-4.371V324.273H128.91v-1.152h5.458V313.85h1.161v9.271H142.2v1.152h-6.673Z" transform="translate(1072.601 0.579)"/>
    <path id="Path_234" data-name="Path 234" d="M143.951,312.76v18.476h.12a10.21,10.21,0,0,1,1.335-3.112,9.878,9.878,0,0,1,5.338-4.145,12.267,12.267,0,0,1,3.924-.6,12.415,12.415,0,0,1,4.19.675,9.208,9.208,0,0,1,3.3,2,9.027,9.027,0,0,1,2.162,3.271,12.181,12.181,0,0,1,.774,4.49v19.257h-1.134V334a11.26,11.26,0,0,0-.734-4.318,7.816,7.816,0,0,0-4.978-4.636,11.625,11.625,0,0,0-3.563-.543,10.247,10.247,0,0,0-4.6.993,9.783,9.783,0,0,0-3.336,2.649,11.6,11.6,0,0,0-2.015,3.867,15.558,15.558,0,0,0-.681,4.636v16.436H142.91V312.76Z" transform="translate(1077.284 0.226)"/>
    <path id="Path_235" data-name="Path 235" d="M164.8,330.253a14.531,14.531,0,0,1,2.536-4.834,12.778,12.778,0,0,1,4.124-3.364,12.778,12.778,0,0,1,11.33,0,12.8,12.8,0,0,1,4.124,3.364,14.53,14.53,0,0,1,2.536,4.834,19.723,19.723,0,0,1,0,11.47,14.53,14.53,0,0,1-2.536,4.834,12.078,12.078,0,0,1-9.822,4.583,12.288,12.288,0,0,1-5.632-1.245,12.446,12.446,0,0,1-4.124-3.338,14.531,14.531,0,0,1-2.536-4.834,19.723,19.723,0,0,1,0-11.47Zm1.054,11.046a13.473,13.473,0,0,0,2.309,4.49,11.4,11.4,0,0,0,3.79,3.112,11.213,11.213,0,0,0,5.2,1.152,11.093,11.093,0,0,0,5.151-1.152,11.418,11.418,0,0,0,3.79-3.113,13.472,13.472,0,0,0,2.309-4.49,18.255,18.255,0,0,0,.774-5.3,18.056,18.056,0,0,0-.774-5.3,13.471,13.471,0,0,0-2.309-4.49,11.736,11.736,0,0,0-3.79-3.139,10.876,10.876,0,0,0-5.151-1.192,11,11,0,0,0-5.2,1.192,11.723,11.723,0,0,0-3.79,3.139,13.472,13.472,0,0,0-2.309,4.49,18.057,18.057,0,0,0-.774,5.3,18.254,18.254,0,0,0,.774,5.3Z" transform="translate(1084.323 2.811)"/>
    <path id="Path_236" data-name="Path 236" d="M189.258,321.456v7.178h.12a10.223,10.223,0,0,1,1.335-3.112,9.878,9.878,0,0,1,5.338-4.146,12.268,12.268,0,0,1,3.924-.6,12.415,12.415,0,0,1,4.19.675,9.208,9.208,0,0,1,3.3,2,9.027,9.027,0,0,1,2.162,3.271,12.181,12.181,0,0,1,.774,4.49v19.257h-1.121V331.4a11.26,11.26,0,0,0-.734-4.318,7.816,7.816,0,0,0-4.978-4.636,11.624,11.624,0,0,0-3.563-.543,10.248,10.248,0,0,0-4.6.993,9.783,9.783,0,0,0-3.336,2.649,11.6,11.6,0,0,0-2.015,3.867,15.558,15.558,0,0,0-.681,4.636v16.436H188.23V321.456Z" transform="translate(1092.445 2.827)"/>
    <path id="Path_237" data-name="Path 237" d="M86.11,277.24" transform="translate(1058.283 -11.299)"/>
    <path id="Path_238" data-name="Path 238" d="M121.146,364.739l1.335-.079c0-.318-2.082-31.787-10.676-52.978a99.979,99.979,0,0,0-25.69-36.541l-.814.993a98.642,98.642,0,0,1,25.356,36.038C119.077,333.23,121.119,364.421,121.146,364.739Z" transform="translate(1058.012 -11.98)"/>
    <path id="Path_239" data-name="Path 239" d="M59.667,365.075c9.929-8.927,17.429-20.648,22.927-35.853,4.844-13.417,7.607-27.813,10.263-41.813.734-3.867,1.495-7.854,2.282-11.708l-1.268-.252c-.787,3.854-1.548,7.854-2.282,11.721-5.338,28.184-10.943,57.322-32.79,76.95Z" transform="translate(1049.146 -11.879)"/>
    <path id="Path_240" data-name="Path 240" d="M85.454,276.58l1.054-.371-.374-1.06-1.054.371Z" transform="translate(1057.938 -11.977)"/>
    <path id="Path_241" data-name="Path 241" d="M86.138,275.187s-.907-.517-1.068.371" transform="translate(1057.935 -12.013)"/>
    <line id="Line_17" data-name="Line 17" x2="1.081" transform="translate(1439.205 270.179)"/>
    <path id="Path_242" data-name="Path 242" d="M243.63,292.1a7.278,7.278,0,0,0-2.149-2.781,8.915,8.915,0,0,0-3.31-1.6,16.925,16.925,0,0,0-4.257-.5,12.98,12.98,0,0,0-5.338.914,8.006,8.006,0,0,0-2.909,2.066,5.6,5.6,0,0,0-1.2,2.291,8.535,8.535,0,0,0-.254,1.563,5.939,5.939,0,0,0,.974,3.669,6.242,6.242,0,0,0,2.669,1.973,28.17,28.17,0,0,0,3.7,1.192l4.644,1.192,3.75,1.033a12.793,12.793,0,0,1,3.35,1.47,7.658,7.658,0,0,1,2.4,2.384,6.925,6.925,0,0,1,.921,3.761,7.741,7.741,0,0,1-1.041,4.132,8.518,8.518,0,0,1-2.669,2.755,11.716,11.716,0,0,1-3.79,1.536,19.3,19.3,0,0,1-4.19.464q-6.5,0-9.809-2.821t-3.31-8.887h1.268q0,5.443,3.056,7.947t8.808,2.53a16.937,16.937,0,0,0,3.63-.411,11.14,11.14,0,0,0,3.376-1.324,7.849,7.849,0,0,0,2.5-2.344,6.1,6.1,0,0,0,.974-3.51,5.637,5.637,0,0,0-.974-3.444,7.7,7.7,0,0,0-2.522-2.159,14.925,14.925,0,0,0-3.563-1.324l-4.1-1.007q-2.335-.57-4.1-1.06a22.7,22.7,0,0,1-3.149-1.126,6.208,6.208,0,0,1-2.963-2.437,8.055,8.055,0,0,1-.947-4.2,7.5,7.5,0,0,1,.574-2.755,6.994,6.994,0,0,1,1.9-2.649,10.255,10.255,0,0,1,3.4-1.947,15.159,15.159,0,0,1,5.111-.755,13.688,13.688,0,0,1,8.581,2.437q3.15,2.437,3.15,7.827H244.55a10.094,10.094,0,0,0-.921-4.092Z" transform="translate(1103.679 -8.488)"/>
    <path id="Path_243" data-name="Path 243" d="M246.068,277.06v20.476h.12a11.328,11.328,0,0,1,1.415-3.444,10.944,10.944,0,0,1,5.9-4.609,13.6,13.6,0,0,1,4.351-.662,13.761,13.761,0,0,1,4.644.755,10.2,10.2,0,0,1,3.657,2.225,9.993,9.993,0,0,1,2.4,3.629,13.5,13.5,0,0,1,.854,4.98v21.35h-1.268V300.569a12.483,12.483,0,0,0-.814-4.794,8.713,8.713,0,0,0-5.525-5.139,12.888,12.888,0,0,0-4-.6,11.362,11.362,0,0,0-5.111,1.1,10.849,10.849,0,0,0-3.7,2.94,12.853,12.853,0,0,0-2.242,4.291,17.243,17.243,0,0,0-.761,5.139v18.224H244.72V277.06Z" transform="translate(1111.343 -11.357)"/>
    <path id="Path_244" data-name="Path 244" d="M298.71,318.892V286.708h1.268v7.947h.12a12.381,12.381,0,0,1,1.335-3.417,9.628,9.628,0,0,1,2.522-2.781,12.394,12.394,0,0,1,3.75-1.881,15.765,15.765,0,0,1,5.085-.622v1.258a12.241,12.241,0,0,0-5.779.914,10.935,10.935,0,0,0-4,3.006,12.563,12.563,0,0,0-2.336,4.41,17.648,17.648,0,0,0-.761,5.139v18.224Z" transform="translate(1129.405 -8.476)"/>
    <path id="Path_245" data-name="Path 245" d="M312.2,321.773H311V277.06h1.268v30.992l22.394-18.476h1.828L321.6,301.854l16.014,19.867H335.9l-15.2-19.032-8.394,6.887Z" transform="translate(1133.516 -11.357)"/>
    <path id="Path_246" data-name="Path 246" d="M306.13,350.642V321.028h1.161v7.311h.12a11.41,11.41,0,0,1,1.335-3.139,8.857,8.857,0,0,1,2.322-2.569,11.4,11.4,0,0,1,3.456-1.735,14.5,14.5,0,0,1,4.671-.583v1.152a11.274,11.274,0,0,0-5.338.835,10.055,10.055,0,0,0-3.683,2.768,11.561,11.561,0,0,0-2.149,4.066,16.248,16.248,0,0,0-.694,4.728v16.767Z" transform="translate(1131.887 2.672)"/>
    <path id="Path_247" data-name="Path 247" d="M324.019,346.974a7.05,7.05,0,0,0,.374,2.649,3.313,3.313,0,0,0,.961,1.324,2.52,2.52,0,0,0,1.335.543,11.334,11.334,0,0,0,1.335.093h1.561a3.306,3.306,0,0,0,.988-.146v1.152l-1.014.119h-1.828a5.23,5.23,0,0,1-3.456-1.179q-1.428-1.179-1.428-4.344V324.273H317.4v-1.152h5.458V313.85h1.161v9.271h6.673v1.152h-6.673Z" transform="translate(1135.657 0.579)"/>
    <path id="Path_248" data-name="Path 248" d="M332.474,312.76v18.476h.12a10.208,10.208,0,0,1,1.335-3.112,9.878,9.878,0,0,1,5.338-4.145,12.267,12.267,0,0,1,3.924-.6,12.415,12.415,0,0,1,4.19.675,9.208,9.208,0,0,1,3.3,2,9.026,9.026,0,0,1,2.162,3.271,12.181,12.181,0,0,1,.774,4.49v19.257h-1.134V334a11.26,11.26,0,0,0-.734-4.318,7.816,7.816,0,0,0-4.978-4.636,11.625,11.625,0,0,0-3.563-.543,10.248,10.248,0,0,0-4.617.993,9.783,9.783,0,0,0-3.336,2.649,11.6,11.6,0,0,0-2.015,3.867,15.559,15.559,0,0,0-.681,4.636v16.436H331.42V312.76Z" transform="translate(1140.347 0.226)"/>
    <path id="Path_249" data-name="Path 249" d="M353.324,330.253a14.53,14.53,0,0,1,2.536-4.834,12.777,12.777,0,0,1,4.124-3.364,12.778,12.778,0,0,1,11.33,0,12.8,12.8,0,0,1,4.124,3.364,14.53,14.53,0,0,1,2.536,4.834,19.723,19.723,0,0,1,0,11.47,14.529,14.529,0,0,1-2.536,4.834,12.077,12.077,0,0,1-9.822,4.583,12.289,12.289,0,0,1-5.632-1.245,12.432,12.432,0,0,1-4.124-3.337,14.529,14.529,0,0,1-2.536-4.834,19.723,19.723,0,0,1,0-11.47Zm1.054,11.046a13.474,13.474,0,0,0,2.309,4.49,11.406,11.406,0,0,0,3.79,3.112,11.213,11.213,0,0,0,5.2,1.152,11.093,11.093,0,0,0,5.151-1.152,11.418,11.418,0,0,0,3.79-3.112,13.473,13.473,0,0,0,2.309-4.49,18.255,18.255,0,0,0,.774-5.3,18.058,18.058,0,0,0-.774-5.3,13.471,13.471,0,0,0-2.309-4.49,11.737,11.737,0,0,0-3.79-3.139,10.877,10.877,0,0,0-5.151-1.192,11,11,0,0,0-5.2,1.192,11.723,11.723,0,0,0-3.79,3.139,13.472,13.472,0,0,0-2.309,4.49,18.059,18.059,0,0,0-.774,5.3A18.255,18.255,0,0,0,354.378,341.3Z" transform="translate(1147.39 2.811)"/>
    <path id="Path_250" data-name="Path 250" d="M377.831,321.456v7.178h.12a10.209,10.209,0,0,1,1.335-3.112,9.878,9.878,0,0,1,5.338-4.145,12.266,12.266,0,0,1,3.924-.6,12.416,12.416,0,0,1,4.19.675,9.208,9.208,0,0,1,3.3,2,9.027,9.027,0,0,1,2.162,3.271,12.181,12.181,0,0,1,.774,4.49v19.257h-1.134V331.4a11.259,11.259,0,0,0-.734-4.318,7.953,7.953,0,0,0-5.058-4.688,11.622,11.622,0,0,0-3.563-.543,10.248,10.248,0,0,0-4.6.993,9.783,9.783,0,0,0-3.336,2.649,11.6,11.6,0,0,0-2.015,3.867,15.556,15.556,0,0,0-.681,4.636v16.436H376.71V321.456Z" transform="translate(1155.499 2.827)"/>
    <path id="Path_251" data-name="Path 251" d="M274.63,277.24" transform="translate(1121.349 -11.299)"/>
    <path id="Path_252" data-name="Path 252" d="M309.666,364.739l1.335-.079c0-.318-2.082-31.787-10.676-52.978a99.979,99.979,0,0,0-25.69-36.541l-.814.993a98.643,98.643,0,0,1,25.356,36.038C307.6,333.23,309.652,364.421,309.666,364.739Z" transform="translate(1121.078 -11.98)"/>
    <path id="Path_253" data-name="Path 253" d="M248.217,365.075c9.929-8.927,17.429-20.648,22.927-35.853,4.844-13.417,7.607-27.813,10.263-41.813.734-3.867,1.495-7.854,2.282-11.708l-1.268-.252c-.787,3.854-1.548,7.854-2.282,11.721-5.338,28.184-10.943,57.322-32.79,76.95Z" transform="translate(1112.223 -11.879)"/>
    <path id="Path_254" data-name="Path 254" d="M273.974,276.58l1.068-.371-.374-1.06-1.068.371Z" transform="translate(1121.005 -11.977)"/>
    <path id="Path_255" data-name="Path 255" d="M274.668,275.187s-.907-.517-1.068.371" transform="translate(1121.005 -12.013)"/>
    <line id="Line_18" data-name="Line 18" x2="1.081" transform="translate(1439.205 20.562)"/>
    <path id="Path_256" data-name="Path 256" d="M243.663,103.63a7.278,7.278,0,0,0-2.149-2.781,8.916,8.916,0,0,0-3.31-1.6,16.925,16.925,0,0,0-4.257-.5,12.979,12.979,0,0,0-5.338.914,8.006,8.006,0,0,0-2.909,2.066,5.6,5.6,0,0,0-1.2,2.291,8.535,8.535,0,0,0-.254,1.563,5.939,5.939,0,0,0,.974,3.669,6.242,6.242,0,0,0,2.669,1.973,28.176,28.176,0,0,0,3.7,1.192l4.644,1.192,3.75,1.033a12.794,12.794,0,0,1,3.35,1.47,7.658,7.658,0,0,1,2.4,2.384,6.924,6.924,0,0,1,.921,3.761,7.741,7.741,0,0,1-1.041,4.132,8.518,8.518,0,0,1-2.669,2.755,11.714,11.714,0,0,1-3.79,1.536,19.3,19.3,0,0,1-4.19.464q-6.5,0-9.809-2.821t-3.443-8.953h1.268q0,5.443,3.056,7.947t8.808,2.53a16.938,16.938,0,0,0,3.63-.411,11.14,11.14,0,0,0,3.376-1.324,7.848,7.848,0,0,0,2.5-2.344,6.1,6.1,0,0,0,.974-3.51,5.637,5.637,0,0,0-.974-3.444,7.7,7.7,0,0,0-2.522-2.159,14.912,14.912,0,0,0-3.563-1.324l-4.1-1.007q-2.335-.57-4.1-1.06a22.706,22.706,0,0,1-3.15-1.126,6.208,6.208,0,0,1-2.963-2.437,8.055,8.055,0,0,1-.948-4.2,7.5,7.5,0,0,1,.574-2.755,6.994,6.994,0,0,1,1.9-2.649,10.257,10.257,0,0,1,3.3-1.854,15.159,15.159,0,0,1,5.111-.755,13.688,13.688,0,0,1,8.581,2.437q3.15,2.437,3.15,7.827h-1.268a10.089,10.089,0,0,0-.681-4.119Z" transform="translate(1103.646 -69.626)"/>
    <path id="Path_257" data-name="Path 257" d="M246.061,88.59v20.476h.12a11.331,11.331,0,0,1,1.415-3.444,10.945,10.945,0,0,1,5.9-4.569,13.6,13.6,0,0,1,4.351-.662,13.76,13.76,0,0,1,4.644.755,10.2,10.2,0,0,1,3.657,2.225,9.994,9.994,0,0,1,2.4,3.629,13.5,13.5,0,0,1,.854,4.98v21.35h-1.268V112.139a12.484,12.484,0,0,0-.814-4.794,8.614,8.614,0,0,0-5.5-5.126,12.889,12.889,0,0,0-4-.6,11.362,11.362,0,0,0-5.111,1.1,10.849,10.849,0,0,0-3.7,2.94,12.853,12.853,0,0,0-2.242,4.291,17.241,17.241,0,0,0-.761,5.139v18.224H244.74V88.59Z" transform="translate(1111.35 -72.505)"/>
    <path id="Path_258" data-name="Path 258" d="M298.71,130.406V98.222h1.268v7.947h.12a12.381,12.381,0,0,1,1.335-3.417,9.628,9.628,0,0,1,2.522-2.781,12.4,12.4,0,0,1,3.817-1.814,15.766,15.766,0,0,1,5.085-.622v1.258a12.241,12.241,0,0,0-5.779.914,10.936,10.936,0,0,0-4,3.006,12.564,12.564,0,0,0-2.335,4.41,17.65,17.65,0,0,0-.761,5.139v18.224Z" transform="translate(1129.405 -69.608)"/>
    <path id="Path_259" data-name="Path 259" d="M312.2,133.3H311V88.59h1.268V119.6l22.394-18.476h1.828L321.6,113.4l16.014,19.867H335.9L320.6,114.3l-8.394,6.887Z" transform="translate(1133.516 -72.505)"/>
    <path id="Path_260" data-name="Path 260" d="M306.13,162.169v-29.6h1.161v7.311h.12a11.41,11.41,0,0,1,1.335-3.139,8.856,8.856,0,0,1,2.322-2.569,11.4,11.4,0,0,1,3.456-1.735,14.5,14.5,0,0,1,4.671-.583V133a11.274,11.274,0,0,0-5.338.834,10.055,10.055,0,0,0-3.683,2.768,11.56,11.56,0,0,0-2.149,4.066,16.242,16.242,0,0,0-.694,4.728v16.767Z" transform="translate(1131.887 -58.472)"/>
    <path id="Path_261" data-name="Path 261" d="M324.019,158.5a7.061,7.061,0,0,0,.374,2.649,3.312,3.312,0,0,0,.961,1.324,2.519,2.519,0,0,0,1.335.543,11.337,11.337,0,0,0,1.335.093h1.561a3.3,3.3,0,0,0,.988-.146v1.152l-1.014.119h-1.828a5.23,5.23,0,0,1-3.456-1.179q-1.428-1.179-1.428-4.344v-22.9H317.4v-1.152h5.458V125.39h1.161v9.271h6.673v1.152h-6.673Z" transform="translate(1135.657 -60.565)"/>
    <path id="Path_262" data-name="Path 262" d="M332.474,124.29v18.476h.12a10.21,10.21,0,0,1,1.335-3.112,9.878,9.878,0,0,1,5.338-4.146,12.27,12.27,0,0,1,3.924-.6,12.416,12.416,0,0,1,4.19.675,9.194,9.194,0,0,1,3.3,2,9.027,9.027,0,0,1,2.162,3.271,12.181,12.181,0,0,1,.774,4.49v19.257h-1.134V145.534a11.26,11.26,0,0,0-.734-4.318,7.815,7.815,0,0,0-4.978-4.636,11.625,11.625,0,0,0-3.563-.543,10.248,10.248,0,0,0-4.617.993,9.783,9.783,0,0,0-3.336,2.649,11.6,11.6,0,0,0-2.015,3.867,15.559,15.559,0,0,0-.681,4.636v16.436H331.42V124.29Z" transform="translate(1140.347 -60.922)"/>
    <path id="Path_263" data-name="Path 263" d="M353.324,141.783a14.53,14.53,0,0,1,2.536-4.834,12.778,12.778,0,0,1,4.124-3.364,12.778,12.778,0,0,1,11.33,0,12.8,12.8,0,0,1,4.124,3.364,14.53,14.53,0,0,1,2.536,4.834,19.723,19.723,0,0,1,0,11.47,14.529,14.529,0,0,1-2.536,4.834,12.077,12.077,0,0,1-9.822,4.583,12.289,12.289,0,0,1-5.632-1.245,12.433,12.433,0,0,1-4.124-3.338,14.529,14.529,0,0,1-2.536-4.834,19.723,19.723,0,0,1,0-11.47Zm1.054,11.046a13.472,13.472,0,0,0,2.309,4.49,11.4,11.4,0,0,0,3.79,3.112,11.214,11.214,0,0,0,5.2,1.152,11.093,11.093,0,0,0,5.151-1.152,11.417,11.417,0,0,0,3.79-3.112,13.472,13.472,0,0,0,2.309-4.49,18.255,18.255,0,0,0,.774-5.3,18.059,18.059,0,0,0-.774-5.3,13.472,13.472,0,0,0-2.309-4.49,11.737,11.737,0,0,0-3.79-3.139,10.877,10.877,0,0,0-5.151-1.192,11,11,0,0,0-5.2,1.192,11.723,11.723,0,0,0-3.79,3.139,13.459,13.459,0,0,0-2.309,4.49,18.059,18.059,0,0,0-.774,5.3A18.255,18.255,0,0,0,354.378,152.829Z" transform="translate(1147.39 -58.337)"/>
    <path id="Path_264" data-name="Path 264" d="M377.811,132.986v7.178h.12a10.208,10.208,0,0,1,1.335-3.112,9.878,9.878,0,0,1,5.338-4.146,12.27,12.27,0,0,1,3.924-.6,12.416,12.416,0,0,1,4.19.675,8.9,8.9,0,0,1,5.458,5.3,12.181,12.181,0,0,1,.774,4.49v19.257h-1.134v-19.1a11.259,11.259,0,0,0-.734-4.318,7.815,7.815,0,0,0-4.978-4.636,11.626,11.626,0,0,0-3.563-.543,10.248,10.248,0,0,0-4.6.993,9.783,9.783,0,0,0-3.336,2.649,11.6,11.6,0,0,0-2.015,3.867,15.556,15.556,0,0,0-.681,4.636v16.436H376.77V132.986Z" transform="translate(1155.519 -58.32)"/>
    <path id="Path_265" data-name="Path 265" d="M274.63,88.77" transform="translate(1121.349 -72.447)"/>
    <path id="Path_266" data-name="Path 266" d="M309.666,176.269l1.335-.079c0-.318-2.082-31.787-10.676-52.978a99.992,99.992,0,0,0-25.69-36.541l-.814.993A98.643,98.643,0,0,1,299.176,123.7C307.6,144.707,309.652,175.964,309.666,176.269Z" transform="translate(1121.078 -73.128)"/>
    <path id="Path_267" data-name="Path 267" d="M248.217,176.605c9.929-8.927,17.429-20.648,22.927-35.853,4.844-13.417,7.607-27.813,10.263-41.813.734-3.867,1.495-7.854,2.282-11.708l-1.268-.252c-.787,3.854-1.548,7.854-2.282,11.721-5.338,28.184-10.943,57.322-32.79,76.95Z" transform="translate(1112.223 -73.027)"/>
    <path id="Path_268" data-name="Path 268" d="M273.974,88.107l1.068-.371-.374-1.046-1.068.371Z" transform="translate(1121.005 -73.121)"/>
    <path id="Path_269" data-name="Path 269" d="M274.668,86.727s-.907-.517-1.068.371" transform="translate(1121.005 -73.158)"/>
    <rect id="Rectangle_31" data-name="Rectangle 31" class="cls-4" width="251.587" height="249.684" transform="translate(1067.47 -67.58)"/>
    <rect id="Rectangle_32" data-name="Rectangle 32" class="cls-5" width="251.587" height="249.684" transform="translate(1067.83 182.316)"/>
    <rect id="Rectangle_33" data-name="Rectangle 33" class="cls-6" width="251.587" height="249.684" transform="translate(1315.413 -67.302)"/>
    <path id="Path_270" data-name="Path 270" class="cls-7" d="M0,0H251.587V249.684H0Z" transform="translate(1315.413 182.316)"/>
    <path id="Path_271" data-name="Path 271" d="M54.84,103.437a7.278,7.278,0,0,0-2.149-2.781,8.9,8.9,0,0,0-3.31-1.6,16.922,16.922,0,0,0-4.257-.5,12.979,12.979,0,0,0-5.338.914,8.006,8.006,0,0,0-2.909,2.066,5.6,5.6,0,0,0-1.2,2.291,8.549,8.549,0,0,0-.254,1.563,5.939,5.939,0,0,0,.974,3.669,6.242,6.242,0,0,0,2.669,1.973,28.175,28.175,0,0,0,3.7,1.192l4.644,1.192,3.75,1.033a12.793,12.793,0,0,1,3.35,1.47,7.658,7.658,0,0,1,2.4,2.384,6.925,6.925,0,0,1,.921,3.761,7.741,7.741,0,0,1-1.041,4.132,8.519,8.519,0,0,1-2.669,2.755,11.713,11.713,0,0,1-3.79,1.536,19.289,19.289,0,0,1-4.19.464q-6.5,0-9.809-2.821t-3.31-8.887h1.268q0,5.443,3.056,7.947t8.808,2.53a16.924,16.924,0,0,0,3.63-.411,11.14,11.14,0,0,0,3.376-1.324,7.849,7.849,0,0,0,2.5-2.344,6.1,6.1,0,0,0,.827-3.536,5.637,5.637,0,0,0-.974-3.444,7.7,7.7,0,0,0-2.5-2.106,14.911,14.911,0,0,0-3.563-1.324l-4.137-1.073q-2.335-.57-4.1-1.06a22.691,22.691,0,0,1-3.15-1.126,6.208,6.208,0,0,1-2.963-2.437,8.055,8.055,0,0,1-.948-4.2,7.513,7.513,0,0,1,.574-2.755,6.994,6.994,0,0,1,1.9-2.649,10.255,10.255,0,0,1,3.4-1.947,15.159,15.159,0,0,1,5.111-.755,13.688,13.688,0,0,1,8.581,2.437q3.136,2.569,3.136,7.867H55.587a10.09,10.09,0,0,0-.747-4.093Z" transform="translate(1040.522 -69.71)"/>
    <path id="Path_272" data-name="Path 272" d="M57.241,88.39v20.476h.093a11.329,11.329,0,0,1,1.415-3.444,10.944,10.944,0,0,1,5.9-4.609A13.6,13.6,0,0,1,69,100.151a13.76,13.76,0,0,1,4.644.755,10.2,10.2,0,0,1,3.71,2.225,9.993,9.993,0,0,1,2.4,3.629,13.51,13.51,0,0,1,.854,4.98v21.35H79.341V111.9a12.484,12.484,0,0,0-.814-4.794A8.712,8.712,0,0,0,73,101.966a12.888,12.888,0,0,0-4-.6,11.363,11.363,0,0,0-5.111,1.1,10.849,10.849,0,0,0-3.7,2.94,12.852,12.852,0,0,0-2.242,4.291,17.242,17.242,0,0,0-.761,5.139v18.224H56V88.39Z" transform="translate(1048.21 -72.57)"/>
    <path id="Path_273" data-name="Path 273" d="M109.92,130.212V98.028h1.268v7.947h.174a12.381,12.381,0,0,1,1.335-3.417,9.628,9.628,0,0,1,2.522-2.781,12.394,12.394,0,0,1,3.75-1.881,15.766,15.766,0,0,1,5.085-.622v1.258a12.241,12.241,0,0,0-5.779.914,10.935,10.935,0,0,0-4,3.006,12.563,12.563,0,0,0-2.335,4.41,17.65,17.65,0,0,0-.761,5.139v18.224Z" transform="translate(1066.248 -69.692)"/>
    <path id="Path_274" data-name="Path 274" d="M123.428,133.09H122.16V88.39h1.268v30.992l22.394-18.476h1.828l-14.893,12.278,16.014,19.867h-1.708l-15.24-18.993-8.394,6.887Z" transform="translate(1070.343 -72.57)"/>
    <path id="Path_275" data-name="Path 275" d="M117.34,161.972V132.358H118.5v7.311h.12a11.4,11.4,0,0,1,1.335-3.139,8.857,8.857,0,0,1,2.322-2.569,11.418,11.418,0,0,1,3.456-1.735,14.5,14.5,0,0,1,4.671-.583v1.152a11.274,11.274,0,0,0-5.338.834,10.055,10.055,0,0,0-3.683,2.768,11.559,11.559,0,0,0-2.149,4.066,16.242,16.242,0,0,0-.694,4.728v16.767Z" transform="translate(1068.73 -58.54)"/>
    <path id="Path_276" data-name="Path 276" d="M135.223,158.321a7.062,7.062,0,0,0,.374,2.649,3.325,3.325,0,0,0,.961,1.324,2.519,2.519,0,0,0,1.335.543,11.333,11.333,0,0,0,1.335.093h1.561a3.32,3.32,0,0,0,.988-.146v1.152l-1.014.119h-1.828a5.23,5.23,0,0,1-3.456-1.179q-1.428-1.179-1.428-4.344V135.553H128.59V134.4h5.458V125.13h1.161V134.4h6.673v1.152h-6.673Z" transform="translate(1072.494 -60.65)"/>
    <path id="Path_277" data-name="Path 277" d="M143.681,124.08v18.436h.12a10.21,10.21,0,0,1,1.335-3.112,9.878,9.878,0,0,1,5.338-4.146,12.271,12.271,0,0,1,3.924-.6,12.417,12.417,0,0,1,4.19.675,8.9,8.9,0,0,1,5.458,5.3,12.181,12.181,0,0,1,.774,4.49v19.257h-1.134V145.324a11.261,11.261,0,0,0-.734-4.318,7.815,7.815,0,0,0-4.978-4.636,11.625,11.625,0,0,0-3.563-.543,10.248,10.248,0,0,0-4.6.993,9.782,9.782,0,0,0-3.336,2.649,11.6,11.6,0,0,0-2.015,3.867,15.56,15.56,0,0,0-.681,4.636v16.436H142.64V124.08Z" transform="translate(1077.194 -60.99)"/>
    <path id="Path_278" data-name="Path 278" d="M164.534,141.583a14.531,14.531,0,0,1,2.536-4.834,12.778,12.778,0,0,1,4.124-3.364,12.778,12.778,0,0,1,11.33,0,12.791,12.791,0,0,1,4.124,3.364,14.53,14.53,0,0,1,2.536,4.834,19.723,19.723,0,0,1,0,11.47,14.531,14.531,0,0,1-2.536,4.834,12.077,12.077,0,0,1-9.822,4.583,12.288,12.288,0,0,1-5.632-1.245,12.446,12.446,0,0,1-4.124-3.338,14.531,14.531,0,0,1-2.536-4.834,19.723,19.723,0,0,1,0-11.47Zm1.054,11.046a13.472,13.472,0,0,0,2.309,4.49,11.4,11.4,0,0,0,3.79,3.112,11.214,11.214,0,0,0,5.2,1.152,11.093,11.093,0,0,0,5.151-1.152,11.418,11.418,0,0,0,3.79-3.112,13.471,13.471,0,0,0,2.309-4.49,18.254,18.254,0,0,0,.774-5.3,18.056,18.056,0,0,0-.774-5.3,13.471,13.471,0,0,0-2.309-4.49,11.737,11.737,0,0,0-3.79-3.139,10.877,10.877,0,0,0-5.151-1.192,11,11,0,0,0-5.2,1.192,11.724,11.724,0,0,0-3.79,3.139,13.472,13.472,0,0,0-2.309,4.49,18.059,18.059,0,0,0-.774,5.3,18.254,18.254,0,0,0,.774,5.285Z" transform="translate(1084.233 -58.402)"/>
    <path id="Path_279" data-name="Path 279" d="M189.028,132.785v7.139h.12a10.223,10.223,0,0,1,1.335-3.112,9.878,9.878,0,0,1,5.338-4.146,12.268,12.268,0,0,1,3.924-.6,12.416,12.416,0,0,1,4.19.675,9.194,9.194,0,0,1,3.3,2,9.025,9.025,0,0,1,2.135,3.324,12.181,12.181,0,0,1,.774,4.49v19.257h-1.134V142.732a11.261,11.261,0,0,0-.734-4.318,7.815,7.815,0,0,0-4.978-4.636,11.624,11.624,0,0,0-3.563-.543,10.248,10.248,0,0,0-4.6.993,9.783,9.783,0,0,0-3.336,2.649,11.584,11.584,0,0,0-2.015,3.867,15.559,15.559,0,0,0-.681,4.636v16.436H187.96V132.785Z" transform="translate(1092.355 -58.398)"/>
    <path id="Path_280" data-name="Path 280" d="M85.84,88.56" transform="translate(1058.192 -72.515)"/>
    <path id="Path_281" data-name="Path 281" d="M120.889,176.046l1.335-.079c0-.318-2.082-31.787-10.676-52.978A100,100,0,0,0,85.8,86.5l-.814.993a98.642,98.642,0,0,1,25.356,36.038C118.807,144.484,120.862,175.741,120.889,176.046Z" transform="translate(1057.908 -73.183)"/>
    <path id="Path_282" data-name="Path 282" d="M59.4,176.4c9.929-8.927,17.429-20.648,22.927-35.853,4.844-13.417,7.607-27.813,10.263-41.813.734-3.867,1.495-7.854,2.282-11.708L93.6,86.77c-.787,3.854-1.548,7.854-2.282,11.721-5.338,28.184-10.943,57.322-32.79,76.95Z" transform="translate(1049.056 -73.095)"/>
    <path id="Path_327" data-name="Path 327" d="M0,0,1.12,0l0,1.113L0,1.113Z" transform="translate(1142.646 13.655) rotate(-19.39)"/>
    <path id="Path_283" data-name="Path 283" d="M85.868,86.517S84.96,86,84.8,86.887" transform="translate(1057.844 -73.226)"/>
    <line id="Line_19" data-name="Line 19" class="cls-8" x2="1.094" transform="translate(1187.605 270.179)"/>
    <path id="Path_284" data-name="Path 284" class="cls-8" d="M55.143,292.084a7.278,7.278,0,0,0-2.149-2.781,8.915,8.915,0,0,0-3.31-1.6,16.92,16.92,0,0,0-4.257-.5,12.979,12.979,0,0,0-5.338.914,8.006,8.006,0,0,0-2.909,2.066,5.6,5.6,0,0,0-1.2,2.291,8.551,8.551,0,0,0-.254,1.563A5.939,5.939,0,0,0,36.7,297.7a6.242,6.242,0,0,0,2.669,1.973,28.17,28.17,0,0,0,3.7,1.192l4.644,1.192,3.75,1.033a12.792,12.792,0,0,1,3.27,1.47,7.658,7.658,0,0,1,2.4,2.384,6.925,6.925,0,0,1,.921,3.761,7.741,7.741,0,0,1-1.041,4.132,8.519,8.519,0,0,1-2.669,2.755,11.714,11.714,0,0,1-3.843,1.536,19.3,19.3,0,0,1-4.19.464q-6.5,0-9.809-2.821t-3.31-8.887h1.268q0,5.443,3.056,7.947t8.808,2.53a16.935,16.935,0,0,0,3.63-.411,11.139,11.139,0,0,0,3.376-1.324,7.848,7.848,0,0,0,2.5-2.344,6.1,6.1,0,0,0,.974-3.51,5.637,5.637,0,0,0-.974-3.444A7.7,7.7,0,0,0,53.3,305.17a14.926,14.926,0,0,0-3.563-1.324l-4.1-1.007q-2.335-.57-4.1-1.06a22.687,22.687,0,0,1-3.149-1.126,6.209,6.209,0,0,1-2.963-2.437,8.055,8.055,0,0,1-.948-4.2,7.513,7.513,0,0,1,.574-2.755,6.994,6.994,0,0,1,1.882-2.6,10.256,10.256,0,0,1,3.4-1.947,15.159,15.159,0,0,1,5.111-.755,13.674,13.674,0,0,1,8.581,2.437q3.149,2.437,3.149,7.827H55.917a10.091,10.091,0,0,0-.774-4.146Z" transform="translate(1040.579 -8.475)"/>
    <path id="Path_285" data-name="Path 285" class="cls-8" d="M57.535,277.06v20.476h.12a11.329,11.329,0,0,1,1.415-3.444,10.944,10.944,0,0,1,5.9-4.609,13.6,13.6,0,0,1,4.311-.583,13.76,13.76,0,0,1,4.644.755,10.2,10.2,0,0,1,3.657,2.225,9.994,9.994,0,0,1,2.4,3.629,13.509,13.509,0,0,1,.854,4.98v21.35H79.568V300.648a12.483,12.483,0,0,0-.814-4.794,8.935,8.935,0,0,0-5.472-5.165,12.888,12.888,0,0,0-4-.6,11.362,11.362,0,0,0-5.111,1.1,10.848,10.848,0,0,0-3.7,2.94,12.852,12.852,0,0,0-2.242,4.291,17.242,17.242,0,0,0-.761,5.139v18.224H56.2V277.06Z" transform="translate(1048.277 -11.357)"/>
    <path id="Path_286" data-name="Path 286" class="cls-8" d="M110.19,318.892V286.708h1.268v7.947h.12a12.38,12.38,0,0,1,1.335-3.417,9.628,9.628,0,0,1,2.522-2.781,12.393,12.393,0,0,1,3.75-1.881,15.765,15.765,0,0,1,5.085-.622v1.258a12.241,12.241,0,0,0-5.779.914,10.935,10.935,0,0,0-4,3.006,12.563,12.563,0,0,0-2.335,4.41,17.65,17.65,0,0,0-.761,5.139v18.224Z" transform="translate(1066.338 -8.476)"/>
    <path id="Path_287" data-name="Path 287" class="cls-8" d="M123.7,321.773H122.43V277.06H123.7v30.992l22.394-18.476h1.828l-14.893,12.278,16.014,19.867h-1.708l-15.2-19.032-8.394,6.887Z" transform="translate(1070.433 -11.357)"/>
    <path id="Path_288" data-name="Path 288" class="cls-8" d="M117.61,350.642V321.028h1.161v7.311h.12a11.4,11.4,0,0,1,1.335-3.139,8.858,8.858,0,0,1,2.322-2.569A11.4,11.4,0,0,1,126,320.9a14.5,14.5,0,0,1,4.671-.583v1.152a11.274,11.274,0,0,0-5.338.835,10.055,10.055,0,0,0-3.683,2.768,11.56,11.56,0,0,0-2.189,4.106,16.242,16.242,0,0,0-.694,4.728v16.767Z" transform="translate(1068.82 2.672)"/>
    <path id="Path_289" data-name="Path 289" class="cls-8" d="M135.489,346.974a7.061,7.061,0,0,0,.374,2.649,3.312,3.312,0,0,0,.961,1.324,2.519,2.519,0,0,0,1.335.543,11.334,11.334,0,0,0,1.335.093h1.561a3.307,3.307,0,0,0,.988-.146v1.152l-1.014.119H139.2a5.23,5.23,0,0,1-3.456-1.179q-1.375-1.152-1.375-4.371V324.273H128.91v-1.152h5.458V313.85h1.161v9.271H142.2v1.152h-6.673Z" transform="translate(1072.601 0.579)"/>
    <path id="Path_290" data-name="Path 290" class="cls-8" d="M143.951,312.76v18.476h.12a10.21,10.21,0,0,1,1.335-3.112,9.878,9.878,0,0,1,5.338-4.145,12.267,12.267,0,0,1,3.924-.6,12.415,12.415,0,0,1,4.19.675,9.208,9.208,0,0,1,3.3,2,9.027,9.027,0,0,1,2.162,3.271,12.181,12.181,0,0,1,.774,4.49v19.257h-1.134V334a11.26,11.26,0,0,0-.734-4.318,7.816,7.816,0,0,0-4.978-4.636,11.625,11.625,0,0,0-3.563-.543,10.247,10.247,0,0,0-4.6.993,9.783,9.783,0,0,0-3.336,2.649,11.6,11.6,0,0,0-2.015,3.867,15.558,15.558,0,0,0-.681,4.636v16.436H142.91V312.76Z" transform="translate(1077.284 0.226)"/>
    <path id="Path_291" data-name="Path 291" class="cls-8" d="M164.8,330.253a14.531,14.531,0,0,1,2.536-4.834,12.778,12.778,0,0,1,4.124-3.364,12.778,12.778,0,0,1,11.33,0,12.8,12.8,0,0,1,4.124,3.364,14.53,14.53,0,0,1,2.536,4.834,19.723,19.723,0,0,1,0,11.47,14.53,14.53,0,0,1-2.536,4.834,12.078,12.078,0,0,1-9.822,4.583,12.288,12.288,0,0,1-5.632-1.245,12.446,12.446,0,0,1-4.124-3.338,14.531,14.531,0,0,1-2.536-4.834,19.723,19.723,0,0,1,0-11.47Zm1.054,11.046a13.473,13.473,0,0,0,2.309,4.49,11.4,11.4,0,0,0,3.79,3.112,11.213,11.213,0,0,0,5.2,1.152,11.093,11.093,0,0,0,5.151-1.152,11.418,11.418,0,0,0,3.79-3.113,13.472,13.472,0,0,0,2.309-4.49,18.255,18.255,0,0,0,.774-5.3,18.056,18.056,0,0,0-.774-5.3,13.471,13.471,0,0,0-2.309-4.49,11.736,11.736,0,0,0-3.79-3.139,10.876,10.876,0,0,0-5.151-1.192,11,11,0,0,0-5.2,1.192,11.723,11.723,0,0,0-3.79,3.139,13.472,13.472,0,0,0-2.309,4.49,18.057,18.057,0,0,0-.774,5.3,18.254,18.254,0,0,0,.774,5.3Z" transform="translate(1084.323 2.811)"/>
    <path id="Path_292" data-name="Path 292" class="cls-8" d="M189.258,321.456v7.178h.12a10.223,10.223,0,0,1,1.335-3.112,9.878,9.878,0,0,1,5.338-4.146,12.268,12.268,0,0,1,3.924-.6,12.415,12.415,0,0,1,4.19.675,9.208,9.208,0,0,1,3.3,2,9.027,9.027,0,0,1,2.162,3.271,12.181,12.181,0,0,1,.774,4.49v19.257h-1.121V331.4a11.26,11.26,0,0,0-.734-4.318,7.816,7.816,0,0,0-4.978-4.636,11.624,11.624,0,0,0-3.563-.543,10.248,10.248,0,0,0-4.6.993,9.783,9.783,0,0,0-3.336,2.649,11.6,11.6,0,0,0-2.015,3.867,15.558,15.558,0,0,0-.681,4.636v16.436H188.23V321.456Z" transform="translate(1092.445 2.827)"/>
    <path id="Path_293" data-name="Path 293" class="cls-8" d="M86.11,277.24" transform="translate(1058.283 -11.299)"/>
    <path id="Path_294" data-name="Path 294" class="cls-8" d="M121.146,364.739l1.335-.079c0-.318-2.082-31.787-10.676-52.978a99.979,99.979,0,0,0-25.69-36.541l-.814.993a98.642,98.642,0,0,1,25.356,36.038C119.077,333.23,121.119,364.421,121.146,364.739Z" transform="translate(1058.012 -11.98)"/>
    <path id="Path_295" data-name="Path 295" class="cls-8" d="M59.667,365.075c9.929-8.927,17.429-20.648,22.927-35.853,4.844-13.417,7.607-27.813,10.263-41.813.734-3.867,1.495-7.854,2.282-11.708l-1.268-.252c-.787,3.854-1.548,7.854-2.282,11.721-5.338,28.184-10.943,57.322-32.79,76.95Z" transform="translate(1049.146 -11.879)"/>
    <path id="Path_328" data-name="Path 328" class="cls-8" d="M0,0,1.12,0l0,1.113L0,1.113Z" transform="matrix(0.943, -0.332, 0.332, 0.943, 1142.999, 263.563)"/>
    <path id="Path_296" data-name="Path 296" class="cls-8" d="M86.138,275.187s-.907-.517-1.068.371" transform="translate(1057.935 -12.013)"/>
    <path id="Path_297" data-name="Path 297" d="M243.63,292.1a7.278,7.278,0,0,0-2.149-2.781,8.915,8.915,0,0,0-3.31-1.6,16.925,16.925,0,0,0-4.257-.5,12.98,12.98,0,0,0-5.338.914,8.006,8.006,0,0,0-2.909,2.066,5.6,5.6,0,0,0-1.2,2.291,8.535,8.535,0,0,0-.254,1.563,5.939,5.939,0,0,0,.974,3.669,6.242,6.242,0,0,0,2.669,1.973,28.17,28.17,0,0,0,3.7,1.192l4.644,1.192,3.75,1.033a12.793,12.793,0,0,1,3.35,1.47,7.658,7.658,0,0,1,2.4,2.384,6.925,6.925,0,0,1,.921,3.761,7.741,7.741,0,0,1-1.041,4.132,8.518,8.518,0,0,1-2.669,2.755,11.716,11.716,0,0,1-3.79,1.536,19.3,19.3,0,0,1-4.19.464q-6.5,0-9.809-2.821t-3.31-8.887h1.268q0,5.443,3.056,7.947t8.808,2.53a16.937,16.937,0,0,0,3.63-.411,11.14,11.14,0,0,0,3.376-1.324,7.849,7.849,0,0,0,2.5-2.344,6.1,6.1,0,0,0,.974-3.51,5.637,5.637,0,0,0-.974-3.444,7.7,7.7,0,0,0-2.522-2.159,14.925,14.925,0,0,0-3.563-1.324l-4.1-1.007q-2.335-.57-4.1-1.06a22.7,22.7,0,0,1-3.149-1.126,6.208,6.208,0,0,1-2.963-2.437,8.055,8.055,0,0,1-.947-4.2,7.5,7.5,0,0,1,.574-2.755,6.994,6.994,0,0,1,1.9-2.649,10.255,10.255,0,0,1,3.4-1.947,15.159,15.159,0,0,1,5.111-.755,13.688,13.688,0,0,1,8.581,2.437q3.15,2.437,3.15,7.827H244.55a10.094,10.094,0,0,0-.921-4.092Z" transform="translate(1103.679 -8.488)"/>
    <path id="Path_298" data-name="Path 298" d="M246.068,277.06v20.476h.12a11.328,11.328,0,0,1,1.415-3.444,10.944,10.944,0,0,1,5.9-4.609,13.6,13.6,0,0,1,4.351-.662,13.761,13.761,0,0,1,4.644.755,10.2,10.2,0,0,1,3.657,2.225,9.993,9.993,0,0,1,2.4,3.629,13.5,13.5,0,0,1,.854,4.98v21.35h-1.268V300.569a12.483,12.483,0,0,0-.814-4.794,8.713,8.713,0,0,0-5.525-5.139,12.888,12.888,0,0,0-4-.6,11.362,11.362,0,0,0-5.111,1.1,10.849,10.849,0,0,0-3.7,2.94,12.853,12.853,0,0,0-2.242,4.291,17.243,17.243,0,0,0-.761,5.139v18.224H244.72V277.06Z" transform="translate(1111.343 -11.357)"/>
    <path id="Path_299" data-name="Path 299" d="M298.71,318.892V286.708h1.268v7.947h.12a12.381,12.381,0,0,1,1.335-3.417,9.628,9.628,0,0,1,2.522-2.781,12.394,12.394,0,0,1,3.75-1.881,15.765,15.765,0,0,1,5.085-.622v1.258a12.241,12.241,0,0,0-5.779.914,10.935,10.935,0,0,0-4,3.006,12.563,12.563,0,0,0-2.336,4.41,17.648,17.648,0,0,0-.761,5.139v18.224Z" transform="translate(1129.405 -8.476)"/>
    <path id="Path_300" data-name="Path 300" d="M312.2,321.773H311V277.06h1.268v30.992l22.394-18.476h1.828L321.6,301.854l16.014,19.867H335.9l-15.2-19.032-8.394,6.887Z" transform="translate(1133.516 -11.357)"/>
    <path id="Path_301" data-name="Path 301" d="M306.13,350.642V321.028h1.161v7.311h.12a11.41,11.41,0,0,1,1.335-3.139,8.857,8.857,0,0,1,2.322-2.569,11.4,11.4,0,0,1,3.456-1.735,14.5,14.5,0,0,1,4.671-.583v1.152a11.274,11.274,0,0,0-5.338.835,10.055,10.055,0,0,0-3.683,2.768,11.561,11.561,0,0,0-2.149,4.066,16.248,16.248,0,0,0-.694,4.728v16.767Z" transform="translate(1131.887 2.672)"/>
    <path id="Path_302" data-name="Path 302" d="M324.019,346.974a7.05,7.05,0,0,0,.374,2.649,3.313,3.313,0,0,0,.961,1.324,2.52,2.52,0,0,0,1.335.543,11.334,11.334,0,0,0,1.335.093h1.561a3.306,3.306,0,0,0,.988-.146v1.152l-1.014.119h-1.828a5.23,5.23,0,0,1-3.456-1.179q-1.428-1.179-1.428-4.344V324.273H317.4v-1.152h5.458V313.85h1.161v9.271h6.673v1.152h-6.673Z" transform="translate(1135.657 0.579)"/>
    <path id="Path_303" data-name="Path 303" d="M332.474,312.76v18.476h.12a10.208,10.208,0,0,1,1.335-3.112,9.878,9.878,0,0,1,5.338-4.145,12.267,12.267,0,0,1,3.924-.6,12.415,12.415,0,0,1,4.19.675,9.208,9.208,0,0,1,3.3,2,9.026,9.026,0,0,1,2.162,3.271,12.181,12.181,0,0,1,.774,4.49v19.257h-1.134V334a11.26,11.26,0,0,0-.734-4.318,7.816,7.816,0,0,0-4.978-4.636,11.625,11.625,0,0,0-3.563-.543,10.248,10.248,0,0,0-4.617.993,9.783,9.783,0,0,0-3.336,2.649,11.6,11.6,0,0,0-2.015,3.867,15.559,15.559,0,0,0-.681,4.636v16.436H331.42V312.76Z" transform="translate(1140.347 0.226)"/>
    <path id="Path_304" data-name="Path 304" d="M353.324,330.253a14.53,14.53,0,0,1,2.536-4.834,12.777,12.777,0,0,1,4.124-3.364,12.778,12.778,0,0,1,11.33,0,12.8,12.8,0,0,1,4.124,3.364,14.53,14.53,0,0,1,2.536,4.834,19.723,19.723,0,0,1,0,11.47,14.529,14.529,0,0,1-2.536,4.834,12.077,12.077,0,0,1-9.822,4.583,12.289,12.289,0,0,1-5.632-1.245,12.432,12.432,0,0,1-4.124-3.337,14.529,14.529,0,0,1-2.536-4.834,19.723,19.723,0,0,1,0-11.47Zm1.054,11.046a13.474,13.474,0,0,0,2.309,4.49,11.406,11.406,0,0,0,3.79,3.112,11.213,11.213,0,0,0,5.2,1.152,11.093,11.093,0,0,0,5.151-1.152,11.418,11.418,0,0,0,3.79-3.112,13.473,13.473,0,0,0,2.309-4.49,18.255,18.255,0,0,0,.774-5.3,18.058,18.058,0,0,0-.774-5.3,13.471,13.471,0,0,0-2.309-4.49,11.737,11.737,0,0,0-3.79-3.139,10.877,10.877,0,0,0-5.151-1.192,11,11,0,0,0-5.2,1.192,11.723,11.723,0,0,0-3.79,3.139,13.472,13.472,0,0,0-2.309,4.49,18.059,18.059,0,0,0-.774,5.3A18.255,18.255,0,0,0,354.378,341.3Z" transform="translate(1147.39 2.811)"/>
    <path id="Path_305" data-name="Path 305" d="M377.831,321.456v7.178h.12a10.209,10.209,0,0,1,1.335-3.112,9.878,9.878,0,0,1,5.338-4.145,12.266,12.266,0,0,1,3.924-.6,12.416,12.416,0,0,1,4.19.675,9.208,9.208,0,0,1,3.3,2,9.027,9.027,0,0,1,2.162,3.271,12.181,12.181,0,0,1,.774,4.49v19.257h-1.134V331.4a11.259,11.259,0,0,0-.734-4.318,7.953,7.953,0,0,0-5.058-4.688,11.622,11.622,0,0,0-3.563-.543,10.248,10.248,0,0,0-4.6.993,9.783,9.783,0,0,0-3.336,2.649,11.6,11.6,0,0,0-2.015,3.867,15.556,15.556,0,0,0-.681,4.636v16.436H376.71V321.456Z" transform="translate(1155.499 2.827)"/>
    <path id="Path_306" data-name="Path 306" d="M274.63,277.24" transform="translate(1121.349 -11.299)"/>
    <path id="Path_307" data-name="Path 307" d="M309.666,364.739l1.335-.079c0-.318-2.082-31.787-10.676-52.978a99.979,99.979,0,0,0-25.69-36.541l-.814.993a98.643,98.643,0,0,1,25.356,36.038C307.6,333.23,309.652,364.421,309.666,364.739Z" transform="translate(1121.078 -11.98)"/>
    <path id="Path_308" data-name="Path 308" d="M248.217,365.075c9.929-8.927,17.429-20.648,22.927-35.853,4.844-13.417,7.607-27.813,10.263-41.813.734-3.867,1.495-7.854,2.282-11.708l-1.268-.252c-.787,3.854-1.548,7.854-2.282,11.721-5.338,28.184-10.943,57.322-32.79,76.95Z" transform="translate(1112.223 -11.879)"/>
    <path id="Path_329" data-name="Path 329" d="M0,0,1.12,0l0,1.113L0,1.113Z" transform="matrix(0.943, -0.332, 0.332, 0.943, 1394.61, 263.55)"/>
    <path id="Path_309" data-name="Path 309" d="M274.668,275.187s-.907-.517-1.068.371" transform="translate(1121.005 -12.013)"/>
    <line id="Line_20" data-name="Line 20" class="cls-8" x2="1.081" transform="translate(1439.205 20.562)"/>
    <path id="Path_310" data-name="Path 310" class="cls-8" d="M243.663,103.63a7.278,7.278,0,0,0-2.149-2.781,8.916,8.916,0,0,0-3.31-1.6,16.925,16.925,0,0,0-4.257-.5,12.979,12.979,0,0,0-5.338.914,8.006,8.006,0,0,0-2.909,2.066,5.6,5.6,0,0,0-1.2,2.291,8.535,8.535,0,0,0-.254,1.563,5.939,5.939,0,0,0,.974,3.669,6.242,6.242,0,0,0,2.669,1.973,28.176,28.176,0,0,0,3.7,1.192l4.644,1.192,3.75,1.033a12.794,12.794,0,0,1,3.35,1.47,7.658,7.658,0,0,1,2.4,2.384,6.924,6.924,0,0,1,.921,3.761,7.741,7.741,0,0,1-1.041,4.132,8.518,8.518,0,0,1-2.669,2.755,11.714,11.714,0,0,1-3.79,1.536,19.3,19.3,0,0,1-4.19.464q-6.5,0-9.809-2.821t-3.443-8.953h1.268q0,5.443,3.056,7.947t8.808,2.53a16.938,16.938,0,0,0,3.63-.411,11.14,11.14,0,0,0,3.376-1.324,7.848,7.848,0,0,0,2.5-2.344,6.1,6.1,0,0,0,.974-3.51,5.637,5.637,0,0,0-.974-3.444,7.7,7.7,0,0,0-2.522-2.159,14.912,14.912,0,0,0-3.563-1.324l-4.1-1.007q-2.335-.57-4.1-1.06a22.706,22.706,0,0,1-3.15-1.126,6.208,6.208,0,0,1-2.963-2.437,8.055,8.055,0,0,1-.948-4.2,7.5,7.5,0,0,1,.574-2.755,6.994,6.994,0,0,1,1.9-2.649,10.257,10.257,0,0,1,3.3-1.854,15.159,15.159,0,0,1,5.111-.755,13.688,13.688,0,0,1,8.581,2.437q3.15,2.437,3.15,7.827h-1.268a10.089,10.089,0,0,0-.681-4.119Z" transform="translate(1103.646 -69.626)"/>
    <path id="Path_311" data-name="Path 311" class="cls-8" d="M246.061,88.59v20.476h.12a11.331,11.331,0,0,1,1.415-3.444,10.945,10.945,0,0,1,5.9-4.569,13.6,13.6,0,0,1,4.351-.662,13.76,13.76,0,0,1,4.644.755,10.2,10.2,0,0,1,3.657,2.225,9.994,9.994,0,0,1,2.4,3.629,13.5,13.5,0,0,1,.854,4.98v21.35h-1.268V112.139a12.484,12.484,0,0,0-.814-4.794,8.614,8.614,0,0,0-5.5-5.126,12.889,12.889,0,0,0-4-.6,11.362,11.362,0,0,0-5.111,1.1,10.849,10.849,0,0,0-3.7,2.94,12.853,12.853,0,0,0-2.242,4.291,17.241,17.241,0,0,0-.761,5.139v18.224H244.74V88.59Z" transform="translate(1111.35 -72.505)"/>
    <path id="Path_312" data-name="Path 312" class="cls-8" d="M298.71,130.406V98.222h1.268v7.947h.12a12.381,12.381,0,0,1,1.335-3.417,9.628,9.628,0,0,1,2.522-2.781,12.4,12.4,0,0,1,3.817-1.814,15.766,15.766,0,0,1,5.085-.622v1.258a12.241,12.241,0,0,0-5.779.914,10.936,10.936,0,0,0-4,3.006,12.564,12.564,0,0,0-2.335,4.41,17.65,17.65,0,0,0-.761,5.139v18.224Z" transform="translate(1129.405 -69.608)"/>
    <path id="Path_313" data-name="Path 313" class="cls-8" d="M312.2,133.3H311V88.59h1.268V119.6l22.394-18.476h1.828L321.6,113.4l16.014,19.867H335.9L320.6,114.3l-8.394,6.887Z" transform="translate(1133.516 -72.505)"/>
    <path id="Path_314" data-name="Path 314" class="cls-8" d="M306.13,162.169v-29.6h1.161v7.311h.12a11.41,11.41,0,0,1,1.335-3.139,8.856,8.856,0,0,1,2.322-2.569,11.4,11.4,0,0,1,3.456-1.735,14.5,14.5,0,0,1,4.671-.583V133a11.274,11.274,0,0,0-5.338.834,10.055,10.055,0,0,0-3.683,2.768,11.56,11.56,0,0,0-2.149,4.066,16.242,16.242,0,0,0-.694,4.728v16.767Z" transform="translate(1131.887 -58.472)"/>
    <path id="Path_315" data-name="Path 315" class="cls-8" d="M324.019,158.5a7.061,7.061,0,0,0,.374,2.649,3.312,3.312,0,0,0,.961,1.324,2.519,2.519,0,0,0,1.335.543,11.337,11.337,0,0,0,1.335.093h1.561a3.3,3.3,0,0,0,.988-.146v1.152l-1.014.119h-1.828a5.23,5.23,0,0,1-3.456-1.179q-1.428-1.179-1.428-4.344v-22.9H317.4v-1.152h5.458V125.39h1.161v9.271h6.673v1.152h-6.673Z" transform="translate(1135.657 -60.565)"/>
    <path id="Path_316" data-name="Path 316" class="cls-8" d="M332.474,124.29v18.476h.12a10.21,10.21,0,0,1,1.335-3.112,9.878,9.878,0,0,1,5.338-4.146,12.27,12.27,0,0,1,3.924-.6,12.416,12.416,0,0,1,4.19.675,9.194,9.194,0,0,1,3.3,2,9.027,9.027,0,0,1,2.162,3.271,12.181,12.181,0,0,1,.774,4.49v19.257h-1.134V145.534a11.26,11.26,0,0,0-.734-4.318,7.815,7.815,0,0,0-4.978-4.636,11.625,11.625,0,0,0-3.563-.543,10.248,10.248,0,0,0-4.617.993,9.783,9.783,0,0,0-3.336,2.649,11.6,11.6,0,0,0-2.015,3.867,15.559,15.559,0,0,0-.681,4.636v16.436H331.42V124.29Z" transform="translate(1140.347 -60.922)"/>
    <path id="Path_317" data-name="Path 317" class="cls-8" d="M353.324,141.783a14.53,14.53,0,0,1,2.536-4.834,12.778,12.778,0,0,1,4.124-3.364,12.778,12.778,0,0,1,11.33,0,12.8,12.8,0,0,1,4.124,3.364,14.53,14.53,0,0,1,2.536,4.834,19.723,19.723,0,0,1,0,11.47,14.529,14.529,0,0,1-2.536,4.834,12.077,12.077,0,0,1-9.822,4.583,12.289,12.289,0,0,1-5.632-1.245,12.433,12.433,0,0,1-4.124-3.338,14.529,14.529,0,0,1-2.536-4.834,19.723,19.723,0,0,1,0-11.47Zm1.054,11.046a13.472,13.472,0,0,0,2.309,4.49,11.4,11.4,0,0,0,3.79,3.112,11.214,11.214,0,0,0,5.2,1.152,11.093,11.093,0,0,0,5.151-1.152,11.417,11.417,0,0,0,3.79-3.112,13.472,13.472,0,0,0,2.309-4.49,18.255,18.255,0,0,0,.774-5.3,18.059,18.059,0,0,0-.774-5.3,13.472,13.472,0,0,0-2.309-4.49,11.737,11.737,0,0,0-3.79-3.139,10.877,10.877,0,0,0-5.151-1.192,11,11,0,0,0-5.2,1.192,11.723,11.723,0,0,0-3.79,3.139,13.459,13.459,0,0,0-2.309,4.49,18.059,18.059,0,0,0-.774,5.3A18.255,18.255,0,0,0,354.378,152.829Z" transform="translate(1147.39 -58.337)"/>
    <path id="Path_318" data-name="Path 318" class="cls-8" d="M377.811,132.986v7.178h.12a10.208,10.208,0,0,1,1.335-3.112,9.878,9.878,0,0,1,5.338-4.146,12.27,12.27,0,0,1,3.924-.6,12.416,12.416,0,0,1,4.19.675,8.9,8.9,0,0,1,5.458,5.3,12.181,12.181,0,0,1,.774,4.49v19.257h-1.134v-19.1a11.259,11.259,0,0,0-.734-4.318,7.815,7.815,0,0,0-4.978-4.636,11.626,11.626,0,0,0-3.563-.543,10.248,10.248,0,0,0-4.6.993,9.783,9.783,0,0,0-3.336,2.649,11.6,11.6,0,0,0-2.015,3.867,15.556,15.556,0,0,0-.681,4.636v16.436H376.77V132.986Z" transform="translate(1155.519 -58.32)"/>
    <path id="Path_319" data-name="Path 319" class="cls-8" d="M274.63,88.77" transform="translate(1121.349 -72.447)"/>
    <path id="Path_320" data-name="Path 320" class="cls-8" d="M309.666,176.269l1.335-.079c0-.318-2.082-31.787-10.676-52.978a99.992,99.992,0,0,0-25.69-36.541l-.814.993A98.643,98.643,0,0,1,299.176,123.7C307.6,144.707,309.652,175.964,309.666,176.269Z" transform="translate(1121.078 -73.128)"/>
    <path id="Path_321" data-name="Path 321" class="cls-8" d="M248.217,176.605c9.929-8.927,17.429-20.648,22.927-35.853,4.844-13.417,7.607-27.813,10.263-41.813.734-3.867,1.495-7.854,2.282-11.708l-1.268-.252c-.787,3.854-1.548,7.854-2.282,11.721-5.338,28.184-10.943,57.322-32.79,76.95Z" transform="translate(1112.223 -73.027)"/>
    <path id="Path_330" data-name="Path 330" class="cls-8" d="M0,0,1.12,0l0,1.113L0,1.113Z" transform="translate(1394.608 13.902) rotate(-19.39)"/>
    <path id="Path_322" data-name="Path 322" class="cls-8" d="M274.668,86.727s-.907-.517-1.068.371" transform="translate(1121.005 -73.158)"/>
  </g>
</svg>
