<svg xmlns="http://www.w3.org/2000/svg" xmlns:xlink="http://www.w3.org/1999/xlink" viewBox="-283 -68 1280 800">
  <defs>
    <style>
      .cls-1 {
        clip-path: url(#clip-Hero);
      }

      .cls-2 {
        fill: #72bc2a;
      }

      .cls-3 {
        fill: #2156d8;
      }

      .cls-4 {
        fill: #bc2828;
      }

      .cls-5 {
        fill: #ffce00;
      }

      .cls-6, .cls-8 {
        fill: #fff;
      }

      .cls-6 {
        stroke: #95989a;
      }

      .cls-7 {
        fill: #fd0;
      }

      .cls-9 {
        stroke: none;
      }

      .cls-10 {
        fill: none;
      }

      .cls-11 {
        filter: url(#Rectangle_25);
      }
    </style>
    <filter id="Rectangle_25" x="160.5" y="136.5" width="404" height="404" filterUnits="userSpaceOnUse">
      <feOffset dx="5" dy="6" input="SourceAlpha"/>
      <feGaussianBlur stdDeviation="5.5" result="blur"/>
      <feFlood flood-opacity="0.486"/>
      <feComposite operator="in" in2="blur"/>
      <feComposite in="SourceGraphic"/>
    </filter>
    <clipPath id="clip-Hero">
      <rect x="-283" y="-68" width="1280" height="800"/>
    </clipPath>
  </defs>
  <g id="Hero" class="cls-1">
    <rect class="cls-8" x="-283" y="-68" width="1280" height="800"/>
    <g id="Group_1" data-name="Group 1" transform="translate(-283 -68)">
      <rect id="Rectangle_1" data-name="Rectangle 1" class="cls-2" width="640.55" height="400.55" transform="translate(1280.4 800.27) rotate(180)"/>
      <rect id="Rectangle_2" data-name="Rectangle 2" class="cls-3" width="640.55" height="399.55" transform="translate(1280.1 399.55) rotate(180)"/>
      <rect id="Rectangle_3" data-name="Rectangle 3" class="cls-4" width="639.55" height="400.55" transform="translate(639.55 800.03) rotate(180)"/>
      <rect id="Rectangle_4" data-name="Rectangle 4" class="cls-5" width="639.55" height="399.55" transform="translate(639.55 399.55) rotate(180)"/>
    </g>
    <g class="cls-11" transform="matrix(1, 0, 0, 1, 0, 0)">
      <g id="Rectangle_25-2" data-name="Rectangle 25" class="cls-6" transform="translate(172 147)">
        <rect class="cls-9" width="371" height="371"/>
        <rect class="cls-10" x="0.5" y="0.5" width="370" height="370"/>
      </g>
    </g>
    <line id="Line_1" data-name="Line 1" class="cls-7" x2="0.82" transform="translate(261.22 209.76)"/>
    <path id="Path_1" data-name="Path 1" class="cls-7" d="M49.37,101.91a5.49,5.49,0,0,0-1.61-2.1,6.65,6.65,0,0,0-2.48-1.21,12.589,12.589,0,0,0-3.19-.38,9.66,9.66,0,0,0-4,.69,6,6,0,0,0-2.18,1.56,4.24,4.24,0,0,0-.9,1.73,6.5,6.5,0,0,0-.19,1.18,4.51,4.51,0,0,0,.73,2.77,4.68,4.68,0,0,0,2,1.49,21,21,0,0,0,2.77.9l3.48.9,2.81.78a9.55,9.55,0,0,1,2.51,1.11,5.76,5.76,0,0,1,1.8,1.8,5.26,5.26,0,0,1,.69,2.84,5.88,5.88,0,0,1-.78,3.12,6.41,6.41,0,0,1-2,2.08,8.74,8.74,0,0,1-2.84,1.16,14.349,14.349,0,0,1-3.14.35q-4.87,0-7.35-2.13t-2.48-6.71h.95q0,4.11,2.29,6t6.6,1.91a12.59,12.59,0,0,0,2.72-.31,8.31,8.31,0,0,0,2.53-1,5.9,5.9,0,0,0,1.87-1.77A4.63,4.63,0,0,0,50.6,116a4.28,4.28,0,0,0-.73-2.6A5.78,5.78,0,0,0,48,111.81a11.121,11.121,0,0,0-2.67-1l-3.1-.81q-1.75-.43-3.07-.8a16.919,16.919,0,0,1-2.36-.85,4.66,4.66,0,0,1-2.22-1.84,6.12,6.12,0,0,1-.71-3.17,5.71,5.71,0,0,1,.43-2.08,5.28,5.28,0,0,1,1.42-2,7.67,7.67,0,0,1,2.55-1.47,11.28,11.28,0,0,1,3.83-.57,10.2,10.2,0,0,1,6.43,1.84Q50.88,101,50.88,105h-.95a7.67,7.67,0,0,0-.56-3.09Z" transform="translate(143 118)"/>
    <path id="Path_2" data-name="Path 2" class="cls-7" d="M56.93,88.39v15.46H57a8.59,8.59,0,0,1,1.06-2.6,8.21,8.21,0,0,1,4.42-3.48,10.12,10.12,0,0,1,3.26-.5,10.24,10.24,0,0,1,3.48.57A7.63,7.63,0,0,1,72,99.52a7.55,7.55,0,0,1,1.8,2.74,10.27,10.27,0,0,1,.64,3.76v16.12h-.95v-16a9.49,9.49,0,0,0-.61-3.62,6.75,6.75,0,0,0-1.68-2.46,6.63,6.63,0,0,0-2.46-1.42,9.59,9.59,0,0,0-3-.45,8.46,8.46,0,0,0-3.83.83,8.14,8.14,0,0,0-2.77,2.22,9.73,9.73,0,0,0-1.68,3.24,13.11,13.11,0,0,0-.57,3.88v13.76H56V88.39Z" transform="translate(143 118)"/>
    <path id="Path_3" data-name="Path 3" class="cls-7" d="M109.92,122.14V97.84h.95v6H111a9.391,9.391,0,0,1,1-2.58,7.25,7.25,0,0,1,1.89-2.1,9.26,9.26,0,0,1,2.81-1.42,11.73,11.73,0,0,1,3.81-.47v.95a9.11,9.11,0,0,0-4.33.69,8.2,8.2,0,0,0-3,2.27,9.51,9.51,0,0,0-1.75,3.33,13.42,13.42,0,0,0-.57,3.88v13.76Z" transform="translate(143 118)"/>
    <path id="Path_4" data-name="Path 4" class="cls-7" d="M123.11,122.14h-.95V88.39h.95v23.4l16.78-13.95h1.37l-11.16,9.27,12,15h-1.28L129.4,107.77l-6.29,5.2Z" transform="translate(143 118)"/>
    <path id="Path_5" data-name="Path 5" class="cls-7" d="M117.34,154.54V132.18h.87v5.52h.09a8.64,8.64,0,0,1,1-2.37,6.67,6.67,0,0,1,1.74-1.94,8.531,8.531,0,0,1,2.59-1.31,10.79,10.79,0,0,1,3.5-.44v.87a8.39,8.39,0,0,0-4,.63,7.54,7.54,0,0,0-2.76,2.09,8.75,8.75,0,0,0-1.61,3.07,12.35,12.35,0,0,0-.52,3.57v12.66Z" transform="translate(143 118)"/>
    <path id="Path_6" data-name="Path 6" class="cls-7" d="M133.56,150.19a5.37,5.37,0,0,0,.28,2,2.51,2.51,0,0,0,.72,1,1.88,1.88,0,0,0,1,.41,8.43,8.43,0,0,0,1,.07h1.17a2.47,2.47,0,0,0,.74-.11v.87l-.76.09h-1.37a3.9,3.9,0,0,1-2.59-.89q-1.07-.89-1.07-3.28V133h-4.09v-.87h4.09v-7h.87v7h5V133h-5Z" transform="translate(143 118)"/>
    <path id="Path_7" data-name="Path 7" class="cls-7" d="M143.42,124.08V138h.09a7.74,7.74,0,0,1,1-2.35,7.41,7.41,0,0,1,4-3.13,9.13,9.13,0,0,1,2.94-.45,9.24,9.24,0,0,1,3.14.51,6.69,6.69,0,0,1,4.09,4,9.26,9.26,0,0,1,.58,3.39v14.54h-.85V140.12a8.56,8.56,0,0,0-.55-3.26,6.09,6.09,0,0,0-1.51-2.22,6,6,0,0,0-2.22-1.28,8.65,8.65,0,0,0-2.67-.41,7.63,7.63,0,0,0-3.45.75,7.34,7.34,0,0,0-2.5,2,8.78,8.78,0,0,0-1.51,2.92,11.831,11.831,0,0,0-.51,3.5v12.41h-.85V124.08Z" transform="translate(143 118)"/>
    <path id="Path_8" data-name="Path 8" class="cls-7" d="M164.32,139.25a11,11,0,0,1,1.9-3.65,9.59,9.59,0,0,1,3.09-2.54,9.51,9.51,0,0,1,8.49,0,9.6,9.6,0,0,1,3.09,2.54,11,11,0,0,1,1.9,3.65,15,15,0,0,1,0,8.66,11,11,0,0,1-1.9,3.65,9.35,9.35,0,0,1-3.09,2.52,9.25,9.25,0,0,1-4.27.94,9.15,9.15,0,0,1-4.22-.94,9.34,9.34,0,0,1-3.09-2.52,11,11,0,0,1-1.9-3.65,15,15,0,0,1,0-8.66Zm.79,8.34a10.2,10.2,0,0,0,1.73,3.39,8.56,8.56,0,0,0,2.84,2.35,8.35,8.35,0,0,0,3.9.87,8.26,8.26,0,0,0,3.86-.87,8.57,8.57,0,0,0,2.84-2.35,10.2,10.2,0,0,0,1.73-3.39,13.88,13.88,0,0,0,.58-4,13.729,13.729,0,0,0-.58-4,10.2,10.2,0,0,0-1.73-3.39,8.81,8.81,0,0,0-2.84-2.37,8.1,8.1,0,0,0-3.86-.9,8.19,8.19,0,0,0-3.9.9,8.8,8.8,0,0,0-2.84,2.37,10.2,10.2,0,0,0-1.73,3.39,13.731,13.731,0,0,0-.58,4,13.88,13.88,0,0,0,.58,3.99Z" transform="translate(143 118)"/>
    <path id="Path_9" data-name="Path 9" class="cls-7" d="M188.76,132.61V138h.09a7.75,7.75,0,0,1,1-2.35,7.41,7.41,0,0,1,4-3.13,9.13,9.13,0,0,1,2.94-.45,9.24,9.24,0,0,1,3.14.51A6.514,6.514,0,0,1,204,136.6a9.26,9.26,0,0,1,.58,3.39v14.54h-.85V140.12a8.56,8.56,0,0,0-.55-3.26,6.09,6.09,0,0,0-1.51-2.22,6,6,0,0,0-2.22-1.28,8.65,8.65,0,0,0-2.67-.41,7.63,7.63,0,0,0-3.45.75,7.34,7.34,0,0,0-2.5,2,8.77,8.77,0,0,0-1.51,2.92,11.83,11.83,0,0,0-.51,3.5v12.41h-.85V132.61Z" transform="translate(143 118)"/>
    <path id="Path_10" data-name="Path 10" class="cls-7" d="M85.84,88.56" transform="translate(143 118)"/>
    <path id="Path_11" data-name="Path 11" class="cls-7" d="M111.89,154.11l1-.06c0-.24-1.56-24-8-40A75.5,75.5,0,0,0,85.6,86.5l-.61.75a74.48,74.48,0,0,1,19,27.21C110.33,130.28,111.87,153.88,111.89,154.11Z" transform="translate(143 118)"/>
    <path id="Path_12" data-name="Path 12" class="cls-7" d="M59.18,154.44c7.44-6.74,13.06-15.59,17.18-27.07,3.63-10.13,5.7-21,7.69-31.57.55-2.92,1.12-5.93,1.71-8.84l-.95-.19c-.59,2.91-1.16,5.93-1.71,8.85-4,21.28-8.2,43.28-24.57,58.1Z" transform="translate(143 118)"/>
    <rect id="Rectangle_9" data-name="Rectangle 9" class="cls-7" width="0.84" height="0.84" transform="translate(227.801 204.755) rotate(-19.39)"/>
    <path id="Path_13" data-name="Path 13" class="cls-7" d="M85.6,86.48s-.68-.39-.8.28" transform="translate(143 118)"/>
    <line id="Line_2" data-name="Line 2" class="cls-7" x2="0.82" transform="translate(261.49 398.44)"/>
    <path id="Path_14" data-name="Path 14" class="cls-7" d="M49.64,290.58a5.49,5.49,0,0,0-1.61-2.1,6.66,6.66,0,0,0-2.48-1.21,12.589,12.589,0,0,0-3.19-.38,9.66,9.66,0,0,0-4,.69,6,6,0,0,0-2.18,1.56,4.24,4.24,0,0,0-.9,1.73,6.5,6.5,0,0,0-.19,1.18,4.51,4.51,0,0,0,.73,2.77,4.68,4.68,0,0,0,2,1.49,21,21,0,0,0,2.77.9l3.48.9,2.81.78A9.55,9.55,0,0,1,49.33,300a5.76,5.76,0,0,1,1.8,1.8,5.26,5.26,0,0,1,.69,2.84,5.88,5.88,0,0,1-.78,3.12,6.41,6.41,0,0,1-2,2.08A8.739,8.739,0,0,1,46.16,311a14.358,14.358,0,0,1-3.14.35q-4.87,0-7.35-2.13t-2.48-6.71h.95q0,4.11,2.29,6t6.6,1.91a12.6,12.6,0,0,0,2.72-.31,8.31,8.31,0,0,0,2.53-1,5.9,5.9,0,0,0,1.87-1.77,4.63,4.63,0,0,0,.73-2.65,4.28,4.28,0,0,0-.73-2.6,5.78,5.78,0,0,0-1.89-1.63,11.131,11.131,0,0,0-2.67-1l-3.07-.76q-1.75-.43-3.07-.8a16.919,16.919,0,0,1-2.36-.85,4.66,4.66,0,0,1-2.22-1.84,6.12,6.12,0,0,1-.71-3.17,5.71,5.71,0,0,1,.43-2.08A5.28,5.28,0,0,1,36,288a7.67,7.67,0,0,1,2.55-1.47,11.28,11.28,0,0,1,3.83-.57,10.19,10.19,0,0,1,6.43,1.84q2.36,1.84,2.36,5.91h-.95a7.67,7.67,0,0,0-.58-3.13Z" transform="translate(143 118)"/>
    <path id="Path_15" data-name="Path 15" class="cls-7" d="M57.2,277.06v15.46h.09a8.59,8.59,0,0,1,1.06-2.6,8.21,8.21,0,0,1,4.42-3.48A10.12,10.12,0,0,1,66,286a10.24,10.24,0,0,1,3.48.57,7.63,7.63,0,0,1,2.74,1.68,7.55,7.55,0,0,1,1.8,2.74,10.27,10.27,0,0,1,.64,3.76v16.12h-.95v-16a9.49,9.49,0,0,0-.61-3.62,6.75,6.75,0,0,0-1.68-2.46A6.63,6.63,0,0,0,69,287.35a9.59,9.59,0,0,0-3-.45,8.459,8.459,0,0,0-3.83.83,8.14,8.14,0,0,0-2.77,2.22,9.73,9.73,0,0,0-1.68,3.24,13.11,13.11,0,0,0-.57,3.88v13.76H56.2V277.06Z" transform="translate(143 118)"/>
    <path id="Path_16" data-name="Path 16" class="cls-7" d="M110.19,310.82v-24.3h.95v6h.09a9.39,9.39,0,0,1,1-2.58,7.25,7.25,0,0,1,1.89-2.1,9.261,9.261,0,0,1,2.81-1.42,11.731,11.731,0,0,1,3.81-.47v.95a9.111,9.111,0,0,0-4.33.69,8.2,8.2,0,0,0-3,2.27,9.51,9.51,0,0,0-1.75,3.33,13.42,13.42,0,0,0-.57,3.88v13.76Z" transform="translate(143 118)"/>
    <path id="Path_17" data-name="Path 17" class="cls-7" d="M123.38,310.82h-.95V277.06h.95v23.4l16.78-13.95h1.37l-11.16,9.27,12,15h-1.28L129.7,296.41l-6.29,5.2Z" transform="translate(143 118)"/>
    <path id="Path_18" data-name="Path 18" class="cls-7" d="M117.61,343.21V320.85h.87v5.52h.09a8.64,8.64,0,0,1,1-2.37,6.67,6.67,0,0,1,1.74-1.94,8.521,8.521,0,0,1,2.59-1.31,10.789,10.789,0,0,1,3.5-.44v.87a8.39,8.39,0,0,0-4,.63,7.54,7.54,0,0,0-2.76,2.09A8.751,8.751,0,0,0,119,327a12.35,12.35,0,0,0-.52,3.57v12.66Z" transform="translate(143 118)"/>
    <path id="Path_19" data-name="Path 19" class="cls-7" d="M133.84,338.86a5.37,5.37,0,0,0,.28,2,2.5,2.5,0,0,0,.72,1,1.88,1.88,0,0,0,1,.41,8.43,8.43,0,0,0,1,.07h1.17a2.46,2.46,0,0,0,.74-.11v.87l-.76.09h-1.37a3.9,3.9,0,0,1-2.59-.89Q133,341.43,133,339V321.72h-4.09v-.87H133v-7h.87v7h5v.87h-5Z" transform="translate(143 118)"/>
    <path id="Path_20" data-name="Path 20" class="cls-7" d="M143.69,312.76v13.95h.09a7.74,7.74,0,0,1,1-2.35,7.41,7.41,0,0,1,4-3.13,9.129,9.129,0,0,1,2.94-.45,9.24,9.24,0,0,1,3.14.51,6.89,6.89,0,0,1,2.47,1.51,6.82,6.82,0,0,1,1.62,2.47,9.26,9.26,0,0,1,.58,3.39V343.2h-.85V328.8a8.56,8.56,0,0,0-.55-3.26,6.09,6.09,0,0,0-1.51-2.22,6,6,0,0,0-2.22-1.28,8.65,8.65,0,0,0-2.67-.41,7.63,7.63,0,0,0-3.45.75,7.34,7.34,0,0,0-2.5,2,8.78,8.78,0,0,0-1.51,2.92,11.83,11.83,0,0,0-.51,3.5v12.41h-.85V312.76Z" transform="translate(143 118)"/>
    <path id="Path_21" data-name="Path 21" class="cls-7" d="M164.59,327.92a11,11,0,0,1,1.9-3.65,9.59,9.59,0,0,1,3.09-2.54,9.51,9.51,0,0,1,8.49,0,9.611,9.611,0,0,1,3.09,2.54,11,11,0,0,1,1.9,3.65,15,15,0,0,1,0,8.66,11,11,0,0,1-1.9,3.65,9.35,9.35,0,0,1-3.09,2.52,9.25,9.25,0,0,1-4.27.94,9.15,9.15,0,0,1-4.22-.94,9.34,9.34,0,0,1-3.09-2.52,11,11,0,0,1-1.9-3.65,15,15,0,0,1,0-8.66Zm.79,8.34a10.2,10.2,0,0,0,1.73,3.39,8.56,8.56,0,0,0,2.84,2.35,8.35,8.35,0,0,0,3.9.87,8.26,8.26,0,0,0,3.86-.87,8.57,8.57,0,0,0,2.84-2.35,10.2,10.2,0,0,0,1.73-3.39,13.88,13.88,0,0,0,.58-4,13.73,13.73,0,0,0-.58-4,10.2,10.2,0,0,0-1.73-3.39,8.81,8.81,0,0,0-2.84-2.37,8.1,8.1,0,0,0-3.86-.9,8.19,8.19,0,0,0-3.9.9,8.8,8.8,0,0,0-2.84,2.37,10.2,10.2,0,0,0-1.73,3.39,13.731,13.731,0,0,0-.58,4,13.88,13.88,0,0,0,.58,4Z" transform="translate(143 118)"/>
    <path id="Path_22" data-name="Path 22" class="cls-7" d="M189,321.29v5.42h.09a7.75,7.75,0,0,1,1-2.35,7.41,7.41,0,0,1,4-3.13,9.129,9.129,0,0,1,2.94-.45,9.24,9.24,0,0,1,3.14.51,6.89,6.89,0,0,1,2.47,1.51,6.82,6.82,0,0,1,1.62,2.47,9.26,9.26,0,0,1,.58,3.39V343.2H204V328.8a8.56,8.56,0,0,0-.55-3.26,6.09,6.09,0,0,0-1.51-2.22,6,6,0,0,0-2.22-1.28,8.65,8.65,0,0,0-2.67-.41,7.63,7.63,0,0,0-3.45.75,7.34,7.34,0,0,0-2.5,2,8.781,8.781,0,0,0-1.51,2.92,11.83,11.83,0,0,0-.51,3.5v12.41h-.85V321.29Z" transform="translate(143 118)"/>
    <path id="Path_23" data-name="Path 23" class="cls-7" d="M86.11,277.24" transform="translate(143 118)"/>
    <path id="Path_24" data-name="Path 24" class="cls-7" d="M112.16,342.79l1-.06c0-.24-1.56-24-8-40a75.49,75.49,0,0,0-19.25-27.59l-.61.75a74.48,74.48,0,0,1,19,27.21C110.61,319,112.14,342.55,112.16,342.79Z" transform="translate(143 118)"/>
    <path id="Path_25" data-name="Path 25" class="cls-7" d="M59.45,343.12c7.44-6.74,13.06-15.59,17.18-27.07,3.63-10.13,5.7-21,7.69-31.57.55-2.92,1.12-5.93,1.71-8.84l-.95-.19c-.59,2.91-1.16,5.93-1.71,8.85-4,21.28-8.2,43.28-24.57,58.1Z" transform="translate(143 118)"/>
    <rect id="Rectangle_10" data-name="Rectangle 10" class="cls-7" width="0.84" height="0.84" transform="matrix(0.943, -0.332, 0.332, 0.943, 228.066, 393.445)"/>
    <path id="Path_26" data-name="Path 26" class="cls-7" d="M85.87,275.15s-.68-.39-.8.28" transform="translate(143 118)"/>
    <line id="Line_3" data-name="Line 3" class="cls-7" x2="0.81" transform="translate(450.02 398.44)"/>
    <path id="Path_27" data-name="Path 27" class="cls-7" d="M238.16,290.58a5.49,5.49,0,0,0-1.61-2.1,6.66,6.66,0,0,0-2.48-1.21,12.59,12.59,0,0,0-3.19-.38,9.66,9.66,0,0,0-4,.69,6,6,0,0,0-2.18,1.56,4.24,4.24,0,0,0-.9,1.73,6.489,6.489,0,0,0-.19,1.18,4.51,4.51,0,0,0,.73,2.77,4.68,4.68,0,0,0,2,1.49,21,21,0,0,0,2.77.9l3.48.9,2.81.78a9.55,9.55,0,0,1,2.51,1.11,5.76,5.76,0,0,1,1.8,1.8,5.26,5.26,0,0,1,.69,2.84,5.88,5.88,0,0,1-.78,3.12,6.41,6.41,0,0,1-2,2.08,8.741,8.741,0,0,1-2.84,1.16,14.358,14.358,0,0,1-3.14.35q-4.87,0-7.35-2.13t-2.48-6.71h.95q0,4.11,2.29,6t6.6,1.91a12.6,12.6,0,0,0,2.72-.31,8.311,8.311,0,0,0,2.53-1,5.9,5.9,0,0,0,1.87-1.77,4.63,4.63,0,0,0,.73-2.65,4.28,4.28,0,0,0-.73-2.6,5.78,5.78,0,0,0-1.89-1.63,11.131,11.131,0,0,0-2.67-1l-3.07-.76q-1.75-.43-3.07-.8a16.923,16.923,0,0,1-2.36-.85,4.66,4.66,0,0,1-2.22-1.84,6.12,6.12,0,0,1-.71-3.17,5.7,5.7,0,0,1,.43-2.08,5.28,5.28,0,0,1,1.42-2,7.67,7.67,0,0,1,2.55-1.47,11.279,11.279,0,0,1,3.83-.57,10.2,10.2,0,0,1,6.43,1.84q2.36,1.84,2.36,5.91h-.95a7.67,7.67,0,0,0-.69-3.09Z" transform="translate(143 118)"/>
    <path id="Path_28" data-name="Path 28" class="cls-7" d="M245.73,277.06v15.46h.09a8.59,8.59,0,0,1,1.06-2.6,8.21,8.21,0,0,1,4.42-3.48,10.12,10.12,0,0,1,3.26-.5,10.24,10.24,0,0,1,3.48.57,7.629,7.629,0,0,1,2.74,1.68,7.55,7.55,0,0,1,1.8,2.74,10.261,10.261,0,0,1,.64,3.76v16.12h-.95v-16a9.49,9.49,0,0,0-.61-3.62,6.749,6.749,0,0,0-1.68-2.46,6.63,6.63,0,0,0-2.46-1.42,9.59,9.59,0,0,0-3-.45,8.46,8.46,0,0,0-3.83.83,8.14,8.14,0,0,0-2.77,2.22,9.73,9.73,0,0,0-1.68,3.24,13.11,13.11,0,0,0-.57,3.88v13.76h-.95V277.06Z" transform="translate(143 118)"/>
    <path id="Path_29" data-name="Path 29" class="cls-7" d="M298.71,310.82v-24.3h.95v6h.09a9.39,9.39,0,0,1,1-2.58,7.249,7.249,0,0,1,1.89-2.1,9.26,9.26,0,0,1,2.81-1.42,11.729,11.729,0,0,1,3.81-.47v.95a9.11,9.11,0,0,0-4.33.69,8.2,8.2,0,0,0-3,2.27,9.51,9.51,0,0,0-1.75,3.33,13.418,13.418,0,0,0-.57,3.88v13.76Z" transform="translate(143 118)"/>
    <path id="Path_30" data-name="Path 30" class="cls-7" d="M311.9,310.82H311V277.06h.95v23.4l16.78-13.95h1.37l-11.16,9.27,12,15h-1.28l-11.39-14.37-6.29,5.2Z" transform="translate(143 118)"/>
    <path id="Path_31" data-name="Path 31" class="cls-7" d="M306.13,343.21V320.85H307v5.52h.09a8.649,8.649,0,0,1,1-2.37,6.67,6.67,0,0,1,1.74-1.94,8.52,8.52,0,0,1,2.59-1.31,10.79,10.79,0,0,1,3.5-.44v.87a8.39,8.39,0,0,0-4,.63,7.54,7.54,0,0,0-2.76,2.09,8.751,8.751,0,0,0-1.61,3.07,12.352,12.352,0,0,0-.52,3.57V343.2Z" transform="translate(143 118)"/>
    <path id="Path_32" data-name="Path 32" class="cls-7" d="M322.36,338.86a5.36,5.36,0,0,0,.28,2,2.5,2.5,0,0,0,.72,1,1.88,1.88,0,0,0,1,.41,8.43,8.43,0,0,0,1,.07h1.17a2.459,2.459,0,0,0,.74-.11v.87l-.76.09h-1.37a3.9,3.9,0,0,1-2.59-.89q-1.07-.89-1.07-3.28v-17.3H317.4v-.87h4.09v-7h.87v7h5v.87h-5Z" transform="translate(143 118)"/>
    <path id="Path_33" data-name="Path 33" class="cls-7" d="M332.21,312.76v13.95h.09a7.739,7.739,0,0,1,1-2.35,7.41,7.41,0,0,1,4-3.13,9.129,9.129,0,0,1,2.94-.45,9.24,9.24,0,0,1,3.14.51,6.891,6.891,0,0,1,2.47,1.51,6.82,6.82,0,0,1,1.62,2.47,9.26,9.26,0,0,1,.58,3.39V343.2h-.85V328.8a8.56,8.56,0,0,0-.55-3.26,6.09,6.09,0,0,0-1.51-2.22,6,6,0,0,0-2.22-1.28,8.65,8.65,0,0,0-2.67-.41,7.63,7.63,0,0,0-3.46.75,7.34,7.34,0,0,0-2.5,2,8.78,8.78,0,0,0-1.51,2.92,11.83,11.83,0,0,0-.51,3.5v12.41h-.85V312.76Z" transform="translate(143 118)"/>
    <path id="Path_34" data-name="Path 34" class="cls-7" d="M353.11,327.92a11,11,0,0,1,1.9-3.65,9.59,9.59,0,0,1,3.09-2.54,9.51,9.51,0,0,1,8.49,0,9.61,9.61,0,0,1,3.09,2.54,11,11,0,0,1,1.9,3.65,15,15,0,0,1,0,8.66,11,11,0,0,1-1.9,3.65,9.35,9.35,0,0,1-3.09,2.52,9.25,9.25,0,0,1-4.27.94,9.15,9.15,0,0,1-4.22-.94,9.329,9.329,0,0,1-3.09-2.52,11,11,0,0,1-1.9-3.65,15,15,0,0,1,0-8.66Zm.79,8.34a10.2,10.2,0,0,0,1.73,3.39,8.561,8.561,0,0,0,2.84,2.35,8.35,8.35,0,0,0,3.9.87,8.26,8.26,0,0,0,3.86-.87,8.57,8.57,0,0,0,2.84-2.35,10.2,10.2,0,0,0,1.73-3.39,13.88,13.88,0,0,0,.58-4,13.731,13.731,0,0,0-.58-4,10.2,10.2,0,0,0-1.73-3.39,8.81,8.81,0,0,0-2.84-2.37,8.1,8.1,0,0,0-3.86-.9,8.191,8.191,0,0,0-3.9.9,8.8,8.8,0,0,0-2.84,2.37,10.2,10.2,0,0,0-1.73,3.39,13.731,13.731,0,0,0-.58,4A13.881,13.881,0,0,0,353.9,336.26Z" transform="translate(143 118)"/>
    <path id="Path_35" data-name="Path 35" class="cls-7" d="M377.55,321.29v5.42h.09a7.739,7.739,0,0,1,1-2.35,7.41,7.41,0,0,1,4-3.13,9.128,9.128,0,0,1,2.94-.45,9.24,9.24,0,0,1,3.14.51,6.891,6.891,0,0,1,2.47,1.51,6.82,6.82,0,0,1,1.62,2.47,9.26,9.26,0,0,1,.58,3.39V343.2h-.85V328.8a8.559,8.559,0,0,0-.55-3.26,6.089,6.089,0,0,0-1.51-2.22A6,6,0,0,0,388.2,322a8.648,8.648,0,0,0-2.67-.41,7.63,7.63,0,0,0-3.45.75,7.34,7.34,0,0,0-2.5,2,8.779,8.779,0,0,0-1.51,2.92,11.828,11.828,0,0,0-.51,3.5v12.41h-.85V321.29Z" transform="translate(143 118)"/>
    <path id="Path_36" data-name="Path 36" class="cls-7" d="M274.63,277.24" transform="translate(143 118)"/>
    <path id="Path_37" data-name="Path 37" class="cls-7" d="M300.68,342.79l1-.06c0-.24-1.56-24-8-40a75.49,75.49,0,0,0-19.25-27.59l-.61.75a74.48,74.48,0,0,1,19,27.21C299.13,319,300.67,342.55,300.68,342.79Z" transform="translate(143 118)"/>
    <path id="Path_38" data-name="Path 38" class="cls-7" d="M248,343.12c7.44-6.74,13.06-15.59,17.18-27.07,3.63-10.13,5.7-21,7.69-31.57.55-2.92,1.12-5.93,1.71-8.84l-.95-.19c-.59,2.91-1.16,5.93-1.71,8.85-4,21.28-8.2,43.28-24.57,58.1Z" transform="translate(143 118)"/>
    <rect id="Rectangle_11" data-name="Rectangle 11" class="cls-7" width="0.84" height="0.84" transform="matrix(0.943, -0.332, 0.332, 0.943, 416.604, 393.435)"/>
    <path id="Path_39" data-name="Path 39" class="cls-7" d="M274.4,275.15s-.68-.39-.8.28" transform="translate(143 118)"/>
    <line id="Line_4" data-name="Line 4" class="cls-7" x2="0.81" transform="translate(450.02 209.97)"/>
    <path id="Path_40" data-name="Path 40" class="cls-7" d="M238.16,102.12a5.49,5.49,0,0,0-1.61-2.1,6.66,6.66,0,0,0-2.48-1.21,12.591,12.591,0,0,0-3.19-.38,9.66,9.66,0,0,0-4,.69,6,6,0,0,0-2.18,1.56,4.24,4.24,0,0,0-.9,1.73,6.489,6.489,0,0,0-.19,1.18,4.51,4.51,0,0,0,.73,2.77,4.68,4.68,0,0,0,2,1.49,21,21,0,0,0,2.77.9l3.48.9,2.81.78a9.55,9.55,0,0,1,2.51,1.11,5.76,5.76,0,0,1,1.8,1.8,5.26,5.26,0,0,1,.69,2.84,5.88,5.88,0,0,1-.78,3.12,6.41,6.41,0,0,1-2,2.08,8.74,8.74,0,0,1-2.84,1.16,14.359,14.359,0,0,1-3.14.35q-4.87,0-7.35-2.13T221.71,114h.95q0,4.11,2.29,6t6.6,1.91a12.6,12.6,0,0,0,2.72-.31,8.31,8.31,0,0,0,2.53-1,5.9,5.9,0,0,0,1.87-1.77,4.63,4.63,0,0,0,.73-2.65,4.28,4.28,0,0,0-.73-2.6,5.78,5.78,0,0,0-1.89-1.63,11.121,11.121,0,0,0-2.67-1l-3.07-.76q-1.75-.43-3.07-.8a16.929,16.929,0,0,1-2.36-.85,4.66,4.66,0,0,1-2.22-1.84,6.12,6.12,0,0,1-.71-3.17,5.7,5.7,0,0,1,.43-2.08,5.28,5.28,0,0,1,1.42-2,7.67,7.67,0,0,1,2.47-1.4,11.28,11.28,0,0,1,3.83-.57,10.2,10.2,0,0,1,6.43,1.84q2.36,1.84,2.36,5.91h-.95a7.67,7.67,0,0,0-.51-3.11Z" transform="translate(143 118)"/>
    <path id="Path_41" data-name="Path 41" class="cls-7" d="M245.73,88.59v15.46h.09a8.59,8.59,0,0,1,1.06-2.6A8.21,8.21,0,0,1,251.3,98a10.12,10.12,0,0,1,3.26-.5,10.24,10.24,0,0,1,3.48.57,7.63,7.63,0,0,1,2.74,1.68,7.551,7.551,0,0,1,1.8,2.74,10.26,10.26,0,0,1,.64,3.76v16.12h-.95v-16a9.49,9.49,0,0,0-.61-3.62A6.75,6.75,0,0,0,260,100.3a6.63,6.63,0,0,0-2.46-1.42,9.59,9.59,0,0,0-3-.45,8.46,8.46,0,0,0-3.83.83,8.14,8.14,0,0,0-2.77,2.22,9.73,9.73,0,0,0-1.68,3.24,13.11,13.11,0,0,0-.57,3.88v13.76h-.95V88.59Z" transform="translate(143 118)"/>
    <path id="Path_42" data-name="Path 42" class="cls-7" d="M298.71,122.35V98.05h.95v6h.09a9.39,9.39,0,0,1,1-2.58,7.25,7.25,0,0,1,1.89-2.1A9.26,9.26,0,0,1,305.5,98a11.73,11.73,0,0,1,3.81-.47v.95a9.11,9.11,0,0,0-4.33.69,8.2,8.2,0,0,0-3,2.27,9.51,9.51,0,0,0-1.75,3.33,13.419,13.419,0,0,0-.57,3.88v13.76Z" transform="translate(143 118)"/>
    <path id="Path_43" data-name="Path 43" class="cls-7" d="M311.9,122.35H311V88.59h.95V112l16.78-13.95h1.37l-11.16,9.27,12,15h-1.28L318.19,108l-6.29,5.2Z" transform="translate(143 118)"/>
    <path id="Path_44" data-name="Path 44" class="cls-7" d="M306.13,154.74V132.39H307v5.52h.09a8.649,8.649,0,0,1,1-2.37,6.67,6.67,0,0,1,1.74-1.94,8.52,8.52,0,0,1,2.59-1.31,10.79,10.79,0,0,1,3.5-.44v.87a8.39,8.39,0,0,0-4,.63,7.54,7.54,0,0,0-2.76,2.09,8.75,8.75,0,0,0-1.61,3.07,12.35,12.35,0,0,0-.52,3.57v12.66Z" transform="translate(143 118)"/>
    <path id="Path_45" data-name="Path 45" class="cls-7" d="M322.36,150.39a5.37,5.37,0,0,0,.28,2,2.5,2.5,0,0,0,.72,1,1.88,1.88,0,0,0,1,.41,8.433,8.433,0,0,0,1,.07h1.17a2.46,2.46,0,0,0,.74-.11v.87l-.76.09h-1.37a3.9,3.9,0,0,1-2.59-.89q-1.07-.89-1.07-3.28V133.26H317.4v-.87h4.09v-7h.87v7h5v.87h-5Z" transform="translate(143 118)"/>
    <path id="Path_46" data-name="Path 46" class="cls-7" d="M332.21,124.29v13.95h.09a7.739,7.739,0,0,1,1-2.35,7.41,7.41,0,0,1,4-3.13,9.13,9.13,0,0,1,2.94-.45,9.24,9.24,0,0,1,3.14.51,6.677,6.677,0,0,1,4.09,3.98,9.26,9.26,0,0,1,.58,3.39v14.54h-.85v-14.4a8.56,8.56,0,0,0-.55-3.26,6.09,6.09,0,0,0-1.51-2.22,6,6,0,0,0-2.22-1.28,8.65,8.65,0,0,0-2.67-.41,7.63,7.63,0,0,0-3.46.75,7.34,7.34,0,0,0-2.5,2,8.78,8.78,0,0,0-1.51,2.92,11.83,11.83,0,0,0-.51,3.5v12.41h-.85V124.29Z" transform="translate(143 118)"/>
    <path id="Path_47" data-name="Path 47" class="cls-7" d="M353.11,139.45a11,11,0,0,1,1.9-3.65,9.59,9.59,0,0,1,3.09-2.54,9.51,9.51,0,0,1,8.49,0,9.61,9.61,0,0,1,3.09,2.54,11,11,0,0,1,1.9,3.65,15,15,0,0,1,0,8.66,11,11,0,0,1-1.9,3.65,9.349,9.349,0,0,1-3.09,2.52,9.25,9.25,0,0,1-4.27.94,9.15,9.15,0,0,1-4.22-.94,9.33,9.33,0,0,1-3.09-2.52,11,11,0,0,1-1.9-3.65,15,15,0,0,1,0-8.66Zm.79,8.34a10.2,10.2,0,0,0,1.73,3.39,8.56,8.56,0,0,0,2.84,2.35,8.35,8.35,0,0,0,3.9.87,8.26,8.26,0,0,0,3.86-.87,8.569,8.569,0,0,0,2.84-2.35,10.2,10.2,0,0,0,1.73-3.39,13.88,13.88,0,0,0,.58-4,13.731,13.731,0,0,0-.58-4,10.2,10.2,0,0,0-1.73-3.39,8.81,8.81,0,0,0-2.84-2.37,8.1,8.1,0,0,0-3.86-.9,8.19,8.19,0,0,0-3.9.9,8.8,8.8,0,0,0-2.84,2.37,10.19,10.19,0,0,0-1.73,3.39,13.731,13.731,0,0,0-.58,4A13.881,13.881,0,0,0,353.9,147.79Z" transform="translate(143 118)"/>
    <path id="Path_48" data-name="Path 48" class="cls-7" d="M377.55,132.82v5.42h.09a7.739,7.739,0,0,1,1-2.35,7.41,7.41,0,0,1,4-3.13,9.13,9.13,0,0,1,2.94-.45,9.24,9.24,0,0,1,3.14.51,6.69,6.69,0,0,1,4.09,4,9.26,9.26,0,0,1,.58,3.39v14.54h-.85V140.33a8.56,8.56,0,0,0-.55-3.26,6.089,6.089,0,0,0-1.51-2.22,6,6,0,0,0-2.22-1.28,8.651,8.651,0,0,0-2.67-.41,7.63,7.63,0,0,0-3.45.75,7.34,7.34,0,0,0-2.5,2,8.78,8.78,0,0,0-1.51,2.92,11.828,11.828,0,0,0-.51,3.5v12.41h-.85V132.82Z" transform="translate(143 118)"/>
    <path id="Path_49" data-name="Path 49" class="cls-7" d="M274.63,88.77" transform="translate(143 118)"/>
    <path id="Path_50" data-name="Path 50" class="cls-7" d="M300.68,154.32l1-.06c0-.24-1.56-24-8-40a75.5,75.5,0,0,0-19.25-27.59l-.61.75a74.48,74.48,0,0,1,19,27.21C299.13,130.49,300.67,154.09,300.68,154.32Z" transform="translate(143 118)"/>
    <path id="Path_51" data-name="Path 51" class="cls-7" d="M248,154.65c7.44-6.74,13.06-15.59,17.18-27.07,3.63-10.13,5.7-21,7.69-31.57.55-2.92,1.12-5.93,1.71-8.84l-.95-.19c-.59,2.91-1.16,5.93-1.71,8.85-4,21.28-8.2,43.28-24.57,58.1Z" transform="translate(143 118)"/>
    <rect id="Rectangle_12" data-name="Rectangle 12" class="cls-7" width="0.84" height="0.84" transform="translate(416.602 204.942) rotate(-19.39)"/>
    <path id="Path_52" data-name="Path 52" class="cls-7" d="M274.4,86.69s-.68-.39-.8.28" transform="translate(143 118)"/>
    <line id="Line_5" data-name="Line 5" x2="0.82" transform="translate(261.22 209.76)"/>
    <path id="Path_53" data-name="Path 53" d="M49.37,101.91a5.49,5.49,0,0,0-1.61-2.1,6.65,6.65,0,0,0-2.48-1.21,12.589,12.589,0,0,0-3.19-.38,9.66,9.66,0,0,0-4,.69,6,6,0,0,0-2.18,1.56,4.24,4.24,0,0,0-.9,1.73,6.5,6.5,0,0,0-.19,1.18,4.51,4.51,0,0,0,.73,2.77,4.68,4.68,0,0,0,2,1.49,21,21,0,0,0,2.77.9l3.48.9,2.81.78a9.55,9.55,0,0,1,2.51,1.11,5.76,5.76,0,0,1,1.8,1.8,5.26,5.26,0,0,1,.69,2.84,5.88,5.88,0,0,1-.78,3.12,6.41,6.41,0,0,1-2,2.08,8.74,8.74,0,0,1-2.84,1.16,14.349,14.349,0,0,1-3.14.35q-4.87,0-7.35-2.13t-2.48-6.71h.95q0,4.11,2.29,6t6.6,1.91a12.59,12.59,0,0,0,2.72-.31,8.31,8.31,0,0,0,2.53-1,5.9,5.9,0,0,0,1.87-1.77A4.63,4.63,0,0,0,50.6,116a4.28,4.28,0,0,0-.73-2.6A5.78,5.78,0,0,0,48,111.81a11.121,11.121,0,0,0-2.67-1l-3.1-.81q-1.75-.43-3.07-.8a16.919,16.919,0,0,1-2.36-.85,4.66,4.66,0,0,1-2.22-1.84,6.12,6.12,0,0,1-.71-3.17,5.71,5.71,0,0,1,.43-2.08,5.28,5.28,0,0,1,1.42-2,7.67,7.67,0,0,1,2.55-1.47,11.28,11.28,0,0,1,3.83-.57,10.2,10.2,0,0,1,6.43,1.84Q50.88,101,50.88,105h-.95a7.67,7.67,0,0,0-.56-3.09Z" transform="translate(143 118)"/>
    <path id="Path_54" data-name="Path 54" d="M56.93,88.39v15.46H57a8.59,8.59,0,0,1,1.06-2.6,8.21,8.21,0,0,1,4.42-3.48,10.12,10.12,0,0,1,3.26-.5,10.24,10.24,0,0,1,3.48.57A7.63,7.63,0,0,1,72,99.52a7.55,7.55,0,0,1,1.8,2.74,10.27,10.27,0,0,1,.64,3.76v16.12h-.95v-16a9.49,9.49,0,0,0-.61-3.62,6.75,6.75,0,0,0-1.68-2.46,6.63,6.63,0,0,0-2.46-1.42,9.59,9.59,0,0,0-3-.45,8.46,8.46,0,0,0-3.83.83,8.14,8.14,0,0,0-2.77,2.22,9.73,9.73,0,0,0-1.68,3.24,13.11,13.11,0,0,0-.57,3.88v13.76H56V88.39Z" transform="translate(143 118)"/>
    <path id="Path_55" data-name="Path 55" d="M109.92,122.14V97.84h.95v6H111a9.391,9.391,0,0,1,1-2.58,7.25,7.25,0,0,1,1.89-2.1,9.26,9.26,0,0,1,2.81-1.42,11.73,11.73,0,0,1,3.81-.47v.95a9.11,9.11,0,0,0-4.33.69,8.2,8.2,0,0,0-3,2.27,9.51,9.51,0,0,0-1.75,3.33,13.42,13.42,0,0,0-.57,3.88v13.76Z" transform="translate(143 118)"/>
    <path id="Path_56" data-name="Path 56" d="M123.11,122.14h-.95V88.39h.95v23.4l16.78-13.95h1.37l-11.16,9.27,12,15h-1.28L129.4,107.77l-6.29,5.2Z" transform="translate(143 118)"/>
    <path id="Path_57" data-name="Path 57" d="M117.34,154.54V132.18h.87v5.52h.09a8.64,8.64,0,0,1,1-2.37,6.67,6.67,0,0,1,1.74-1.94,8.531,8.531,0,0,1,2.59-1.31,10.79,10.79,0,0,1,3.5-.44v.87a8.39,8.39,0,0,0-4,.63,7.54,7.54,0,0,0-2.76,2.09,8.75,8.75,0,0,0-1.61,3.07,12.35,12.35,0,0,0-.52,3.57v12.66Z" transform="translate(143 118)"/>
    <path id="Path_58" data-name="Path 58" d="M133.56,150.19a5.37,5.37,0,0,0,.28,2,2.51,2.51,0,0,0,.72,1,1.88,1.88,0,0,0,1,.41,8.43,8.43,0,0,0,1,.07h1.17a2.47,2.47,0,0,0,.74-.11v.87l-.76.09h-1.37a3.9,3.9,0,0,1-2.59-.89q-1.07-.89-1.07-3.28V133h-4.09v-.87h4.09v-7h.87v7h5V133h-5Z" transform="translate(143 118)"/>
    <path id="Path_59" data-name="Path 59" d="M143.42,124.08V138h.09a7.74,7.74,0,0,1,1-2.35,7.41,7.41,0,0,1,4-3.13,9.13,9.13,0,0,1,2.94-.45,9.24,9.24,0,0,1,3.14.51,6.69,6.69,0,0,1,4.09,4,9.26,9.26,0,0,1,.58,3.39v14.54h-.85V140.12a8.56,8.56,0,0,0-.55-3.26,6.09,6.09,0,0,0-1.51-2.22,6,6,0,0,0-2.22-1.28,8.65,8.65,0,0,0-2.67-.41,7.63,7.63,0,0,0-3.45.75,7.34,7.34,0,0,0-2.5,2,8.78,8.78,0,0,0-1.51,2.92,11.831,11.831,0,0,0-.51,3.5v12.41h-.85V124.08Z" transform="translate(143 118)"/>
    <path id="Path_60" data-name="Path 60" d="M164.32,139.25a11,11,0,0,1,1.9-3.65,9.59,9.59,0,0,1,3.09-2.54,9.51,9.51,0,0,1,8.49,0,9.6,9.6,0,0,1,3.09,2.54,11,11,0,0,1,1.9,3.65,15,15,0,0,1,0,8.66,11,11,0,0,1-1.9,3.65,9.35,9.35,0,0,1-3.09,2.52,9.25,9.25,0,0,1-4.27.94,9.15,9.15,0,0,1-4.22-.94,9.34,9.34,0,0,1-3.09-2.52,11,11,0,0,1-1.9-3.65,15,15,0,0,1,0-8.66Zm.79,8.34a10.2,10.2,0,0,0,1.73,3.39,8.56,8.56,0,0,0,2.84,2.35,8.35,8.35,0,0,0,3.9.87,8.26,8.26,0,0,0,3.86-.87,8.57,8.57,0,0,0,2.84-2.35,10.2,10.2,0,0,0,1.73-3.39,13.88,13.88,0,0,0,.58-4,13.729,13.729,0,0,0-.58-4,10.2,10.2,0,0,0-1.73-3.39,8.81,8.81,0,0,0-2.84-2.37,8.1,8.1,0,0,0-3.86-.9,8.19,8.19,0,0,0-3.9.9,8.8,8.8,0,0,0-2.84,2.37,10.2,10.2,0,0,0-1.73,3.39,13.731,13.731,0,0,0-.58,4,13.88,13.88,0,0,0,.58,3.99Z" transform="translate(143 118)"/>
    <path id="Path_61" data-name="Path 61" d="M188.76,132.61V138h.09a7.75,7.75,0,0,1,1-2.35,7.41,7.41,0,0,1,4-3.13,9.13,9.13,0,0,1,2.94-.45,9.24,9.24,0,0,1,3.14.51A6.514,6.514,0,0,1,204,136.6a9.26,9.26,0,0,1,.58,3.39v14.54h-.85V140.12a8.56,8.56,0,0,0-.55-3.26,6.09,6.09,0,0,0-1.51-2.22,6,6,0,0,0-2.22-1.28,8.65,8.65,0,0,0-2.67-.41,7.63,7.63,0,0,0-3.45.75,7.34,7.34,0,0,0-2.5,2,8.77,8.77,0,0,0-1.51,2.92,11.83,11.83,0,0,0-.51,3.5v12.41h-.85V132.61Z" transform="translate(143 118)"/>
    <path id="Path_62" data-name="Path 62" d="M85.84,88.56" transform="translate(143 118)"/>
    <path id="Path_63" data-name="Path 63" d="M111.89,154.11l1-.06c0-.24-1.56-24-8-40A75.5,75.5,0,0,0,85.6,86.5l-.61.75a74.48,74.48,0,0,1,19,27.21C110.33,130.28,111.87,153.88,111.89,154.11Z" transform="translate(143 118)"/>
    <path id="Path_64" data-name="Path 64" d="M59.18,154.44c7.44-6.74,13.06-15.59,17.18-27.07,3.63-10.13,5.7-21,7.69-31.57.55-2.92,1.12-5.93,1.71-8.84l-.95-.19c-.59,2.91-1.16,5.93-1.71,8.85-4,21.28-8.2,43.28-24.57,58.1Z" transform="translate(143 118)"/>
    <path id="Path_65" data-name="Path 65" d="M85.09,87.55l.79-.28-.28-.79-.79.28Z" transform="translate(143 118)"/>
    <path id="Path_66" data-name="Path 66" d="M85.6,86.48s-.68-.39-.8.28" transform="translate(143 118)"/>
    <line id="Line_6" data-name="Line 6" x2="0.82" transform="translate(261.49 398.44)"/>
    <path id="Path_67" data-name="Path 67" d="M49.64,290.58a5.49,5.49,0,0,0-1.61-2.1,6.66,6.66,0,0,0-2.48-1.21,12.589,12.589,0,0,0-3.19-.38,9.66,9.66,0,0,0-4,.69,6,6,0,0,0-2.18,1.56,4.24,4.24,0,0,0-.9,1.73,6.5,6.5,0,0,0-.19,1.18,4.51,4.51,0,0,0,.73,2.77,4.68,4.68,0,0,0,2,1.49,21,21,0,0,0,2.77.9l3.48.9,2.81.78A9.55,9.55,0,0,1,49.33,300a5.76,5.76,0,0,1,1.8,1.8,5.26,5.26,0,0,1,.69,2.84,5.88,5.88,0,0,1-.78,3.12,6.41,6.41,0,0,1-2,2.08A8.739,8.739,0,0,1,46.16,311a14.358,14.358,0,0,1-3.14.35q-4.87,0-7.35-2.13t-2.48-6.71h.95q0,4.11,2.29,6t6.6,1.91a12.6,12.6,0,0,0,2.72-.31,8.31,8.31,0,0,0,2.53-1,5.9,5.9,0,0,0,1.87-1.77,4.63,4.63,0,0,0,.73-2.65,4.28,4.28,0,0,0-.73-2.6,5.78,5.78,0,0,0-1.89-1.63,11.131,11.131,0,0,0-2.67-1l-3.07-.76q-1.75-.43-3.07-.8a16.919,16.919,0,0,1-2.36-.85,4.66,4.66,0,0,1-2.22-1.84,6.12,6.12,0,0,1-.71-3.17,5.71,5.71,0,0,1,.43-2.08A5.28,5.28,0,0,1,36,288a7.67,7.67,0,0,1,2.55-1.47,11.28,11.28,0,0,1,3.83-.57,10.19,10.19,0,0,1,6.43,1.84q2.36,1.84,2.36,5.91h-.95a7.67,7.67,0,0,0-.58-3.13Z" transform="translate(143 118)"/>
    <path id="Path_68" data-name="Path 68" d="M57.2,277.06v15.46h.09a8.59,8.59,0,0,1,1.06-2.6,8.21,8.21,0,0,1,4.42-3.48A10.12,10.12,0,0,1,66,286a10.24,10.24,0,0,1,3.48.57,7.63,7.63,0,0,1,2.74,1.68,7.55,7.55,0,0,1,1.8,2.74,10.27,10.27,0,0,1,.64,3.76v16.12h-.95v-16a9.49,9.49,0,0,0-.61-3.62,6.75,6.75,0,0,0-1.68-2.46A6.63,6.63,0,0,0,69,287.35a9.59,9.59,0,0,0-3-.45,8.459,8.459,0,0,0-3.83.83,8.14,8.14,0,0,0-2.77,2.22,9.73,9.73,0,0,0-1.68,3.24,13.11,13.11,0,0,0-.57,3.88v13.76H56.2V277.06Z" transform="translate(143 118)"/>
    <path id="Path_69" data-name="Path 69" d="M110.19,310.82v-24.3h.95v6h.09a9.39,9.39,0,0,1,1-2.58,7.25,7.25,0,0,1,1.89-2.1,9.261,9.261,0,0,1,2.81-1.42,11.731,11.731,0,0,1,3.81-.47v.95a9.111,9.111,0,0,0-4.33.69,8.2,8.2,0,0,0-3,2.27,9.51,9.51,0,0,0-1.75,3.33,13.42,13.42,0,0,0-.57,3.88v13.76Z" transform="translate(143 118)"/>
    <path id="Path_70" data-name="Path 70" d="M123.38,310.82h-.95V277.06h.95v23.4l16.78-13.95h1.37l-11.16,9.27,12,15h-1.28L129.7,296.41l-6.29,5.2Z" transform="translate(143 118)"/>
    <path id="Path_71" data-name="Path 71" d="M117.61,343.21V320.85h.87v5.52h.09a8.64,8.64,0,0,1,1-2.37,6.67,6.67,0,0,1,1.74-1.94,8.521,8.521,0,0,1,2.59-1.31,10.789,10.789,0,0,1,3.5-.44v.87a8.39,8.39,0,0,0-4,.63,7.54,7.54,0,0,0-2.76,2.09A8.751,8.751,0,0,0,119,327a12.35,12.35,0,0,0-.52,3.57v12.66Z" transform="translate(143 118)"/>
    <path id="Path_72" data-name="Path 72" d="M133.84,338.86a5.37,5.37,0,0,0,.28,2,2.5,2.5,0,0,0,.72,1,1.88,1.88,0,0,0,1,.41,8.43,8.43,0,0,0,1,.07h1.17a2.46,2.46,0,0,0,.74-.11v.87l-.76.09h-1.37a3.9,3.9,0,0,1-2.59-.89Q133,341.43,133,339V321.72h-4.09v-.87H133v-7h.87v7h5v.87h-5Z" transform="translate(143 118)"/>
    <path id="Path_73" data-name="Path 73" d="M143.69,312.76v13.95h.09a7.74,7.74,0,0,1,1-2.35,7.41,7.41,0,0,1,4-3.13,9.129,9.129,0,0,1,2.94-.45,9.24,9.24,0,0,1,3.14.51,6.89,6.89,0,0,1,2.47,1.51,6.82,6.82,0,0,1,1.62,2.47,9.26,9.26,0,0,1,.58,3.39V343.2h-.85V328.8a8.56,8.56,0,0,0-.55-3.26,6.09,6.09,0,0,0-1.51-2.22,6,6,0,0,0-2.22-1.28,8.65,8.65,0,0,0-2.67-.41,7.63,7.63,0,0,0-3.45.75,7.34,7.34,0,0,0-2.5,2,8.78,8.78,0,0,0-1.51,2.92,11.83,11.83,0,0,0-.51,3.5v12.41h-.85V312.76Z" transform="translate(143 118)"/>
    <path id="Path_74" data-name="Path 74" d="M164.59,327.92a11,11,0,0,1,1.9-3.65,9.59,9.59,0,0,1,3.09-2.54,9.51,9.51,0,0,1,8.49,0,9.611,9.611,0,0,1,3.09,2.54,11,11,0,0,1,1.9,3.65,15,15,0,0,1,0,8.66,11,11,0,0,1-1.9,3.65,9.35,9.35,0,0,1-3.09,2.52,9.25,9.25,0,0,1-4.27.94,9.15,9.15,0,0,1-4.22-.94,9.34,9.34,0,0,1-3.09-2.52,11,11,0,0,1-1.9-3.65,15,15,0,0,1,0-8.66Zm.79,8.34a10.2,10.2,0,0,0,1.73,3.39,8.56,8.56,0,0,0,2.84,2.35,8.35,8.35,0,0,0,3.9.87,8.26,8.26,0,0,0,3.86-.87,8.57,8.57,0,0,0,2.84-2.35,10.2,10.2,0,0,0,1.73-3.39,13.88,13.88,0,0,0,.58-4,13.73,13.73,0,0,0-.58-4,10.2,10.2,0,0,0-1.73-3.39,8.81,8.81,0,0,0-2.84-2.37,8.1,8.1,0,0,0-3.86-.9,8.19,8.19,0,0,0-3.9.9,8.8,8.8,0,0,0-2.84,2.37,10.2,10.2,0,0,0-1.73,3.39,13.731,13.731,0,0,0-.58,4,13.88,13.88,0,0,0,.58,4Z" transform="translate(143 118)"/>
    <path id="Path_75" data-name="Path 75" d="M189,321.29v5.42h.09a7.75,7.75,0,0,1,1-2.35,7.41,7.41,0,0,1,4-3.13,9.129,9.129,0,0,1,2.94-.45,9.24,9.24,0,0,1,3.14.51,6.89,6.89,0,0,1,2.47,1.51,6.82,6.82,0,0,1,1.62,2.47,9.26,9.26,0,0,1,.58,3.39V343.2H204V328.8a8.56,8.56,0,0,0-.55-3.26,6.09,6.09,0,0,0-1.51-2.22,6,6,0,0,0-2.22-1.28,8.65,8.65,0,0,0-2.67-.41,7.63,7.63,0,0,0-3.45.75,7.34,7.34,0,0,0-2.5,2,8.781,8.781,0,0,0-1.51,2.92,11.83,11.83,0,0,0-.51,3.5v12.41h-.85V321.29Z" transform="translate(143 118)"/>
    <path id="Path_76" data-name="Path 76" d="M86.11,277.24" transform="translate(143 118)"/>
    <path id="Path_77" data-name="Path 77" d="M112.16,342.79l1-.06c0-.24-1.56-24-8-40a75.49,75.49,0,0,0-19.25-27.59l-.61.75a74.48,74.48,0,0,1,19,27.21C110.61,319,112.14,342.55,112.16,342.79Z" transform="translate(143 118)"/>
    <path id="Path_78" data-name="Path 78" d="M59.45,343.12c7.44-6.74,13.06-15.59,17.18-27.07,3.63-10.13,5.7-21,7.69-31.57.55-2.92,1.12-5.93,1.71-8.84l-.95-.19c-.59,2.91-1.16,5.93-1.71,8.85-4,21.28-8.2,43.28-24.57,58.1Z" transform="translate(143 118)"/>
    <path id="Path_79" data-name="Path 79" d="M85.36,276.23l.79-.28-.28-.8-.79.28Z" transform="translate(143 118)"/>
    <path id="Path_80" data-name="Path 80" d="M85.87,275.15s-.68-.39-.8.28" transform="translate(143 118)"/>
    <line id="Line_7" data-name="Line 7" x2="0.81" transform="translate(450.02 398.44)"/>
    <path id="Path_81" data-name="Path 81" d="M238.16,290.58a5.49,5.49,0,0,0-1.61-2.1,6.66,6.66,0,0,0-2.48-1.21,12.59,12.59,0,0,0-3.19-.38,9.66,9.66,0,0,0-4,.69,6,6,0,0,0-2.18,1.56,4.24,4.24,0,0,0-.9,1.73,6.489,6.489,0,0,0-.19,1.18,4.51,4.51,0,0,0,.73,2.77,4.68,4.68,0,0,0,2,1.49,21,21,0,0,0,2.77.9l3.48.9,2.81.78a9.55,9.55,0,0,1,2.51,1.11,5.76,5.76,0,0,1,1.8,1.8,5.26,5.26,0,0,1,.69,2.84,5.88,5.88,0,0,1-.78,3.12,6.41,6.41,0,0,1-2,2.08,8.741,8.741,0,0,1-2.84,1.16,14.358,14.358,0,0,1-3.14.35q-4.87,0-7.35-2.13t-2.48-6.71h.95q0,4.11,2.29,6t6.6,1.91a12.6,12.6,0,0,0,2.72-.31,8.311,8.311,0,0,0,2.53-1,5.9,5.9,0,0,0,1.87-1.77,4.63,4.63,0,0,0,.73-2.65,4.28,4.28,0,0,0-.73-2.6,5.78,5.78,0,0,0-1.89-1.63,11.131,11.131,0,0,0-2.67-1l-3.07-.76q-1.75-.43-3.07-.8a16.923,16.923,0,0,1-2.36-.85,4.66,4.66,0,0,1-2.22-1.84,6.12,6.12,0,0,1-.71-3.17,5.7,5.7,0,0,1,.43-2.08,5.28,5.28,0,0,1,1.42-2,7.67,7.67,0,0,1,2.55-1.47,11.279,11.279,0,0,1,3.83-.57,10.2,10.2,0,0,1,6.43,1.84q2.36,1.84,2.36,5.91h-.95a7.67,7.67,0,0,0-.69-3.09Z" transform="translate(143 118)"/>
    <path id="Path_82" data-name="Path 82" d="M245.73,277.06v15.46h.09a8.59,8.59,0,0,1,1.06-2.6,8.21,8.21,0,0,1,4.42-3.48,10.12,10.12,0,0,1,3.26-.5,10.24,10.24,0,0,1,3.48.57,7.629,7.629,0,0,1,2.74,1.68,7.55,7.55,0,0,1,1.8,2.74,10.261,10.261,0,0,1,.64,3.76v16.12h-.95v-16a9.49,9.49,0,0,0-.61-3.62,6.749,6.749,0,0,0-1.68-2.46,6.63,6.63,0,0,0-2.46-1.42,9.59,9.59,0,0,0-3-.45,8.46,8.46,0,0,0-3.83.83,8.14,8.14,0,0,0-2.77,2.22,9.73,9.73,0,0,0-1.68,3.24,13.11,13.11,0,0,0-.57,3.88v13.76h-.95V277.06Z" transform="translate(143 118)"/>
    <path id="Path_83" data-name="Path 83" d="M298.71,310.82v-24.3h.95v6h.09a9.39,9.39,0,0,1,1-2.58,7.249,7.249,0,0,1,1.89-2.1,9.26,9.26,0,0,1,2.81-1.42,11.729,11.729,0,0,1,3.81-.47v.95a9.11,9.11,0,0,0-4.33.69,8.2,8.2,0,0,0-3,2.27,9.51,9.51,0,0,0-1.75,3.33,13.418,13.418,0,0,0-.57,3.88v13.76Z" transform="translate(143 118)"/>
    <path id="Path_84" data-name="Path 84" d="M311.9,310.82H311V277.06h.95v23.4l16.78-13.95h1.37l-11.16,9.27,12,15h-1.28l-11.39-14.37-6.29,5.2Z" transform="translate(143 118)"/>
    <path id="Path_85" data-name="Path 85" d="M306.13,343.21V320.85H307v5.52h.09a8.649,8.649,0,0,1,1-2.37,6.67,6.67,0,0,1,1.74-1.94,8.52,8.52,0,0,1,2.59-1.31,10.79,10.79,0,0,1,3.5-.44v.87a8.39,8.39,0,0,0-4,.63,7.54,7.54,0,0,0-2.76,2.09,8.751,8.751,0,0,0-1.61,3.07,12.352,12.352,0,0,0-.52,3.57V343.2Z" transform="translate(143 118)"/>
    <path id="Path_86" data-name="Path 86" d="M322.36,338.86a5.36,5.36,0,0,0,.28,2,2.5,2.5,0,0,0,.72,1,1.88,1.88,0,0,0,1,.41,8.43,8.43,0,0,0,1,.07h1.17a2.459,2.459,0,0,0,.74-.11v.87l-.76.09h-1.37a3.9,3.9,0,0,1-2.59-.89q-1.07-.89-1.07-3.28v-17.3H317.4v-.87h4.09v-7h.87v7h5v.87h-5Z" transform="translate(143 118)"/>
    <path id="Path_87" data-name="Path 87" d="M332.21,312.76v13.95h.09a7.739,7.739,0,0,1,1-2.35,7.41,7.41,0,0,1,4-3.13,9.129,9.129,0,0,1,2.94-.45,9.24,9.24,0,0,1,3.14.51,6.891,6.891,0,0,1,2.47,1.51,6.82,6.82,0,0,1,1.62,2.47,9.26,9.26,0,0,1,.58,3.39V343.2h-.85V328.8a8.56,8.56,0,0,0-.55-3.26,6.09,6.09,0,0,0-1.51-2.22,6,6,0,0,0-2.22-1.28,8.65,8.65,0,0,0-2.67-.41,7.63,7.63,0,0,0-3.46.75,7.34,7.34,0,0,0-2.5,2,8.78,8.78,0,0,0-1.51,2.92,11.83,11.83,0,0,0-.51,3.5v12.41h-.85V312.76Z" transform="translate(143 118)"/>
    <path id="Path_88" data-name="Path 88" d="M353.11,327.92a11,11,0,0,1,1.9-3.65,9.59,9.59,0,0,1,3.09-2.54,9.51,9.51,0,0,1,8.49,0,9.61,9.61,0,0,1,3.09,2.54,11,11,0,0,1,1.9,3.65,15,15,0,0,1,0,8.66,11,11,0,0,1-1.9,3.65,9.35,9.35,0,0,1-3.09,2.52,9.25,9.25,0,0,1-4.27.94,9.15,9.15,0,0,1-4.22-.94,9.329,9.329,0,0,1-3.09-2.52,11,11,0,0,1-1.9-3.65,15,15,0,0,1,0-8.66Zm.79,8.34a10.2,10.2,0,0,0,1.73,3.39,8.561,8.561,0,0,0,2.84,2.35,8.35,8.35,0,0,0,3.9.87,8.26,8.26,0,0,0,3.86-.87,8.57,8.57,0,0,0,2.84-2.35,10.2,10.2,0,0,0,1.73-3.39,13.88,13.88,0,0,0,.58-4,13.731,13.731,0,0,0-.58-4,10.2,10.2,0,0,0-1.73-3.39,8.81,8.81,0,0,0-2.84-2.37,8.1,8.1,0,0,0-3.86-.9,8.191,8.191,0,0,0-3.9.9,8.8,8.8,0,0,0-2.84,2.37,10.2,10.2,0,0,0-1.73,3.39,13.731,13.731,0,0,0-.58,4A13.881,13.881,0,0,0,353.9,336.26Z" transform="translate(143 118)"/>
    <path id="Path_89" data-name="Path 89" d="M377.55,321.29v5.42h.09a7.739,7.739,0,0,1,1-2.35,7.41,7.41,0,0,1,4-3.13,9.128,9.128,0,0,1,2.94-.45,9.24,9.24,0,0,1,3.14.51,6.891,6.891,0,0,1,2.47,1.51,6.82,6.82,0,0,1,1.62,2.47,9.26,9.26,0,0,1,.58,3.39V343.2h-.85V328.8a8.559,8.559,0,0,0-.55-3.26,6.089,6.089,0,0,0-1.51-2.22A6,6,0,0,0,388.2,322a8.648,8.648,0,0,0-2.67-.41,7.63,7.63,0,0,0-3.45.75,7.34,7.34,0,0,0-2.5,2,8.779,8.779,0,0,0-1.51,2.92,11.828,11.828,0,0,0-.51,3.5v12.41h-.85V321.29Z" transform="translate(143 118)"/>
    <path id="Path_90" data-name="Path 90" d="M274.63,277.24" transform="translate(143 118)"/>
    <path id="Path_91" data-name="Path 91" d="M300.68,342.79l1-.06c0-.24-1.56-24-8-40a75.49,75.49,0,0,0-19.25-27.59l-.61.75a74.48,74.48,0,0,1,19,27.21C299.13,319,300.67,342.55,300.68,342.79Z" transform="translate(143 118)"/>
    <path id="Path_92" data-name="Path 92" d="M248,343.12c7.44-6.74,13.06-15.59,17.18-27.07,3.63-10.13,5.7-21,7.69-31.57.55-2.92,1.12-5.93,1.71-8.84l-.95-.19c-.59,2.91-1.16,5.93-1.71,8.85-4,21.28-8.2,43.28-24.57,58.1Z" transform="translate(143 118)"/>
    <path id="Path_93" data-name="Path 93" d="M273.88,276.23l.8-.28-.28-.8-.8.28Z" transform="translate(143 118)"/>
    <path id="Path_94" data-name="Path 94" d="M274.4,275.15s-.68-.39-.8.28" transform="translate(143 118)"/>
    <line id="Line_8" data-name="Line 8" x2="0.81" transform="translate(450.02 209.97)"/>
    <path id="Path_95" data-name="Path 95" d="M238.16,102.12a5.49,5.49,0,0,0-1.61-2.1,6.66,6.66,0,0,0-2.48-1.21,12.591,12.591,0,0,0-3.19-.38,9.66,9.66,0,0,0-4,.69,6,6,0,0,0-2.18,1.56,4.24,4.24,0,0,0-.9,1.73,6.489,6.489,0,0,0-.19,1.18,4.51,4.51,0,0,0,.73,2.77,4.68,4.68,0,0,0,2,1.49,21,21,0,0,0,2.77.9l3.48.9,2.81.78a9.55,9.55,0,0,1,2.51,1.11,5.76,5.76,0,0,1,1.8,1.8,5.26,5.26,0,0,1,.69,2.84,5.88,5.88,0,0,1-.78,3.12,6.41,6.41,0,0,1-2,2.08,8.74,8.74,0,0,1-2.84,1.16,14.359,14.359,0,0,1-3.14.35q-4.87,0-7.35-2.13T221.71,114h.95q0,4.11,2.29,6t6.6,1.91a12.6,12.6,0,0,0,2.72-.31,8.31,8.31,0,0,0,2.53-1,5.9,5.9,0,0,0,1.87-1.77,4.63,4.63,0,0,0,.73-2.65,4.28,4.28,0,0,0-.73-2.6,5.78,5.78,0,0,0-1.89-1.63,11.121,11.121,0,0,0-2.67-1l-3.07-.76q-1.75-.43-3.07-.8a16.929,16.929,0,0,1-2.36-.85,4.66,4.66,0,0,1-2.22-1.84,6.12,6.12,0,0,1-.71-3.17,5.7,5.7,0,0,1,.43-2.08,5.28,5.28,0,0,1,1.42-2,7.67,7.67,0,0,1,2.47-1.4,11.28,11.28,0,0,1,3.83-.57,10.2,10.2,0,0,1,6.43,1.84q2.36,1.84,2.36,5.91h-.95a7.67,7.67,0,0,0-.51-3.11Z" transform="translate(143 118)"/>
    <path id="Path_96" data-name="Path 96" d="M245.73,88.59v15.46h.09a8.59,8.59,0,0,1,1.06-2.6A8.21,8.21,0,0,1,251.3,98a10.12,10.12,0,0,1,3.26-.5,10.24,10.24,0,0,1,3.48.57,7.63,7.63,0,0,1,2.74,1.68,7.551,7.551,0,0,1,1.8,2.74,10.26,10.26,0,0,1,.64,3.76v16.12h-.95v-16a9.49,9.49,0,0,0-.61-3.62A6.75,6.75,0,0,0,260,100.3a6.63,6.63,0,0,0-2.46-1.42,9.59,9.59,0,0,0-3-.45,8.46,8.46,0,0,0-3.83.83,8.14,8.14,0,0,0-2.77,2.22,9.73,9.73,0,0,0-1.68,3.24,13.11,13.11,0,0,0-.57,3.88v13.76h-.95V88.59Z" transform="translate(143 118)"/>
    <path id="Path_97" data-name="Path 97" d="M298.71,122.35V98.05h.95v6h.09a9.39,9.39,0,0,1,1-2.58,7.25,7.25,0,0,1,1.89-2.1A9.26,9.26,0,0,1,305.5,98a11.73,11.73,0,0,1,3.81-.47v.95a9.11,9.11,0,0,0-4.33.69,8.2,8.2,0,0,0-3,2.27,9.51,9.51,0,0,0-1.75,3.33,13.419,13.419,0,0,0-.57,3.88v13.76Z" transform="translate(143 118)"/>
    <path id="Path_98" data-name="Path 98" d="M311.9,122.35H311V88.59h.95V112l16.78-13.95h1.37l-11.16,9.27,12,15h-1.28L318.19,108l-6.29,5.2Z" transform="translate(143 118)"/>
    <path id="Path_99" data-name="Path 99" d="M306.13,154.74V132.39H307v5.52h.09a8.649,8.649,0,0,1,1-2.37,6.67,6.67,0,0,1,1.74-1.94,8.52,8.52,0,0,1,2.59-1.31,10.79,10.79,0,0,1,3.5-.44v.87a8.39,8.39,0,0,0-4,.63,7.54,7.54,0,0,0-2.76,2.09,8.75,8.75,0,0,0-1.61,3.07,12.35,12.35,0,0,0-.52,3.57v12.66Z" transform="translate(143 118)"/>
    <path id="Path_100" data-name="Path 100" d="M322.36,150.39a5.37,5.37,0,0,0,.28,2,2.5,2.5,0,0,0,.72,1,1.88,1.88,0,0,0,1,.41,8.433,8.433,0,0,0,1,.07h1.17a2.46,2.46,0,0,0,.74-.11v.87l-.76.09h-1.37a3.9,3.9,0,0,1-2.59-.89q-1.07-.89-1.07-3.28V133.26H317.4v-.87h4.09v-7h.87v7h5v.87h-5Z" transform="translate(143 118)"/>
    <path id="Path_101" data-name="Path 101" d="M332.21,124.29v13.95h.09a7.739,7.739,0,0,1,1-2.35,7.41,7.41,0,0,1,4-3.13,9.13,9.13,0,0,1,2.94-.45,9.24,9.24,0,0,1,3.14.51,6.677,6.677,0,0,1,4.09,3.98,9.26,9.26,0,0,1,.58,3.39v14.54h-.85v-14.4a8.56,8.56,0,0,0-.55-3.26,6.09,6.09,0,0,0-1.51-2.22,6,6,0,0,0-2.22-1.28,8.65,8.65,0,0,0-2.67-.41,7.63,7.63,0,0,0-3.46.75,7.34,7.34,0,0,0-2.5,2,8.78,8.78,0,0,0-1.51,2.92,11.83,11.83,0,0,0-.51,3.5v12.41h-.85V124.29Z" transform="translate(143 118)"/>
    <path id="Path_102" data-name="Path 102" d="M353.11,139.45a11,11,0,0,1,1.9-3.65,9.59,9.59,0,0,1,3.09-2.54,9.51,9.51,0,0,1,8.49,0,9.61,9.61,0,0,1,3.09,2.54,11,11,0,0,1,1.9,3.65,15,15,0,0,1,0,8.66,11,11,0,0,1-1.9,3.65,9.349,9.349,0,0,1-3.09,2.52,9.25,9.25,0,0,1-4.27.94,9.15,9.15,0,0,1-4.22-.94,9.33,9.33,0,0,1-3.09-2.52,11,11,0,0,1-1.9-3.65,15,15,0,0,1,0-8.66Zm.79,8.34a10.2,10.2,0,0,0,1.73,3.39,8.56,8.56,0,0,0,2.84,2.35,8.35,8.35,0,0,0,3.9.87,8.26,8.26,0,0,0,3.86-.87,8.569,8.569,0,0,0,2.84-2.35,10.2,10.2,0,0,0,1.73-3.39,13.88,13.88,0,0,0,.58-4,13.731,13.731,0,0,0-.58-4,10.2,10.2,0,0,0-1.73-3.39,8.81,8.81,0,0,0-2.84-2.37,8.1,8.1,0,0,0-3.86-.9,8.19,8.19,0,0,0-3.9.9,8.8,8.8,0,0,0-2.84,2.37,10.19,10.19,0,0,0-1.73,3.39,13.731,13.731,0,0,0-.58,4A13.881,13.881,0,0,0,353.9,147.79Z" transform="translate(143 118)"/>
    <path id="Path_103" data-name="Path 103" d="M377.55,132.82v5.42h.09a7.739,7.739,0,0,1,1-2.35,7.41,7.41,0,0,1,4-3.13,9.13,9.13,0,0,1,2.94-.45,9.24,9.24,0,0,1,3.14.51,6.69,6.69,0,0,1,4.09,4,9.26,9.26,0,0,1,.58,3.39v14.54h-.85V140.33a8.56,8.56,0,0,0-.55-3.26,6.089,6.089,0,0,0-1.51-2.22,6,6,0,0,0-2.22-1.28,8.651,8.651,0,0,0-2.67-.41,7.63,7.63,0,0,0-3.45.75,7.34,7.34,0,0,0-2.5,2,8.78,8.78,0,0,0-1.51,2.92,11.828,11.828,0,0,0-.51,3.5v12.41h-.85V132.82Z" transform="translate(143 118)"/>
    <path id="Path_104" data-name="Path 104" d="M274.63,88.77" transform="translate(143 118)"/>
    <path id="Path_105" data-name="Path 105" d="M300.68,154.32l1-.06c0-.24-1.56-24-8-40a75.5,75.5,0,0,0-19.25-27.59l-.61.75a74.48,74.48,0,0,1,19,27.21C299.13,130.49,300.67,154.09,300.68,154.32Z" transform="translate(143 118)"/>
    <path id="Path_106" data-name="Path 106" d="M248,154.65c7.44-6.74,13.06-15.59,17.18-27.07,3.63-10.13,5.7-21,7.69-31.57.55-2.92,1.12-5.93,1.71-8.84l-.95-.19c-.59,2.91-1.16,5.93-1.71,8.85-4,21.28-8.2,43.28-24.57,58.1Z" transform="translate(143 118)"/>
    <path id="Path_107" data-name="Path 107" d="M273.88,87.76l.8-.28-.28-.79-.8.28Z" transform="translate(143 118)"/>
    <path id="Path_108" data-name="Path 108" d="M274.4,86.69s-.68-.39-.8.28" transform="translate(143 118)"/>
    <rect id="Rectangle_17" data-name="Rectangle 17" class="cls-2" width="188.52" height="188.52" transform="translate(171.47 143.42)"/>
    <rect id="Rectangle_18" data-name="Rectangle 18" class="cls-3" width="188.52" height="188.52" transform="translate(171.74 332.1)"/>
    <rect id="Rectangle_19" data-name="Rectangle 19" class="cls-4" width="188.52" height="188.52" transform="translate(357.26 143.63)"/>
    <path id="Path_161" data-name="Path 161" class="cls-5" d="M0,0H188.52V188.52H0Z" transform="translate(357.26 332.1)"/>
    <path id="Path_109" data-name="Path 109" d="M49.37,101.91a5.49,5.49,0,0,0-1.61-2.1,6.65,6.65,0,0,0-2.48-1.21,12.589,12.589,0,0,0-3.19-.38,9.66,9.66,0,0,0-4,.69,6,6,0,0,0-2.18,1.56,4.24,4.24,0,0,0-.9,1.73,6.5,6.5,0,0,0-.19,1.18,4.51,4.51,0,0,0,.73,2.77,4.68,4.68,0,0,0,2,1.49,21,21,0,0,0,2.77.9l3.48.9,2.81.78a9.55,9.55,0,0,1,2.51,1.11,5.76,5.76,0,0,1,1.8,1.8,5.26,5.26,0,0,1,.69,2.84,5.88,5.88,0,0,1-.78,3.12,6.41,6.41,0,0,1-2,2.08,8.74,8.74,0,0,1-2.84,1.16,14.349,14.349,0,0,1-3.14.35q-4.87,0-7.35-2.13t-2.48-6.71h.95q0,4.11,2.29,6t6.6,1.91a12.59,12.59,0,0,0,2.72-.31,8.31,8.31,0,0,0,2.53-1,5.9,5.9,0,0,0,1.87-1.77A4.63,4.63,0,0,0,50.6,116a4.28,4.28,0,0,0-.73-2.6A5.78,5.78,0,0,0,48,111.81a11.121,11.121,0,0,0-2.67-1l-3.1-.81q-1.75-.43-3.07-.8a16.919,16.919,0,0,1-2.36-.85,4.66,4.66,0,0,1-2.22-1.84,6.12,6.12,0,0,1-.71-3.17,5.71,5.71,0,0,1,.43-2.08,5.28,5.28,0,0,1,1.42-2,7.67,7.67,0,0,1,2.55-1.47,11.28,11.28,0,0,1,3.83-.57,10.2,10.2,0,0,1,6.43,1.84Q50.88,101,50.88,105h-.95a7.67,7.67,0,0,0-.56-3.09Z" transform="translate(143 118)"/>
    <path id="Path_110" data-name="Path 110" d="M56.93,88.39v15.46H57a8.59,8.59,0,0,1,1.06-2.6,8.21,8.21,0,0,1,4.42-3.48,10.12,10.12,0,0,1,3.26-.5,10.24,10.24,0,0,1,3.48.57A7.63,7.63,0,0,1,72,99.52a7.55,7.55,0,0,1,1.8,2.74,10.27,10.27,0,0,1,.64,3.76v16.12h-.95v-16a9.49,9.49,0,0,0-.61-3.62,6.75,6.75,0,0,0-1.68-2.46,6.63,6.63,0,0,0-2.46-1.42,9.59,9.59,0,0,0-3-.45,8.46,8.46,0,0,0-3.83.83,8.14,8.14,0,0,0-2.77,2.22,9.73,9.73,0,0,0-1.68,3.24,13.11,13.11,0,0,0-.57,3.88v13.76H56V88.39Z" transform="translate(143 118)"/>
    <path id="Path_111" data-name="Path 111" d="M109.92,122.14V97.84h.95v6H111a9.391,9.391,0,0,1,1-2.58,7.25,7.25,0,0,1,1.89-2.1,9.26,9.26,0,0,1,2.81-1.42,11.73,11.73,0,0,1,3.81-.47v.95a9.11,9.11,0,0,0-4.33.69,8.2,8.2,0,0,0-3,2.27,9.51,9.51,0,0,0-1.75,3.33,13.42,13.42,0,0,0-.57,3.88v13.76Z" transform="translate(143 118)"/>
    <path id="Path_112" data-name="Path 112" d="M123.11,122.14h-.95V88.39h.95v23.4l16.78-13.95h1.37l-11.16,9.27,12,15h-1.28L129.4,107.77l-6.29,5.2Z" transform="translate(143 118)"/>
    <path id="Path_113" data-name="Path 113" d="M117.34,154.54V132.18h.87v5.52h.09a8.64,8.64,0,0,1,1-2.37,6.67,6.67,0,0,1,1.74-1.94,8.531,8.531,0,0,1,2.59-1.31,10.79,10.79,0,0,1,3.5-.44v.87a8.39,8.39,0,0,0-4,.63,7.54,7.54,0,0,0-2.76,2.09,8.75,8.75,0,0,0-1.61,3.07,12.35,12.35,0,0,0-.52,3.57v12.66Z" transform="translate(143 118)"/>
    <path id="Path_114" data-name="Path 114" d="M133.56,150.19a5.37,5.37,0,0,0,.28,2,2.51,2.51,0,0,0,.72,1,1.88,1.88,0,0,0,1,.41,8.43,8.43,0,0,0,1,.07h1.17a2.47,2.47,0,0,0,.74-.11v.87l-.76.09h-1.37a3.9,3.9,0,0,1-2.59-.89q-1.07-.89-1.07-3.28V133h-4.09v-.87h4.09v-7h.87v7h5V133h-5Z" transform="translate(143 118)"/>
    <path id="Path_115" data-name="Path 115" d="M143.42,124.08V138h.09a7.74,7.74,0,0,1,1-2.35,7.41,7.41,0,0,1,4-3.13,9.13,9.13,0,0,1,2.94-.45,9.24,9.24,0,0,1,3.14.51,6.69,6.69,0,0,1,4.09,4,9.26,9.26,0,0,1,.58,3.39v14.54h-.85V140.12a8.56,8.56,0,0,0-.55-3.26,6.09,6.09,0,0,0-1.51-2.22,6,6,0,0,0-2.22-1.28,8.65,8.65,0,0,0-2.67-.41,7.63,7.63,0,0,0-3.45.75,7.34,7.34,0,0,0-2.5,2,8.78,8.78,0,0,0-1.51,2.92,11.831,11.831,0,0,0-.51,3.5v12.41h-.85V124.08Z" transform="translate(143 118)"/>
    <path id="Path_116" data-name="Path 116" d="M164.32,139.25a11,11,0,0,1,1.9-3.65,9.59,9.59,0,0,1,3.09-2.54,9.51,9.51,0,0,1,8.49,0,9.6,9.6,0,0,1,3.09,2.54,11,11,0,0,1,1.9,3.65,15,15,0,0,1,0,8.66,11,11,0,0,1-1.9,3.65,9.35,9.35,0,0,1-3.09,2.52,9.25,9.25,0,0,1-4.27.94,9.15,9.15,0,0,1-4.22-.94,9.34,9.34,0,0,1-3.09-2.52,11,11,0,0,1-1.9-3.65,15,15,0,0,1,0-8.66Zm.79,8.34a10.2,10.2,0,0,0,1.73,3.39,8.56,8.56,0,0,0,2.84,2.35,8.35,8.35,0,0,0,3.9.87,8.26,8.26,0,0,0,3.86-.87,8.57,8.57,0,0,0,2.84-2.35,10.2,10.2,0,0,0,1.73-3.39,13.88,13.88,0,0,0,.58-4,13.729,13.729,0,0,0-.58-4,10.2,10.2,0,0,0-1.73-3.39,8.81,8.81,0,0,0-2.84-2.37,8.1,8.1,0,0,0-3.86-.9,8.19,8.19,0,0,0-3.9.9,8.8,8.8,0,0,0-2.84,2.37,10.2,10.2,0,0,0-1.73,3.39,13.731,13.731,0,0,0-.58,4,13.88,13.88,0,0,0,.58,3.99Z" transform="translate(143 118)"/>
    <path id="Path_117" data-name="Path 117" d="M188.76,132.61V138h.09a7.75,7.75,0,0,1,1-2.35,7.41,7.41,0,0,1,4-3.13,9.13,9.13,0,0,1,2.94-.45,9.24,9.24,0,0,1,3.14.51A6.514,6.514,0,0,1,204,136.6a9.26,9.26,0,0,1,.58,3.39v14.54h-.85V140.12a8.56,8.56,0,0,0-.55-3.26,6.09,6.09,0,0,0-1.51-2.22,6,6,0,0,0-2.22-1.28,8.65,8.65,0,0,0-2.67-.41,7.63,7.63,0,0,0-3.45.75,7.34,7.34,0,0,0-2.5,2,8.77,8.77,0,0,0-1.51,2.92,11.83,11.83,0,0,0-.51,3.5v12.41h-.85V132.61Z" transform="translate(143 118)"/>
    <path id="Path_118" data-name="Path 118" d="M85.84,88.56" transform="translate(143 118)"/>
    <path id="Path_119" data-name="Path 119" d="M111.89,154.11l1-.06c0-.24-1.56-24-8-40A75.5,75.5,0,0,0,85.6,86.5l-.61.75a74.48,74.48,0,0,1,19,27.21C110.33,130.28,111.87,153.88,111.89,154.11Z" transform="translate(143 118)"/>
    <path id="Path_120" data-name="Path 120" d="M59.18,154.44c7.44-6.74,13.06-15.59,17.18-27.07,3.63-10.13,5.7-21,7.69-31.57.55-2.92,1.12-5.93,1.71-8.84l-.95-.19c-.59,2.91-1.16,5.93-1.71,8.85-4,21.28-8.2,43.28-24.57,58.1Z" transform="translate(143 118)"/>
    <rect id="Rectangle_21" data-name="Rectangle 21" width="0.84" height="0.84" transform="translate(227.801 204.755) rotate(-19.39)"/>
    <path id="Path_121" data-name="Path 121" d="M85.6,86.48s-.68-.39-.8.28" transform="translate(143 118)"/>
    <line id="Line_9" data-name="Line 9" class="cls-8" x2="0.82" transform="translate(261.49 398.44)"/>
    <path id="Path_122" data-name="Path 122" class="cls-8" d="M49.64,290.58a5.49,5.49,0,0,0-1.61-2.1,6.66,6.66,0,0,0-2.48-1.21,12.589,12.589,0,0,0-3.19-.38,9.66,9.66,0,0,0-4,.69,6,6,0,0,0-2.18,1.56,4.24,4.24,0,0,0-.9,1.73,6.5,6.5,0,0,0-.19,1.18,4.51,4.51,0,0,0,.73,2.77,4.68,4.68,0,0,0,2,1.49,21,21,0,0,0,2.77.9l3.48.9,2.81.78A9.55,9.55,0,0,1,49.33,300a5.76,5.76,0,0,1,1.8,1.8,5.26,5.26,0,0,1,.69,2.84,5.88,5.88,0,0,1-.78,3.12,6.41,6.41,0,0,1-2,2.08A8.739,8.739,0,0,1,46.16,311a14.358,14.358,0,0,1-3.14.35q-4.87,0-7.35-2.13t-2.48-6.71h.95q0,4.11,2.29,6t6.6,1.91a12.6,12.6,0,0,0,2.72-.31,8.31,8.31,0,0,0,2.53-1,5.9,5.9,0,0,0,1.87-1.77,4.63,4.63,0,0,0,.73-2.65,4.28,4.28,0,0,0-.73-2.6,5.78,5.78,0,0,0-1.89-1.63,11.131,11.131,0,0,0-2.67-1l-3.07-.76q-1.75-.43-3.07-.8a16.919,16.919,0,0,1-2.36-.85,4.66,4.66,0,0,1-2.22-1.84,6.12,6.12,0,0,1-.71-3.17,5.71,5.71,0,0,1,.43-2.08A5.28,5.28,0,0,1,36,288a7.67,7.67,0,0,1,2.55-1.47,11.28,11.28,0,0,1,3.83-.57,10.19,10.19,0,0,1,6.43,1.84q2.36,1.84,2.36,5.91h-.95a7.67,7.67,0,0,0-.58-3.13Z" transform="translate(143 118)"/>
    <path id="Path_123" data-name="Path 123" class="cls-8" d="M57.2,277.06v15.46h.09a8.59,8.59,0,0,1,1.06-2.6,8.21,8.21,0,0,1,4.42-3.48A10.12,10.12,0,0,1,66,286a10.24,10.24,0,0,1,3.48.57,7.63,7.63,0,0,1,2.74,1.68,7.55,7.55,0,0,1,1.8,2.74,10.27,10.27,0,0,1,.64,3.76v16.12h-.95v-16a9.49,9.49,0,0,0-.61-3.62,6.75,6.75,0,0,0-1.68-2.46A6.63,6.63,0,0,0,69,287.35a9.59,9.59,0,0,0-3-.45,8.459,8.459,0,0,0-3.83.83,8.14,8.14,0,0,0-2.77,2.22,9.73,9.73,0,0,0-1.68,3.24,13.11,13.11,0,0,0-.57,3.88v13.76H56.2V277.06Z" transform="translate(143 118)"/>
    <path id="Path_124" data-name="Path 124" class="cls-8" d="M110.19,310.82v-24.3h.95v6h.09a9.39,9.39,0,0,1,1-2.58,7.25,7.25,0,0,1,1.89-2.1,9.261,9.261,0,0,1,2.81-1.42,11.731,11.731,0,0,1,3.81-.47v.95a9.111,9.111,0,0,0-4.33.69,8.2,8.2,0,0,0-3,2.27,9.51,9.51,0,0,0-1.75,3.33,13.42,13.42,0,0,0-.57,3.88v13.76Z" transform="translate(143 118)"/>
    <path id="Path_125" data-name="Path 125" class="cls-8" d="M123.38,310.82h-.95V277.06h.95v23.4l16.78-13.95h1.37l-11.16,9.27,12,15h-1.28L129.7,296.41l-6.29,5.2Z" transform="translate(143 118)"/>
    <path id="Path_126" data-name="Path 126" class="cls-8" d="M117.61,343.21V320.85h.87v5.52h.09a8.64,8.64,0,0,1,1-2.37,6.67,6.67,0,0,1,1.74-1.94,8.521,8.521,0,0,1,2.59-1.31,10.789,10.789,0,0,1,3.5-.44v.87a8.39,8.39,0,0,0-4,.63,7.54,7.54,0,0,0-2.76,2.09A8.751,8.751,0,0,0,119,327a12.35,12.35,0,0,0-.52,3.57v12.66Z" transform="translate(143 118)"/>
    <path id="Path_127" data-name="Path 127" class="cls-8" d="M133.84,338.86a5.37,5.37,0,0,0,.28,2,2.5,2.5,0,0,0,.72,1,1.88,1.88,0,0,0,1,.41,8.43,8.43,0,0,0,1,.07h1.17a2.46,2.46,0,0,0,.74-.11v.87l-.76.09h-1.37a3.9,3.9,0,0,1-2.59-.89Q133,341.43,133,339V321.72h-4.09v-.87H133v-7h.87v7h5v.87h-5Z" transform="translate(143 118)"/>
    <path id="Path_128" data-name="Path 128" class="cls-8" d="M143.69,312.76v13.95h.09a7.74,7.74,0,0,1,1-2.35,7.41,7.41,0,0,1,4-3.13,9.129,9.129,0,0,1,2.94-.45,9.24,9.24,0,0,1,3.14.51,6.89,6.89,0,0,1,2.47,1.51,6.82,6.82,0,0,1,1.62,2.47,9.26,9.26,0,0,1,.58,3.39V343.2h-.85V328.8a8.56,8.56,0,0,0-.55-3.26,6.09,6.09,0,0,0-1.51-2.22,6,6,0,0,0-2.22-1.28,8.65,8.65,0,0,0-2.67-.41,7.63,7.63,0,0,0-3.45.75,7.34,7.34,0,0,0-2.5,2,8.78,8.78,0,0,0-1.51,2.92,11.83,11.83,0,0,0-.51,3.5v12.41h-.85V312.76Z" transform="translate(143 118)"/>
    <path id="Path_129" data-name="Path 129" class="cls-8" d="M164.59,327.92a11,11,0,0,1,1.9-3.65,9.59,9.59,0,0,1,3.09-2.54,9.51,9.51,0,0,1,8.49,0,9.611,9.611,0,0,1,3.09,2.54,11,11,0,0,1,1.9,3.65,15,15,0,0,1,0,8.66,11,11,0,0,1-1.9,3.65,9.35,9.35,0,0,1-3.09,2.52,9.25,9.25,0,0,1-4.27.94,9.15,9.15,0,0,1-4.22-.94,9.34,9.34,0,0,1-3.09-2.52,11,11,0,0,1-1.9-3.65,15,15,0,0,1,0-8.66Zm.79,8.34a10.2,10.2,0,0,0,1.73,3.39,8.56,8.56,0,0,0,2.84,2.35,8.35,8.35,0,0,0,3.9.87,8.26,8.26,0,0,0,3.86-.87,8.57,8.57,0,0,0,2.84-2.35,10.2,10.2,0,0,0,1.73-3.39,13.88,13.88,0,0,0,.58-4,13.73,13.73,0,0,0-.58-4,10.2,10.2,0,0,0-1.73-3.39,8.81,8.81,0,0,0-2.84-2.37,8.1,8.1,0,0,0-3.86-.9,8.19,8.19,0,0,0-3.9.9,8.8,8.8,0,0,0-2.84,2.37,10.2,10.2,0,0,0-1.73,3.39,13.731,13.731,0,0,0-.58,4,13.88,13.88,0,0,0,.58,4Z" transform="translate(143 118)"/>
    <path id="Path_130" data-name="Path 130" class="cls-8" d="M189,321.29v5.42h.09a7.75,7.75,0,0,1,1-2.35,7.41,7.41,0,0,1,4-3.13,9.129,9.129,0,0,1,2.94-.45,9.24,9.24,0,0,1,3.14.51,6.89,6.89,0,0,1,2.47,1.51,6.82,6.82,0,0,1,1.62,2.47,9.26,9.26,0,0,1,.58,3.39V343.2H204V328.8a8.56,8.56,0,0,0-.55-3.26,6.09,6.09,0,0,0-1.51-2.22,6,6,0,0,0-2.22-1.28,8.65,8.65,0,0,0-2.67-.41,7.63,7.63,0,0,0-3.45.75,7.34,7.34,0,0,0-2.5,2,8.781,8.781,0,0,0-1.51,2.92,11.83,11.83,0,0,0-.51,3.5v12.41h-.85V321.29Z" transform="translate(143 118)"/>
    <path id="Path_131" data-name="Path 131" class="cls-8" d="M86.11,277.24" transform="translate(143 118)"/>
    <path id="Path_132" data-name="Path 132" class="cls-8" d="M112.16,342.79l1-.06c0-.24-1.56-24-8-40a75.49,75.49,0,0,0-19.25-27.59l-.61.75a74.48,74.48,0,0,1,19,27.21C110.61,319,112.14,342.55,112.16,342.79Z" transform="translate(143 118)"/>
    <path id="Path_133" data-name="Path 133" class="cls-8" d="M59.45,343.12c7.44-6.74,13.06-15.59,17.18-27.07,3.63-10.13,5.7-21,7.69-31.57.55-2.92,1.12-5.93,1.71-8.84l-.95-.19c-.59,2.91-1.16,5.93-1.71,8.85-4,21.28-8.2,43.28-24.57,58.1Z" transform="translate(143 118)"/>
    <rect id="Rectangle_22" data-name="Rectangle 22" class="cls-8" width="0.84" height="0.84" transform="matrix(0.943, -0.332, 0.332, 0.943, 228.066, 393.445)"/>
    <path id="Path_134" data-name="Path 134" class="cls-8" d="M85.87,275.15s-.68-.39-.8.28" transform="translate(143 118)"/>
    <path id="Path_135" data-name="Path 135" d="M238.16,290.58a5.49,5.49,0,0,0-1.61-2.1,6.66,6.66,0,0,0-2.48-1.21,12.59,12.59,0,0,0-3.19-.38,9.66,9.66,0,0,0-4,.69,6,6,0,0,0-2.18,1.56,4.24,4.24,0,0,0-.9,1.73,6.489,6.489,0,0,0-.19,1.18,4.51,4.51,0,0,0,.73,2.77,4.68,4.68,0,0,0,2,1.49,21,21,0,0,0,2.77.9l3.48.9,2.81.78a9.55,9.55,0,0,1,2.51,1.11,5.76,5.76,0,0,1,1.8,1.8,5.26,5.26,0,0,1,.69,2.84,5.88,5.88,0,0,1-.78,3.12,6.41,6.41,0,0,1-2,2.08,8.741,8.741,0,0,1-2.84,1.16,14.358,14.358,0,0,1-3.14.35q-4.87,0-7.35-2.13t-2.48-6.71h.95q0,4.11,2.29,6t6.6,1.91a12.6,12.6,0,0,0,2.72-.31,8.311,8.311,0,0,0,2.53-1,5.9,5.9,0,0,0,1.87-1.77,4.63,4.63,0,0,0,.73-2.65,4.28,4.28,0,0,0-.73-2.6,5.78,5.78,0,0,0-1.89-1.63,11.131,11.131,0,0,0-2.67-1l-3.07-.76q-1.75-.43-3.07-.8a16.923,16.923,0,0,1-2.36-.85,4.66,4.66,0,0,1-2.22-1.84,6.12,6.12,0,0,1-.71-3.17,5.7,5.7,0,0,1,.43-2.08,5.28,5.28,0,0,1,1.42-2,7.67,7.67,0,0,1,2.55-1.47,11.279,11.279,0,0,1,3.83-.57,10.2,10.2,0,0,1,6.43,1.84q2.36,1.84,2.36,5.91h-.95a7.67,7.67,0,0,0-.69-3.09Z" transform="translate(143 118)"/>
    <path id="Path_136" data-name="Path 136" d="M245.73,277.06v15.46h.09a8.59,8.59,0,0,1,1.06-2.6,8.21,8.21,0,0,1,4.42-3.48,10.12,10.12,0,0,1,3.26-.5,10.24,10.24,0,0,1,3.48.57,7.629,7.629,0,0,1,2.74,1.68,7.55,7.55,0,0,1,1.8,2.74,10.261,10.261,0,0,1,.64,3.76v16.12h-.95v-16a9.49,9.49,0,0,0-.61-3.62,6.749,6.749,0,0,0-1.68-2.46,6.63,6.63,0,0,0-2.46-1.42,9.59,9.59,0,0,0-3-.45,8.46,8.46,0,0,0-3.83.83,8.14,8.14,0,0,0-2.77,2.22,9.73,9.73,0,0,0-1.68,3.24,13.11,13.11,0,0,0-.57,3.88v13.76h-.95V277.06Z" transform="translate(143 118)"/>
    <path id="Path_137" data-name="Path 137" d="M298.71,310.82v-24.3h.95v6h.09a9.39,9.39,0,0,1,1-2.58,7.249,7.249,0,0,1,1.89-2.1,9.26,9.26,0,0,1,2.81-1.42,11.729,11.729,0,0,1,3.81-.47v.95a9.11,9.11,0,0,0-4.33.69,8.2,8.2,0,0,0-3,2.27,9.51,9.51,0,0,0-1.75,3.33,13.418,13.418,0,0,0-.57,3.88v13.76Z" transform="translate(143 118)"/>
    <path id="Path_138" data-name="Path 138" d="M311.9,310.82H311V277.06h.95v23.4l16.78-13.95h1.37l-11.16,9.27,12,15h-1.28l-11.39-14.37-6.29,5.2Z" transform="translate(143 118)"/>
    <path id="Path_139" data-name="Path 139" d="M306.13,343.21V320.85H307v5.52h.09a8.649,8.649,0,0,1,1-2.37,6.67,6.67,0,0,1,1.74-1.94,8.52,8.52,0,0,1,2.59-1.31,10.79,10.79,0,0,1,3.5-.44v.87a8.39,8.39,0,0,0-4,.63,7.54,7.54,0,0,0-2.76,2.09,8.751,8.751,0,0,0-1.61,3.07,12.352,12.352,0,0,0-.52,3.57V343.2Z" transform="translate(143 118)"/>
    <path id="Path_140" data-name="Path 140" d="M322.36,338.86a5.36,5.36,0,0,0,.28,2,2.5,2.5,0,0,0,.72,1,1.88,1.88,0,0,0,1,.41,8.43,8.43,0,0,0,1,.07h1.17a2.459,2.459,0,0,0,.74-.11v.87l-.76.09h-1.37a3.9,3.9,0,0,1-2.59-.89q-1.07-.89-1.07-3.28v-17.3H317.4v-.87h4.09v-7h.87v7h5v.87h-5Z" transform="translate(143 118)"/>
    <path id="Path_141" data-name="Path 141" d="M332.21,312.76v13.95h.09a7.739,7.739,0,0,1,1-2.35,7.41,7.41,0,0,1,4-3.13,9.129,9.129,0,0,1,2.94-.45,9.24,9.24,0,0,1,3.14.51,6.891,6.891,0,0,1,2.47,1.51,6.82,6.82,0,0,1,1.62,2.47,9.26,9.26,0,0,1,.58,3.39V343.2h-.85V328.8a8.56,8.56,0,0,0-.55-3.26,6.09,6.09,0,0,0-1.51-2.22,6,6,0,0,0-2.22-1.28,8.65,8.65,0,0,0-2.67-.41,7.63,7.63,0,0,0-3.46.75,7.34,7.34,0,0,0-2.5,2,8.78,8.78,0,0,0-1.51,2.92,11.83,11.83,0,0,0-.51,3.5v12.41h-.85V312.76Z" transform="translate(143 118)"/>
    <path id="Path_142" data-name="Path 142" d="M353.11,327.92a11,11,0,0,1,1.9-3.65,9.59,9.59,0,0,1,3.09-2.54,9.51,9.51,0,0,1,8.49,0,9.61,9.61,0,0,1,3.09,2.54,11,11,0,0,1,1.9,3.65,15,15,0,0,1,0,8.66,11,11,0,0,1-1.9,3.65,9.35,9.35,0,0,1-3.09,2.52,9.25,9.25,0,0,1-4.27.94,9.15,9.15,0,0,1-4.22-.94,9.329,9.329,0,0,1-3.09-2.52,11,11,0,0,1-1.9-3.65,15,15,0,0,1,0-8.66Zm.79,8.34a10.2,10.2,0,0,0,1.73,3.39,8.561,8.561,0,0,0,2.84,2.35,8.35,8.35,0,0,0,3.9.87,8.26,8.26,0,0,0,3.86-.87,8.57,8.57,0,0,0,2.84-2.35,10.2,10.2,0,0,0,1.73-3.39,13.88,13.88,0,0,0,.58-4,13.731,13.731,0,0,0-.58-4,10.2,10.2,0,0,0-1.73-3.39,8.81,8.81,0,0,0-2.84-2.37,8.1,8.1,0,0,0-3.86-.9,8.191,8.191,0,0,0-3.9.9,8.8,8.8,0,0,0-2.84,2.37,10.2,10.2,0,0,0-1.73,3.39,13.731,13.731,0,0,0-.58,4A13.881,13.881,0,0,0,353.9,336.26Z" transform="translate(143 118)"/>
    <path id="Path_143" data-name="Path 143" d="M377.55,321.29v5.42h.09a7.739,7.739,0,0,1,1-2.35,7.41,7.41,0,0,1,4-3.13,9.128,9.128,0,0,1,2.94-.45,9.24,9.24,0,0,1,3.14.51,6.891,6.891,0,0,1,2.47,1.51,6.82,6.82,0,0,1,1.62,2.47,9.26,9.26,0,0,1,.58,3.39V343.2h-.85V328.8a8.559,8.559,0,0,0-.55-3.26,6.089,6.089,0,0,0-1.51-2.22A6,6,0,0,0,388.2,322a8.648,8.648,0,0,0-2.67-.41,7.63,7.63,0,0,0-3.45.75,7.34,7.34,0,0,0-2.5,2,8.779,8.779,0,0,0-1.51,2.92,11.828,11.828,0,0,0-.51,3.5v12.41h-.85V321.29Z" transform="translate(143 118)"/>
    <path id="Path_144" data-name="Path 144" d="M274.63,277.24" transform="translate(143 118)"/>
    <path id="Path_145" data-name="Path 145" d="M300.68,342.79l1-.06c0-.24-1.56-24-8-40a75.49,75.49,0,0,0-19.25-27.59l-.61.75a74.48,74.48,0,0,1,19,27.21C299.13,319,300.67,342.55,300.68,342.79Z" transform="translate(143 118)"/>
    <path id="Path_146" data-name="Path 146" d="M248,343.12c7.44-6.74,13.06-15.59,17.18-27.07,3.63-10.13,5.7-21,7.69-31.57.55-2.92,1.12-5.93,1.71-8.84l-.95-.19c-.59,2.91-1.16,5.93-1.71,8.85-4,21.28-8.2,43.28-24.57,58.1Z" transform="translate(143 118)"/>
    <rect id="Rectangle_23" data-name="Rectangle 23" width="0.84" height="0.84" transform="matrix(0.943, -0.332, 0.332, 0.943, 416.604, 393.435)"/>
    <path id="Path_147" data-name="Path 147" d="M274.4,275.15s-.68-.39-.8.28" transform="translate(143 118)"/>
    <line id="Line_10" data-name="Line 10" class="cls-8" x2="0.81" transform="translate(450.02 209.97)"/>
    <path id="Path_148" data-name="Path 148" class="cls-8" d="M238.16,102.12a5.49,5.49,0,0,0-1.61-2.1,6.66,6.66,0,0,0-2.48-1.21,12.591,12.591,0,0,0-3.19-.38,9.66,9.66,0,0,0-4,.69,6,6,0,0,0-2.18,1.56,4.24,4.24,0,0,0-.9,1.73,6.489,6.489,0,0,0-.19,1.18,4.51,4.51,0,0,0,.73,2.77,4.68,4.68,0,0,0,2,1.49,21,21,0,0,0,2.77.9l3.48.9,2.81.78a9.55,9.55,0,0,1,2.51,1.11,5.76,5.76,0,0,1,1.8,1.8,5.26,5.26,0,0,1,.69,2.84,5.88,5.88,0,0,1-.78,3.12,6.41,6.41,0,0,1-2,2.08,8.74,8.74,0,0,1-2.84,1.16,14.359,14.359,0,0,1-3.14.35q-4.87,0-7.35-2.13T221.71,114h.95q0,4.11,2.29,6t6.6,1.91a12.6,12.6,0,0,0,2.72-.31,8.31,8.31,0,0,0,2.53-1,5.9,5.9,0,0,0,1.87-1.77,4.63,4.63,0,0,0,.73-2.65,4.28,4.28,0,0,0-.73-2.6,5.78,5.78,0,0,0-1.89-1.63,11.121,11.121,0,0,0-2.67-1l-3.07-.76q-1.75-.43-3.07-.8a16.929,16.929,0,0,1-2.36-.85,4.66,4.66,0,0,1-2.22-1.84,6.12,6.12,0,0,1-.71-3.17,5.7,5.7,0,0,1,.43-2.08,5.28,5.28,0,0,1,1.42-2,7.67,7.67,0,0,1,2.47-1.4,11.28,11.28,0,0,1,3.83-.57,10.2,10.2,0,0,1,6.43,1.84q2.36,1.84,2.36,5.91h-.95a7.67,7.67,0,0,0-.51-3.11Z" transform="translate(143 118)"/>
    <path id="Path_149" data-name="Path 149" class="cls-8" d="M245.73,88.59v15.46h.09a8.59,8.59,0,0,1,1.06-2.6A8.21,8.21,0,0,1,251.3,98a10.12,10.12,0,0,1,3.26-.5,10.24,10.24,0,0,1,3.48.57,7.63,7.63,0,0,1,2.74,1.68,7.551,7.551,0,0,1,1.8,2.74,10.26,10.26,0,0,1,.64,3.76v16.12h-.95v-16a9.49,9.49,0,0,0-.61-3.62A6.75,6.75,0,0,0,260,100.3a6.63,6.63,0,0,0-2.46-1.42,9.59,9.59,0,0,0-3-.45,8.46,8.46,0,0,0-3.83.83,8.14,8.14,0,0,0-2.77,2.22,9.73,9.73,0,0,0-1.68,3.24,13.11,13.11,0,0,0-.57,3.88v13.76h-.95V88.59Z" transform="translate(143 118)"/>
    <path id="Path_150" data-name="Path 150" class="cls-8" d="M298.71,122.35V98.05h.95v6h.09a9.39,9.39,0,0,1,1-2.58,7.25,7.25,0,0,1,1.89-2.1A9.26,9.26,0,0,1,305.5,98a11.73,11.73,0,0,1,3.81-.47v.95a9.11,9.11,0,0,0-4.33.69,8.2,8.2,0,0,0-3,2.27,9.51,9.51,0,0,0-1.75,3.33,13.419,13.419,0,0,0-.57,3.88v13.76Z" transform="translate(143 118)"/>
    <path id="Path_151" data-name="Path 151" class="cls-8" d="M311.9,122.35H311V88.59h.95V112l16.78-13.95h1.37l-11.16,9.27,12,15h-1.28L318.19,108l-6.29,5.2Z" transform="translate(143 118)"/>
    <path id="Path_152" data-name="Path 152" class="cls-8" d="M306.13,154.74V132.39H307v5.52h.09a8.649,8.649,0,0,1,1-2.37,6.67,6.67,0,0,1,1.74-1.94,8.52,8.52,0,0,1,2.59-1.31,10.79,10.79,0,0,1,3.5-.44v.87a8.39,8.39,0,0,0-4,.63,7.54,7.54,0,0,0-2.76,2.09,8.75,8.75,0,0,0-1.61,3.07,12.35,12.35,0,0,0-.52,3.57v12.66Z" transform="translate(143 118)"/>
    <path id="Path_153" data-name="Path 153" class="cls-8" d="M322.36,150.39a5.37,5.37,0,0,0,.28,2,2.5,2.5,0,0,0,.72,1,1.88,1.88,0,0,0,1,.41,8.433,8.433,0,0,0,1,.07h1.17a2.46,2.46,0,0,0,.74-.11v.87l-.76.09h-1.37a3.9,3.9,0,0,1-2.59-.89q-1.07-.89-1.07-3.28V133.26H317.4v-.87h4.09v-7h.87v7h5v.87h-5Z" transform="translate(143 118)"/>
    <path id="Path_154" data-name="Path 154" class="cls-8" d="M332.21,124.29v13.95h.09a7.739,7.739,0,0,1,1-2.35,7.41,7.41,0,0,1,4-3.13,9.13,9.13,0,0,1,2.94-.45,9.24,9.24,0,0,1,3.14.51,6.677,6.677,0,0,1,4.09,3.98,9.26,9.26,0,0,1,.58,3.39v14.54h-.85v-14.4a8.56,8.56,0,0,0-.55-3.26,6.09,6.09,0,0,0-1.51-2.22,6,6,0,0,0-2.22-1.28,8.65,8.65,0,0,0-2.67-.41,7.63,7.63,0,0,0-3.46.75,7.34,7.34,0,0,0-2.5,2,8.78,8.78,0,0,0-1.51,2.92,11.83,11.83,0,0,0-.51,3.5v12.41h-.85V124.29Z" transform="translate(143 118)"/>
    <path id="Path_155" data-name="Path 155" class="cls-8" d="M353.11,139.45a11,11,0,0,1,1.9-3.65,9.59,9.59,0,0,1,3.09-2.54,9.51,9.51,0,0,1,8.49,0,9.61,9.61,0,0,1,3.09,2.54,11,11,0,0,1,1.9,3.65,15,15,0,0,1,0,8.66,11,11,0,0,1-1.9,3.65,9.349,9.349,0,0,1-3.09,2.52,9.25,9.25,0,0,1-4.27.94,9.15,9.15,0,0,1-4.22-.94,9.33,9.33,0,0,1-3.09-2.52,11,11,0,0,1-1.9-3.65,15,15,0,0,1,0-8.66Zm.79,8.34a10.2,10.2,0,0,0,1.73,3.39,8.56,8.56,0,0,0,2.84,2.35,8.35,8.35,0,0,0,3.9.87,8.26,8.26,0,0,0,3.86-.87,8.569,8.569,0,0,0,2.84-2.35,10.2,10.2,0,0,0,1.73-3.39,13.88,13.88,0,0,0,.58-4,13.731,13.731,0,0,0-.58-4,10.2,10.2,0,0,0-1.73-3.39,8.81,8.81,0,0,0-2.84-2.37,8.1,8.1,0,0,0-3.86-.9,8.19,8.19,0,0,0-3.9.9,8.8,8.8,0,0,0-2.84,2.37,10.19,10.19,0,0,0-1.73,3.39,13.731,13.731,0,0,0-.58,4A13.881,13.881,0,0,0,353.9,147.79Z" transform="translate(143 118)"/>
    <path id="Path_156" data-name="Path 156" class="cls-8" d="M377.55,132.82v5.42h.09a7.739,7.739,0,0,1,1-2.35,7.41,7.41,0,0,1,4-3.13,9.13,9.13,0,0,1,2.94-.45,9.24,9.24,0,0,1,3.14.51,6.69,6.69,0,0,1,4.09,4,9.26,9.26,0,0,1,.58,3.39v14.54h-.85V140.33a8.56,8.56,0,0,0-.55-3.26,6.089,6.089,0,0,0-1.51-2.22,6,6,0,0,0-2.22-1.28,8.651,8.651,0,0,0-2.67-.41,7.63,7.63,0,0,0-3.45.75,7.34,7.34,0,0,0-2.5,2,8.78,8.78,0,0,0-1.51,2.92,11.828,11.828,0,0,0-.51,3.5v12.41h-.85V132.82Z" transform="translate(143 118)"/>
    <path id="Path_157" data-name="Path 157" class="cls-8" d="M274.63,88.77" transform="translate(143 118)"/>
    <path id="Path_158" data-name="Path 158" class="cls-8" d="M300.68,154.32l1-.06c0-.24-1.56-24-8-40a75.5,75.5,0,0,0-19.25-27.59l-.61.75a74.48,74.48,0,0,1,19,27.21C299.13,130.49,300.67,154.09,300.68,154.32Z" transform="translate(143 118)"/>
    <path id="Path_159" data-name="Path 159" class="cls-8" d="M248,154.65c7.44-6.74,13.06-15.59,17.18-27.07,3.63-10.13,5.7-21,7.69-31.57.55-2.92,1.12-5.93,1.71-8.84l-.95-.19c-.59,2.91-1.16,5.93-1.71,8.85-4,21.28-8.2,43.28-24.57,58.1Z" transform="translate(143 118)"/>
    <rect id="Rectangle_24" data-name="Rectangle 24" class="cls-8" width="0.84" height="0.84" transform="translate(416.602 204.942) rotate(-19.39)"/>
    <path id="Path_160" data-name="Path 160" class="cls-8" d="M274.4,86.69s-.68-.39-.8.28" transform="translate(143 118)"/>
  </g>
</svg>
